<svg id="svg" version="1.1" xmlns="http://www.w3.org/2000/svg" xmlns:xlink="http://www.w3.org/1999/xlink" width="400" height="266.53346653346654" viewBox="0, 0, 400,266.53346653346654"><g id="svgg"><path id="path0" d="M195.333 5.898 C 184.901 6.622,177.659 7.718,170.000 9.732 C 164.545 11.166,156.932 13.762,153.200 15.461 C 152.907 15.595,152.067 15.966,151.333 16.285 C 116.061 31.659,88.946 65.066,81.221 102.667 C 80.965 103.913,80.652 105.413,80.526 106.000 C 76.390 125.171,78.798 152.284,86.351 171.600 C 86.638 172.333,87.177 173.713,87.548 174.667 C 98.591 203.010,123.762 228.720,152.267 240.774 C 154.100 241.549,155.960 242.340,156.400 242.532 C 157.447 242.989,162.450 244.746,164.067 245.225 C 167.211 246.156,168.286 246.458,170.533 247.039 C 175.919 248.431,182.588 249.665,187.333 250.146 C 208.511 252.296,230.170 249.239,247.867 241.603 C 248.453 241.349,249.344 240.975,249.845 240.771 C 253.407 239.321,261.800 234.902,265.733 232.407 C 269.769 229.847,276.457 225.106,277.763 223.879 C 277.926 223.725,279.208 222.640,280.611 221.467 C 283.753 218.839,291.981 210.577,294.688 207.333 C 298.018 203.341,304.800 194.039,304.800 193.463 C 304.800 193.406,305.144 192.844,305.565 192.213 C 307.352 189.534,311.692 181.145,313.608 176.667 C 324.392 151.454,326.429 122.108,319.198 96.133 C 318.871 94.960,318.513 93.640,318.401 93.200 C 317.270 88.751,313.862 80.225,310.459 73.333 C 303.870 59.989,293.468 46.434,282.400 36.768 C 281.300 35.808,280.013 34.685,279.541 34.273 C 267.884 24.120,249.195 14.277,233.867 10.216 C 224.130 7.637,217.917 6.665,206.133 5.874 C 201.567 5.567,200.049 5.571,195.333 5.898 M204.181 64.006 C 224.420 66.656,234.651 89.044,223.357 105.970 C 213.277 121.077,191.148 121.920,179.830 107.630 C 172.505 98.380,172.028 85.228,178.670 75.620 C 184.431 67.286,194.437 62.731,204.181 64.006 M399.795 132.533 C 399.795 133.047,399.850 133.257,399.917 133.000 C 399.984 132.743,399.984 132.323,399.917 132.067 C 399.850 131.810,399.795 132.020,399.795 132.533 M205.867 133.067 C 207.993 133.209,210.633 133.456,211.733 133.614 C 215.512 134.158,220.401 134.968,221.333 135.204 C 221.847 135.335,223.347 135.700,224.667 136.016 C 227.122 136.604,233.153 138.524,235.067 139.326 C 243.184 142.731,247.697 145.546,252.267 150.058 C 259.458 157.158,260.112 158.931,259.945 170.879 C 259.848 177.829,259.828 178.047,259.126 179.972 C 257.052 185.649,252.781 189.440,246.933 190.791 C 244.198 191.424,158.726 191.400,155.919 190.767 C 149.490 189.315,144.722 184.380,143.364 177.771 C 142.756 174.811,142.755 164.393,143.363 161.429 C 145.698 150.045,163.694 137.972,183.067 134.794 C 183.653 134.698,185.033 134.458,186.133 134.260 C 193.338 132.968,199.145 132.617,205.867 133.067 " stroke="none" fill="#1c73e2" fill-rule="evenodd"></path><path id="path1" d="M0.000 133.333 L 0.000 266.667 199.865 266.667 L 399.731 266.667 399.731 133.333 L 399.731 -0.000 199.865 -0.000 L 0.000 0.000 0.000 133.333 M211.733 5.886 C 217.909 6.379,222.553 7.136,230.400 8.931 C 240.242 11.183,255.945 17.558,262.933 22.139 C 263.153 22.283,263.573 22.508,263.867 22.638 C 266.862 23.971,277.679 32.034,283.627 37.368 C 295.766 48.254,307.849 65.058,313.611 79.067 C 313.961 79.918,314.584 81.367,315.181 82.719 C 315.485 83.407,315.733 84.099,315.733 84.256 C 315.733 84.412,315.852 84.749,315.996 85.004 C 316.292 85.524,317.455 88.810,318.025 90.733 C 318.231 91.430,318.590 92.630,318.822 93.400 C 320.534 99.077,322.000 105.895,322.677 111.333 C 322.823 112.507,323.073 114.187,323.232 115.067 C 323.658 117.414,323.850 134.406,323.495 138.267 C 323.039 143.220,322.137 149.864,321.595 152.267 C 321.446 152.927,321.085 154.547,320.793 155.867 C 320.226 158.434,320.073 159.027,319.182 162.133 C 315.604 174.597,310.003 186.607,302.868 197.114 C 290.027 216.024,271.870 231.325,251.333 240.543 C 215.809 256.489,172.668 254.398,140.175 235.155 C 138.732 234.300,137.508 233.600,137.455 233.600 C 137.403 233.600,136.844 233.258,136.213 232.840 C 135.583 232.421,134.167 231.500,133.067 230.792 C 124.595 225.342,113.902 215.796,107.088 207.600 C 106.235 206.573,105.307 205.459,105.027 205.123 C 104.032 203.928,100.633 199.308,99.592 197.733 C 99.010 196.853,98.464 196.073,98.380 196.000 C 98.296 195.927,97.109 194.007,95.743 191.733 C 92.569 186.452,90.289 182.011,88.007 176.667 C 87.694 175.933,87.325 175.093,87.187 174.800 C 86.368 173.056,84.162 166.748,83.224 163.467 C 82.910 162.367,82.544 161.107,82.412 160.667 C 82.281 160.227,81.917 158.787,81.604 157.467 C 81.291 156.147,80.918 154.587,80.774 154.000 C 80.195 151.639,79.325 146.091,78.934 142.267 C 78.784 140.800,78.543 138.497,78.398 137.149 C 78.049 133.914,78.059 123.034,78.414 119.333 C 79.170 111.452,80.069 105.491,81.207 100.800 C 81.439 99.847,81.742 98.527,81.881 97.867 C 82.020 97.207,82.244 96.367,82.379 96.000 C 82.514 95.633,82.829 94.613,83.079 93.733 C 83.915 90.790,85.417 86.269,85.643 86.013 C 85.766 85.874,85.867 85.592,85.867 85.387 C 85.867 85.182,86.033 84.636,86.236 84.174 C 86.439 83.711,87.235 81.833,88.006 80.000 C 90.786 73.387,94.969 65.720,99.263 59.369 C 100.988 56.818,105.257 51.165,106.929 49.218 C 133.681 18.063,170.990 2.638,211.733 5.886 M196.533 64.561 C 189.956 65.601,183.293 69.766,179.346 75.305 C 178.008 77.181,176.000 80.956,176.000 81.594 C 176.000 81.832,175.893 82.141,175.761 82.280 C 175.480 82.579,175.006 84.510,174.619 86.933 C 174.305 88.904,174.497 95.455,174.904 96.667 C 175.052 97.107,175.432 98.307,175.747 99.333 C 178.014 106.711,184.520 113.404,191.867 115.916 C 194.940 116.967,195.390 117.068,198.236 117.355 C 221.270 119.673,236.160 93.653,222.444 75.050 C 216.494 66.982,206.588 62.971,196.533 64.561 M193.467 133.608 C 188.295 134.154,181.680 135.332,177.600 136.434 C 173.278 137.601,171.494 138.162,169.960 138.832 C 169.498 139.035,168.986 139.200,168.823 139.200 C 168.660 139.200,168.318 139.316,168.063 139.457 C 167.808 139.599,167.000 139.967,166.267 140.276 C 155.778 144.693,146.793 152.468,144.301 159.284 C 143.385 161.787,143.081 175.353,143.871 178.438 C 145.331 184.139,149.576 188.627,154.984 190.189 C 156.955 190.758,245.785 190.823,247.733 190.257 C 252.385 188.906,256.128 185.709,258.197 181.318 C 260.483 176.467,260.392 162.830,258.041 157.782 C 256.378 154.213,247.007 144.800,245.117 144.800 C 244.979 144.800,244.738 144.646,244.581 144.458 C 244.302 144.122,238.883 141.338,236.533 140.324 C 234.441 139.422,230.125 137.910,227.668 137.220 C 223.704 136.106,223.556 136.071,217.867 134.914 C 211.401 133.600,199.558 132.966,193.467 133.608 " stroke="none" fill="#fbfbfb" fill-rule="evenodd"></path><path id="path2" d="M399.671 66.733 C 399.632 103.437,399.660 163.467,399.734 200.133 C 399.840 253.258,399.881 239.703,399.933 133.400 C 399.968 60.030,399.940 0.000,399.870 0.000 C 399.799 0.000,399.710 30.030,399.671 66.733 M199.800 5.528 C 200.350 5.585,201.250 5.585,201.800 5.528 C 202.350 5.470,201.900 5.423,200.800 5.423 C 199.700 5.423,199.250 5.470,199.800 5.528 M286.000 39.733 C 286.722 40.467,287.373 41.067,287.447 41.067 C 287.520 41.067,286.989 40.467,286.267 39.733 C 285.544 39.000,284.893 38.400,284.820 38.400 C 284.747 38.400,285.278 39.000,286.000 39.733 M288.533 42.217 C 288.533 42.263,288.923 42.653,289.400 43.083 L 290.267 43.867 289.483 43.000 C 288.753 42.192,288.533 42.011,288.533 42.217 M200.067 64.194 C 200.617 64.252,201.517 64.252,202.067 64.194 C 202.617 64.137,202.167 64.090,201.067 64.090 C 199.967 64.090,199.517 64.137,200.067 64.194 M174.195 90.933 C 174.195 91.447,174.250 91.657,174.317 91.400 C 174.384 91.143,174.384 90.723,174.317 90.467 C 174.250 90.210,174.195 90.420,174.195 90.933 M198.070 117.522 C 198.401 117.586,198.881 117.583,199.136 117.517 C 199.391 117.450,199.120 117.398,198.533 117.401 C 197.947 117.404,197.738 117.458,198.070 117.522 M203.000 117.517 C 203.257 117.584,203.677 117.584,203.933 117.517 C 204.190 117.450,203.980 117.395,203.467 117.395 C 202.953 117.395,202.743 117.450,203.000 117.517 M78.206 122.133 C 78.206 122.793,78.258 123.063,78.322 122.733 C 78.385 122.403,78.385 121.863,78.322 121.533 C 78.258 121.203,78.206 121.473,78.206 122.133 M198.867 133.264 C 199.783 133.316,201.283 133.316,202.200 133.264 C 203.117 133.212,202.367 133.169,200.533 133.169 C 198.700 133.169,197.950 133.212,198.867 133.264 M78.210 134.533 C 78.212 135.267,78.263 135.535,78.325 135.130 C 78.386 134.724,78.384 134.124,78.321 133.796 C 78.258 133.468,78.208 133.800,78.210 134.533 M254.667 186.267 C 254.019 186.927,253.549 187.467,253.622 187.467 C 253.696 187.467,254.286 186.927,254.933 186.267 C 255.581 185.607,256.051 185.067,255.978 185.067 C 255.904 185.067,255.314 185.607,254.667 186.267 M179.688 190.867 C 191.763 190.905,211.443 190.905,223.421 190.867 C 235.399 190.828,225.520 190.797,201.467 190.797 C 177.413 190.797,167.613 190.828,179.688 190.867 M111.467 212.617 C 111.467 212.663,111.857 213.053,112.333 213.483 L 113.200 214.267 112.417 213.400 C 111.687 212.592,111.467 212.411,111.467 212.617 M115.733 216.933 C 116.231 217.447,116.698 217.867,116.771 217.867 C 116.845 217.867,116.498 217.447,116.000 216.933 C 115.502 216.420,115.035 216.000,114.962 216.000 C 114.889 216.000,115.236 216.420,115.733 216.933 " stroke="none" fill="#dadbdc" fill-rule="evenodd"></path><path id="path3" d="M193.270 5.789 C 193.601 5.852,194.081 5.850,194.336 5.783 C 194.591 5.716,194.320 5.664,193.733 5.667 C 193.147 5.670,192.938 5.725,193.270 5.789 M207.936 5.789 C 208.268 5.852,208.748 5.850,209.003 5.783 C 209.258 5.716,208.987 5.664,208.400 5.667 C 207.813 5.670,207.605 5.725,207.936 5.789 M189.536 6.055 C 189.868 6.119,190.348 6.117,190.603 6.050 C 190.858 5.983,190.587 5.931,190.000 5.934 C 189.413 5.937,189.205 5.991,189.536 6.055 M211.670 6.055 C 212.001 6.119,212.481 6.117,212.736 6.050 C 212.991 5.983,212.720 5.931,212.133 5.934 C 211.547 5.937,211.338 5.991,211.670 6.055 M231.067 9.333 C 231.360 9.459,231.780 9.563,232.000 9.563 C 232.252 9.563,232.203 9.478,231.867 9.333 C 231.573 9.207,231.153 9.104,230.933 9.104 C 230.681 9.104,230.730 9.189,231.067 9.333 M119.050 36.867 L 118.267 37.733 119.133 36.950 C 119.610 36.519,120.000 36.129,120.000 36.083 C 120.000 35.877,119.780 36.059,119.050 36.867 M284.000 38.000 C 284.498 38.513,284.965 38.933,285.038 38.933 C 285.111 38.933,284.764 38.513,284.267 38.000 C 283.769 37.487,283.302 37.067,283.229 37.067 C 283.155 37.067,283.502 37.487,284.000 38.000 M114.129 41.533 L 110.800 44.933 114.200 41.604 C 117.358 38.511,117.721 38.133,117.529 38.133 C 117.490 38.133,115.960 39.663,114.129 41.533 M291.067 45.067 C 291.640 45.653,292.168 46.133,292.242 46.133 C 292.315 46.133,291.906 45.653,291.333 45.067 C 290.760 44.480,290.232 44.000,290.158 44.000 C 290.085 44.000,290.494 44.480,291.067 45.067 M108.917 47.000 L 108.133 47.867 109.000 47.083 C 109.808 46.353,109.989 46.133,109.783 46.133 C 109.737 46.133,109.347 46.523,108.917 47.000 M220.000 72.133 C 220.945 73.087,221.778 73.867,221.851 73.867 C 221.925 73.867,221.212 73.087,220.267 72.133 C 219.322 71.180,218.489 70.400,218.415 70.400 C 218.342 70.400,219.055 71.180,220.000 72.133 M181.717 72.067 L 180.933 72.933 181.800 72.150 C 182.277 71.719,182.667 71.329,182.667 71.283 C 182.667 71.077,182.447 71.259,181.717 72.067 M174.210 88.933 C 174.212 89.667,174.263 89.935,174.325 89.530 C 174.386 89.124,174.384 88.524,174.321 88.196 C 174.258 87.868,174.208 88.200,174.210 88.933 M227.795 90.933 C 227.795 91.447,227.850 91.657,227.917 91.400 C 227.984 91.143,227.984 90.723,227.917 90.467 C 227.850 90.210,227.795 90.420,227.795 90.933 M174.210 92.933 C 174.212 93.667,174.263 93.935,174.325 93.530 C 174.386 93.124,174.384 92.524,174.321 92.196 C 174.258 91.868,174.208 92.200,174.210 92.933 M220.121 109.667 L 219.067 110.800 220.200 109.746 C 220.823 109.166,221.333 108.656,221.333 108.613 C 221.333 108.411,221.101 108.613,220.121 109.667 M78.995 114.133 C 78.995 114.647,79.050 114.857,79.117 114.600 C 79.184 114.343,79.184 113.923,79.117 113.667 C 79.050 113.410,78.995 113.620,78.995 114.133 M78.729 116.267 C 78.729 116.780,78.783 116.990,78.850 116.733 C 78.918 116.477,78.918 116.057,78.850 115.800 C 78.783 115.543,78.729 115.753,78.729 116.267 M323.267 118.267 C 323.270 118.853,323.325 119.062,323.389 118.730 C 323.452 118.399,323.450 117.919,323.383 117.664 C 323.316 117.409,323.264 117.680,323.267 118.267 M199.927 117.792 C 200.401 117.851,201.241 117.852,201.794 117.795 C 202.347 117.737,201.960 117.689,200.933 117.688 C 199.907 117.686,199.454 117.734,199.927 117.792 M78.462 120.267 C 78.462 120.780,78.517 120.990,78.584 120.733 C 78.651 120.477,78.651 120.057,78.584 119.800 C 78.517 119.543,78.462 119.753,78.462 120.267 M323.547 121.867 C 323.547 122.673,323.597 123.003,323.658 122.600 C 323.719 122.197,323.719 121.537,323.658 121.133 C 323.597 120.730,323.547 121.060,323.547 121.867 M78.245 128.267 C 78.245 131.127,78.284 132.297,78.332 130.867 C 78.380 129.437,78.380 127.097,78.332 125.667 C 78.284 124.237,78.245 125.407,78.245 128.267 M195.936 133.255 C 196.268 133.319,196.748 133.317,197.003 133.250 C 197.258 133.183,196.987 133.131,196.400 133.134 C 195.813 133.137,195.605 133.191,195.936 133.255 M204.200 133.255 C 204.530 133.318,205.070 133.318,205.400 133.255 C 205.730 133.191,205.460 133.139,204.800 133.139 C 204.140 133.139,203.870 133.191,204.200 133.255 M323.547 134.933 C 323.547 135.740,323.597 136.070,323.658 135.667 C 323.719 135.263,323.719 134.603,323.658 134.200 C 323.597 133.797,323.547 134.127,323.547 134.933 M78.467 136.400 C 78.470 136.987,78.525 137.195,78.589 136.864 C 78.652 136.532,78.650 136.052,78.583 135.797 C 78.516 135.542,78.464 135.813,78.467 136.400 M323.273 138.400 C 323.273 139.060,323.325 139.330,323.388 139.000 C 323.452 138.670,323.452 138.130,323.388 137.800 C 323.325 137.470,323.273 137.740,323.273 138.400 M78.729 140.267 C 78.729 140.780,78.783 140.990,78.850 140.733 C 78.918 140.477,78.918 140.057,78.850 139.800 C 78.783 139.543,78.729 139.753,78.729 140.267 M150.391 150.333 L 148.933 151.867 150.467 150.409 C 151.891 149.055,152.122 148.800,151.924 148.800 C 151.883 148.800,151.193 149.490,150.391 150.333 M143.316 169.600 C 143.316 173.487,143.354 175.077,143.399 173.133 C 143.445 171.190,143.445 168.010,143.399 166.067 C 143.354 164.123,143.316 165.713,143.316 169.600 M292.383 210.200 L 291.600 211.067 292.467 210.283 C 293.275 209.553,293.456 209.333,293.250 209.333 C 293.204 209.333,292.814 209.723,292.383 210.200 M110.667 211.600 C 111.164 212.113,111.631 212.533,111.705 212.533 C 111.778 212.533,111.431 212.113,110.933 211.600 C 110.436 211.087,109.969 210.667,109.895 210.667 C 109.822 210.667,110.169 211.087,110.667 211.600 M287.600 215.200 C 285.845 216.960,284.468 218.400,284.542 218.400 C 284.615 218.400,286.111 216.960,287.867 215.200 C 289.622 213.440,290.998 212.000,290.925 212.000 C 290.852 212.000,289.355 213.440,287.600 215.200 M117.856 218.733 C 118.961 219.911,119.200 220.122,119.200 219.922 C 119.200 219.879,118.630 219.309,117.933 218.656 L 116.667 217.467 117.856 218.733 M168.667 246.933 C 168.960 247.059,169.380 247.163,169.600 247.163 C 169.852 247.163,169.803 247.078,169.467 246.933 C 169.173 246.807,168.753 246.704,168.533 246.704 C 168.281 246.704,168.330 246.789,168.667 246.933 M229.467 247.733 C 229.130 247.878,229.081 247.963,229.333 247.963 C 229.553 247.963,229.973 247.859,230.267 247.733 C 230.603 247.589,230.652 247.504,230.400 247.504 C 230.180 247.504,229.760 247.607,229.467 247.733 M185.667 250.317 C 185.923 250.384,186.343 250.384,186.600 250.317 C 186.857 250.250,186.647 250.195,186.133 250.195 C 185.620 250.195,185.410 250.250,185.667 250.317 M215.533 250.317 C 215.790 250.384,216.210 250.384,216.467 250.317 C 216.723 250.250,216.513 250.195,216.000 250.195 C 215.487 250.195,215.277 250.250,215.533 250.317 M191.670 250.855 C 192.001 250.919,192.481 250.917,192.736 250.850 C 192.991 250.783,192.720 250.731,192.133 250.734 C 191.547 250.737,191.338 250.791,191.670 250.855 M209.270 250.855 C 209.601 250.919,210.081 250.917,210.336 250.850 C 210.591 250.783,210.320 250.731,209.733 250.734 C 209.147 250.737,208.938 250.791,209.270 250.855 M195.275 251.130 C 195.976 251.185,197.056 251.184,197.675 251.128 C 198.294 251.072,197.720 251.027,196.400 251.028 C 195.080 251.029,194.574 251.075,195.275 251.130 M204.333 251.129 C 205.030 251.184,206.170 251.184,206.867 251.129 C 207.563 251.074,206.993 251.029,205.600 251.029 C 204.207 251.029,203.637 251.074,204.333 251.129 " stroke="none" fill="#a1c5f4" fill-rule="evenodd"></path><path id="path4" d="M195.533 5.794 C 196.083 5.852,196.983 5.852,197.533 5.794 C 198.083 5.737,197.633 5.690,196.533 5.690 C 195.433 5.690,194.983 5.737,195.533 5.794 M205.867 5.881 C 207.113 5.991,208.853 6.074,209.733 6.066 C 211.155 6.052,211.081 6.029,209.067 5.852 C 207.820 5.742,206.080 5.660,205.200 5.668 C 203.778 5.681,203.853 5.705,205.867 5.881 M191.661 6.059 C 192.134 6.118,192.974 6.119,193.527 6.061 C 194.081 6.004,193.693 5.955,192.667 5.954 C 191.640 5.953,191.187 6.000,191.661 6.059 M188.736 6.322 C 189.068 6.386,189.548 6.383,189.803 6.317 C 190.058 6.250,189.787 6.198,189.200 6.201 C 188.613 6.204,188.405 6.258,188.736 6.322 M212.333 6.317 C 212.590 6.384,213.010 6.384,213.267 6.317 C 213.523 6.250,213.313 6.195,212.800 6.195 C 212.287 6.195,212.077 6.250,212.333 6.317 M184.667 6.667 L 183.600 6.858 184.533 6.864 C 185.047 6.867,185.827 6.779,186.267 6.667 C 187.352 6.391,186.209 6.391,184.667 6.667 M215.867 6.682 C 216.453 6.803,217.233 6.896,217.600 6.887 C 218.028 6.877,217.884 6.793,217.200 6.651 C 216.613 6.530,215.833 6.438,215.467 6.446 C 215.039 6.456,215.182 6.540,215.867 6.682 M179.467 7.467 C 178.562 7.657,178.558 7.663,179.333 7.672 C 179.773 7.676,180.433 7.584,180.800 7.467 C 181.674 7.187,180.797 7.187,179.467 7.467 M221.333 7.467 C 221.700 7.584,222.300 7.678,222.667 7.675 C 223.265 7.671,223.252 7.650,222.533 7.467 C 221.405 7.180,220.437 7.180,221.333 7.467 M175.467 8.267 C 174.931 8.438,174.905 8.482,175.333 8.488 C 175.627 8.492,176.107 8.393,176.400 8.267 C 177.080 7.975,176.378 7.975,175.467 8.267 M225.733 8.267 C 226.027 8.393,226.507 8.492,226.800 8.488 C 227.229 8.482,227.203 8.438,226.667 8.267 C 225.755 7.975,225.054 7.975,225.733 8.267 M171.867 9.067 C 171.530 9.211,171.481 9.296,171.733 9.296 C 171.953 9.296,172.373 9.193,172.667 9.067 C 173.003 8.922,173.052 8.837,172.800 8.837 C 172.580 8.837,172.160 8.941,171.867 9.067 M229.200 9.067 C 229.493 9.193,229.973 9.292,230.267 9.288 C 230.695 9.282,230.669 9.238,230.133 9.067 C 229.222 8.775,228.520 8.775,229.200 9.067 M160.667 12.409 C 160.000 12.731,159.978 12.768,160.533 12.632 C 161.289 12.447,162.138 12.014,161.733 12.020 C 161.587 12.022,161.107 12.197,160.667 12.409 M242.667 13.022 C 242.887 13.158,243.367 13.349,243.733 13.447 C 244.197 13.571,244.278 13.550,244.000 13.378 C 243.780 13.242,243.300 13.051,242.933 12.953 C 242.470 12.829,242.389 12.850,242.667 13.022 M244.800 13.822 C 245.020 13.958,245.500 14.149,245.867 14.247 C 246.330 14.371,246.411 14.350,246.133 14.178 C 245.913 14.042,245.433 13.851,245.067 13.753 C 244.603 13.629,244.522 13.650,244.800 13.822 M250.933 16.400 C 251.300 16.610,251.720 16.781,251.867 16.781 C 252.013 16.781,251.833 16.610,251.467 16.400 C 251.100 16.190,250.680 16.019,250.533 16.019 C 250.387 16.019,250.567 16.190,250.933 16.400 M148.800 17.200 C 148.433 17.410,148.253 17.581,148.400 17.581 C 148.547 17.581,148.967 17.410,149.333 17.200 C 149.700 16.990,149.880 16.819,149.733 16.819 C 149.587 16.819,149.167 16.990,148.800 17.200 M143.400 19.884 C 142.703 20.247,142.133 20.603,142.133 20.676 C 142.133 20.749,142.733 20.505,143.467 20.133 C 144.200 19.762,144.800 19.400,144.800 19.329 C 144.800 19.152,144.824 19.143,143.400 19.884 M140.733 21.351 C 140.183 21.642,139.733 21.939,139.733 22.012 C 139.733 22.085,140.213 21.899,140.800 21.600 C 141.387 21.301,141.867 20.998,141.867 20.928 C 141.867 20.753,141.865 20.754,140.733 21.351 M135.595 24.437 C 134.234 25.340,133.755 25.816,134.818 25.209 C 135.753 24.676,137.001 23.748,136.795 23.739 C 136.719 23.736,136.179 24.050,135.595 24.437 M127.533 30.014 C 126.470 30.823,125.600 31.543,125.600 31.615 C 125.600 31.687,126.500 31.069,127.600 30.241 C 129.337 28.933,129.809 28.518,129.533 28.538 C 129.497 28.541,128.597 29.205,127.533 30.014 M276.000 31.286 C 276.000 31.352,276.870 32.105,277.933 32.959 C 278.997 33.813,279.717 34.324,279.533 34.095 C 279.142 33.606,276.000 31.108,276.000 31.286 M122.533 34.033 L 121.200 35.254 122.600 34.136 C 123.812 33.167,124.196 32.784,123.933 32.805 C 123.897 32.809,123.267 33.361,122.533 34.033 M281.133 35.653 C 283.835 38.002,284.060 38.161,282.285 36.467 C 281.248 35.477,280.310 34.667,280.199 34.667 C 280.089 34.667,280.509 35.110,281.133 35.653 M119.854 36.333 L 118.800 37.467 119.933 36.413 C 120.987 35.432,121.189 35.200,120.987 35.200 C 120.944 35.200,120.434 35.710,119.854 36.333 M114.000 41.867 C 111.657 44.213,109.858 46.116,110.003 46.094 C 110.273 46.054,118.618 37.600,118.388 37.600 C 118.318 37.600,116.343 39.520,114.000 41.867 M284.533 38.701 C 284.607 38.760,285.927 40.004,287.467 41.465 L 290.267 44.122 287.867 41.643 C 286.547 40.279,285.227 39.036,284.933 38.879 C 284.640 38.722,284.460 38.643,284.533 38.701 M291.733 46.000 C 292.231 46.513,292.698 46.933,292.771 46.933 C 292.845 46.933,292.498 46.513,292.000 46.000 C 291.502 45.487,291.035 45.067,290.962 45.067 C 290.889 45.067,291.236 45.487,291.733 46.000 M108.650 47.533 L 107.867 48.400 108.733 47.617 C 109.541 46.887,109.723 46.667,109.517 46.667 C 109.471 46.667,109.081 47.057,108.650 47.533 M294.233 48.879 C 295.094 49.862,295.856 50.667,295.926 50.667 C 296.102 50.667,293.349 47.507,292.973 47.278 C 292.804 47.175,293.371 47.896,294.233 48.879 M105.333 51.467 C 104.719 52.200,104.277 52.800,104.350 52.800 C 104.424 52.800,104.986 52.200,105.600 51.467 C 106.214 50.733,106.656 50.133,106.583 50.133 C 106.510 50.133,105.947 50.733,105.333 51.467 M296.903 52.079 C 297.468 52.769,297.987 53.333,298.055 53.333 C 298.236 53.333,296.548 51.240,296.185 51.016 C 296.015 50.911,296.338 51.389,296.903 52.079 M103.317 54.046 C 102.906 54.584,102.706 54.940,102.873 54.838 C 103.214 54.627,104.368 53.067,104.183 53.067 C 104.117 53.067,103.727 53.507,103.317 54.046 M299.849 56.012 C 301.354 58.116,301.890 58.571,300.525 56.586 C 299.889 55.661,299.243 54.827,299.089 54.731 C 298.934 54.636,299.276 55.212,299.849 56.012 M100.800 57.467 C 100.346 58.127,100.034 58.667,100.108 58.667 C 100.181 58.667,100.613 58.127,101.067 57.467 C 101.521 56.807,101.832 56.267,101.759 56.267 C 101.686 56.267,101.254 56.807,100.800 57.467 M97.231 62.800 C 96.994 63.167,96.606 63.797,96.368 64.200 L 95.937 64.933 96.473 64.284 C 97.107 63.517,97.947 62.133,97.779 62.133 C 97.714 62.133,97.468 62.433,97.231 62.800 M200.067 63.928 C 200.617 63.985,201.517 63.985,202.067 63.928 C 202.617 63.870,202.167 63.823,201.067 63.823 C 199.967 63.823,199.517 63.870,200.067 63.928 M206.400 64.533 C 207.312 64.825,208.013 64.825,207.333 64.533 C 207.040 64.407,206.560 64.308,206.267 64.312 C 205.838 64.318,205.864 64.362,206.400 64.533 M189.000 66.551 C 188.303 66.914,187.733 67.270,187.733 67.343 C 187.733 67.462,190.373 66.215,190.644 65.968 C 190.975 65.667,190.107 65.975,189.000 66.551 M217.467 69.504 C 219.191 71.221,221.855 73.567,220.800 72.439 C 220.140 71.733,219.000 70.665,218.267 70.064 C 217.533 69.464,217.173 69.212,217.467 69.504 M183.317 70.467 L 182.533 71.333 183.400 70.550 C 183.877 70.119,184.267 69.729,184.267 69.683 C 184.267 69.477,184.047 69.659,183.317 70.467 M223.323 75.933 C 223.735 76.557,224.122 77.067,224.184 77.067 C 224.376 77.067,223.355 75.444,222.955 75.113 C 222.746 74.941,222.912 75.310,223.323 75.933 M177.053 78.159 C 176.747 78.760,176.542 79.297,176.598 79.353 C 176.654 79.409,176.960 78.918,177.280 78.261 C 178.006 76.765,177.810 76.677,177.053 78.159 M225.120 79.061 C 225.440 79.718,225.746 80.209,225.802 80.153 C 225.923 80.033,224.845 77.867,224.665 77.867 C 224.596 77.867,224.801 78.404,225.120 79.061 M312.819 78.267 C 312.819 78.413,312.990 78.833,313.200 79.200 C 313.410 79.567,313.581 79.747,313.581 79.600 C 313.581 79.453,313.410 79.033,313.200 78.667 C 312.990 78.300,312.819 78.120,312.819 78.267 M175.086 82.819 C 174.988 83.210,174.959 83.581,175.022 83.644 C 175.085 83.707,175.216 83.438,175.314 83.048 C 175.412 82.657,175.441 82.286,175.378 82.223 C 175.315 82.160,175.184 82.428,175.086 82.819 M86.696 83.496 C 86.532 83.968,86.444 84.400,86.501 84.457 C 86.558 84.514,86.739 84.175,86.904 83.704 C 87.068 83.232,87.156 82.800,87.099 82.743 C 87.042 82.686,86.861 83.025,86.696 83.496 M85.896 85.630 C 85.732 86.101,85.644 86.533,85.701 86.590 C 85.758 86.647,85.939 86.308,86.104 85.837 C 86.268 85.366,86.356 84.934,86.299 84.876 C 86.242 84.819,86.061 85.158,85.896 85.630 M227.813 88.800 C 227.813 89.607,227.863 89.937,227.924 89.533 C 227.985 89.130,227.985 88.470,227.924 88.067 C 227.863 87.663,227.813 87.993,227.813 88.800 M173.954 90.800 C 173.955 91.827,174.004 92.214,174.061 91.661 C 174.119 91.107,174.118 90.267,174.059 89.794 C 174.000 89.321,173.953 89.773,173.954 90.800 M83.619 92.419 C 83.521 92.810,83.492 93.181,83.555 93.244 C 83.618 93.307,83.750 93.038,83.848 92.648 C 83.946 92.257,83.975 91.886,83.912 91.823 C 83.849 91.760,83.717 92.028,83.619 92.419 M227.810 92.933 C 227.812 93.667,227.863 93.935,227.925 93.530 C 227.986 93.124,227.984 92.524,227.921 92.196 C 227.858 91.868,227.808 92.200,227.810 92.933 M318.437 93.333 C 318.437 93.553,318.541 93.973,318.667 94.267 C 318.811 94.603,318.896 94.652,318.896 94.400 C 318.896 94.180,318.793 93.760,318.667 93.467 C 318.522 93.130,318.437 93.081,318.437 93.333 M82.819 95.086 C 82.721 95.477,82.692 95.848,82.755 95.911 C 82.818 95.973,82.950 95.705,83.048 95.314 C 83.146 94.923,83.175 94.552,83.112 94.489 C 83.049 94.427,82.917 94.695,82.819 95.086 M319.237 96.267 C 319.237 96.487,319.341 96.907,319.467 97.200 C 319.611 97.536,319.696 97.585,319.696 97.333 C 319.696 97.113,319.593 96.693,319.467 96.400 C 319.322 96.064,319.237 96.015,319.237 96.267 M82.000 98.133 C 81.899 98.594,81.872 99.027,81.939 99.095 C 82.007 99.163,82.140 98.835,82.233 98.367 C 82.456 97.255,82.240 97.040,82.000 98.133 M81.215 101.481 C 81.114 102.017,81.086 102.508,81.151 102.573 C 81.216 102.638,81.351 102.254,81.452 101.719 C 81.552 101.183,81.581 100.692,81.516 100.627 C 81.451 100.562,81.315 100.946,81.215 101.481 M320.858 102.800 C 320.861 103.093,320.955 103.693,321.067 104.133 C 321.250 104.852,321.271 104.865,321.275 104.267 C 321.278 103.900,321.184 103.300,321.067 102.933 C 320.899 102.411,320.854 102.382,320.858 102.800 M80.415 105.481 C 80.314 106.017,80.286 106.508,80.351 106.573 C 80.416 106.638,80.551 106.254,80.652 105.719 C 80.752 105.183,80.781 104.692,80.716 104.627 C 80.651 104.562,80.515 104.946,80.415 105.481 M181.733 109.867 C 182.456 110.600,183.107 111.200,183.180 111.200 C 183.253 111.200,182.722 110.600,182.000 109.867 C 181.278 109.133,180.627 108.533,180.553 108.533 C 180.480 108.533,181.011 109.133,181.733 109.867 M79.529 111.200 C 79.529 111.713,79.583 111.923,79.650 111.667 C 79.718 111.410,79.718 110.990,79.650 110.733 C 79.583 110.477,79.529 110.687,79.529 111.200 M322.450 112.267 C 322.444 112.633,322.536 113.473,322.653 114.133 C 322.813 115.033,322.871 115.133,322.885 114.533 C 322.894 114.093,322.803 113.253,322.682 112.667 C 322.544 111.999,322.457 111.849,322.450 112.267 M78.793 117.193 C 78.688 118.457,78.659 119.548,78.730 119.619 C 78.801 119.690,78.943 118.712,79.046 117.446 C 79.148 116.179,79.177 115.088,79.108 115.019 C 79.040 114.951,78.898 115.929,78.793 117.193 M322.995 116.800 C 322.995 117.313,323.050 117.523,323.117 117.267 C 323.184 117.010,323.184 116.590,323.117 116.333 C 323.050 116.077,322.995 116.287,322.995 116.800 M323.288 120.933 C 323.289 121.960,323.337 122.347,323.395 121.794 C 323.452 121.241,323.451 120.401,323.392 119.927 C 323.334 119.454,323.286 119.907,323.288 120.933 M78.480 122.400 C 78.480 123.207,78.530 123.537,78.591 123.133 C 78.652 122.730,78.652 122.070,78.591 121.667 C 78.530 121.263,78.480 121.593,78.480 122.400 M323.579 128.400 C 323.578 131.333,323.617 132.570,323.665 131.148 C 323.713 129.725,323.713 127.325,323.666 125.814 C 323.618 124.303,323.579 125.467,323.579 128.400 M78.480 134.133 C 78.480 134.940,78.530 135.270,78.591 134.867 C 78.652 134.463,78.652 133.803,78.591 133.400 C 78.530 132.997,78.480 133.327,78.480 134.133 M198.877 132.998 C 199.800 133.050,201.240 133.050,202.077 132.997 C 202.915 132.944,202.160 132.901,200.400 132.902 C 198.640 132.902,197.955 132.945,198.877 132.998 M194.070 133.255 C 194.401 133.319,194.881 133.317,195.136 133.250 C 195.391 133.183,195.120 133.131,194.533 133.134 C 193.947 133.137,193.738 133.191,194.070 133.255 M206.333 133.255 C 206.663 133.318,207.203 133.318,207.533 133.255 C 207.863 133.191,207.593 133.139,206.933 133.139 C 206.273 133.139,206.003 133.191,206.333 133.255 M191.936 133.522 C 192.268 133.586,192.748 133.583,193.003 133.517 C 193.258 133.450,192.987 133.398,192.400 133.401 C 191.813 133.404,191.605 133.458,191.936 133.522 M208.870 133.525 C 209.276 133.586,209.876 133.584,210.204 133.521 C 210.532 133.458,210.200 133.408,209.467 133.410 C 208.733 133.412,208.465 133.463,208.870 133.525 M323.288 135.600 C 323.289 136.627,323.337 137.014,323.395 136.461 C 323.452 135.907,323.451 135.067,323.392 134.594 C 323.334 134.121,323.286 134.573,323.288 135.600 M222.800 135.733 C 223.093 135.859,223.573 135.959,223.867 135.955 C 224.295 135.948,224.269 135.905,223.733 135.733 C 222.822 135.441,222.120 135.441,222.800 135.733 M175.600 136.533 C 175.264 136.678,175.215 136.763,175.467 136.763 C 175.687 136.763,176.107 136.659,176.400 136.533 C 176.736 136.389,176.785 136.304,176.533 136.304 C 176.313 136.304,175.893 136.407,175.600 136.533 M226.000 136.533 C 226.293 136.659,226.713 136.763,226.933 136.763 C 227.185 136.763,227.136 136.678,226.800 136.533 C 226.507 136.407,226.087 136.304,225.867 136.304 C 225.615 136.304,225.664 136.389,226.000 136.533 M78.747 138.133 C 78.747 138.940,78.797 139.270,78.858 138.867 C 78.919 138.463,78.919 137.803,78.858 137.400 C 78.797 136.997,78.747 137.327,78.747 138.133 M170.267 138.276 C 169.600 138.597,169.578 138.634,170.133 138.498 C 170.889 138.314,171.738 137.881,171.333 137.887 C 171.187 137.889,170.707 138.064,170.267 138.276 M168.133 139.076 C 167.467 139.397,167.444 139.434,168.000 139.298 C 168.756 139.114,169.605 138.681,169.200 138.687 C 169.053 138.689,168.573 138.864,168.133 139.076 M166.133 139.867 C 165.767 140.076,165.587 140.248,165.733 140.248 C 165.880 140.248,166.300 140.076,166.667 139.867 C 167.033 139.657,167.213 139.486,167.067 139.486 C 166.920 139.486,166.500 139.657,166.133 139.867 M79.006 140.800 C 79.006 141.460,79.058 141.730,79.122 141.400 C 79.185 141.070,79.185 140.530,79.122 140.200 C 79.058 139.870,79.006 140.140,79.006 140.800 M322.734 142.267 C 322.737 142.853,322.791 143.062,322.855 142.730 C 322.919 142.399,322.917 141.919,322.850 141.664 C 322.783 141.409,322.731 141.680,322.734 142.267 M322.462 144.267 C 322.462 144.780,322.517 144.990,322.584 144.733 C 322.651 144.477,322.651 144.057,322.584 143.800 C 322.517 143.543,322.462 143.753,322.462 144.267 M79.529 145.467 C 79.529 145.907,79.621 146.627,79.733 147.067 C 80.016 148.176,80.028 147.084,79.749 145.733 C 79.563 144.836,79.528 144.794,79.529 145.467 M249.600 147.550 C 249.600 147.596,249.990 147.986,250.467 148.417 L 251.333 149.200 250.550 148.333 C 249.820 147.525,249.600 147.344,249.600 147.550 M321.745 148.679 C 321.643 149.359,321.615 149.970,321.681 150.037 C 321.748 150.103,321.886 149.601,321.988 148.921 C 322.090 148.241,322.119 147.630,322.052 147.563 C 321.985 147.497,321.847 147.999,321.745 148.679 M150.254 150.200 L 149.200 151.333 150.333 150.279 C 151.387 149.299,151.589 149.067,151.387 149.067 C 151.344 149.067,150.834 149.577,150.254 150.200 M80.325 150.400 C 80.322 150.767,80.416 151.367,80.533 151.733 C 80.820 152.630,80.820 151.661,80.533 150.533 C 80.350 149.815,80.329 149.801,80.325 150.400 M253.589 151.533 C 254.243 152.230,254.813 152.800,254.856 152.800 C 255.056 152.800,254.844 152.561,253.667 151.456 L 252.400 150.267 253.589 151.533 M148.153 152.508 L 147.372 153.467 148.272 152.609 C 148.768 152.137,149.119 151.705,149.053 151.650 C 148.987 151.595,148.582 151.981,148.153 152.508 M255.200 153.242 C 255.200 153.388,255.530 153.798,255.933 154.154 L 256.667 154.800 256.000 154.000 C 255.633 153.560,255.303 153.150,255.267 153.089 C 255.230 153.028,255.200 153.097,255.200 153.242 M320.167 156.567 C 319.944 157.678,320.160 157.894,320.400 156.800 C 320.501 156.339,320.528 155.906,320.461 155.838 C 320.393 155.770,320.260 156.098,320.167 156.567 M81.912 157.733 C 81.908 158.027,82.007 158.507,82.133 158.800 C 82.425 159.480,82.425 158.778,82.133 157.867 C 81.962 157.331,81.918 157.305,81.912 157.733 M319.367 159.767 C 319.144 160.878,319.360 161.094,319.600 160.000 C 319.701 159.539,319.728 159.106,319.661 159.038 C 319.593 158.970,319.460 159.298,319.367 159.767 M259.850 169.733 C 259.850 173.693,259.887 175.351,259.933 173.416 C 259.978 171.481,259.978 168.241,259.933 166.216 C 259.887 164.191,259.850 165.773,259.850 169.733 M143.049 169.600 C 143.049 173.340,143.087 174.870,143.133 173.000 C 143.178 171.130,143.178 168.070,143.133 166.200 C 143.087 164.330,143.049 165.860,143.049 169.600 M88.819 178.000 C 88.819 178.147,88.990 178.567,89.200 178.933 C 89.410 179.300,89.581 179.480,89.581 179.333 C 89.581 179.187,89.410 178.767,89.200 178.400 C 88.990 178.033,88.819 177.853,88.819 178.000 M310.589 183.076 C 310.048 184.171,309.662 185.067,309.732 185.067 C 309.910 185.067,311.790 181.301,311.671 181.182 C 311.618 181.129,311.131 181.981,310.589 183.076 M90.419 181.467 C 90.419 181.613,90.590 182.033,90.800 182.400 C 91.010 182.767,91.181 182.947,91.181 182.800 C 91.181 182.653,91.010 182.233,90.800 181.867 C 90.590 181.500,90.419 181.320,90.419 181.467 M91.867 184.533 C 92.238 185.267,92.602 185.867,92.676 185.867 C 92.749 185.867,92.505 185.267,92.133 184.533 C 91.762 183.800,91.398 183.200,91.324 183.200 C 91.251 183.200,91.495 183.800,91.867 184.533 M147.600 186.133 C 148.173 186.720,148.702 187.200,148.775 187.200 C 148.848 187.200,148.440 186.720,147.867 186.133 C 147.294 185.547,146.765 185.067,146.692 185.067 C 146.618 185.067,147.027 185.547,147.600 186.133 M179.421 191.133 C 191.643 191.172,211.563 191.172,223.688 191.133 C 235.813 191.095,225.813 191.064,201.467 191.064 C 177.120 191.064,167.199 191.095,179.421 191.133 M102.928 202.125 C 103.238 202.561,103.628 203.001,103.794 203.104 C 103.961 203.207,103.761 202.851,103.350 202.312 C 102.459 201.144,102.123 200.995,102.928 202.125 M295.200 206.667 C 294.586 207.400,294.144 208.000,294.217 208.000 C 294.290 208.000,294.853 207.400,295.467 206.667 C 296.081 205.933,296.523 205.333,296.450 205.333 C 296.376 205.333,295.814 205.933,295.200 206.667 M292.921 209.400 L 291.867 210.533 293.000 209.479 C 294.054 208.499,294.256 208.267,294.054 208.267 C 294.011 208.267,293.501 208.777,292.921 209.400 M110.122 210.733 C 111.227 211.911,111.467 212.122,111.467 211.922 C 111.467 211.879,110.897 211.309,110.200 210.656 L 108.933 209.467 110.122 210.733 M287.402 215.116 C 285.094 217.414,283.239 219.328,283.282 219.371 C 283.324 219.413,285.272 217.532,287.610 215.190 C 289.948 212.849,291.802 210.934,291.730 210.936 C 291.659 210.937,289.711 212.818,287.402 215.116 M111.733 212.427 C 111.733 212.565,112.903 213.815,114.333 215.205 L 116.933 217.733 114.400 215.075 C 113.007 213.613,111.837 212.363,111.800 212.297 C 111.763 212.232,111.733 212.290,111.733 212.427 M118.389 219.000 C 119.494 220.177,119.733 220.389,119.733 220.189 C 119.733 220.146,119.163 219.576,118.467 218.922 L 117.200 217.733 118.389 219.000 M281.067 221.106 L 279.333 222.727 281.001 221.336 C 282.473 220.109,283.141 219.448,282.882 219.476 C 282.837 219.480,282.020 220.214,281.067 221.106 M120.000 220.350 C 120.000 220.396,120.390 220.786,120.867 221.217 L 121.733 222.000 120.950 221.133 C 120.220 220.325,120.000 220.144,120.000 220.350 M278.318 223.342 C 277.907 223.704,277.676 224.000,277.805 224.000 C 277.935 224.000,278.322 223.700,278.667 223.333 C 279.464 222.485,279.287 222.489,278.318 223.342 M125.067 224.650 C 125.067 224.719,126.057 225.521,127.267 226.431 C 128.477 227.342,129.617 228.202,129.800 228.343 C 129.983 228.483,130.133 228.539,130.133 228.465 C 130.133 228.392,128.993 227.475,127.600 226.427 C 126.207 225.380,125.067 224.580,125.067 224.650 M265.400 232.564 C 264.491 233.146,264.197 233.537,265.000 233.096 C 265.612 232.759,266.570 232.018,266.400 232.013 C 266.327 232.011,265.877 232.259,265.400 232.564 M262.067 234.553 C 261.070 235.093,261.130 235.319,262.133 234.800 C 262.573 234.572,262.933 234.329,262.933 234.260 C 262.933 234.088,262.905 234.098,262.067 234.553 M151.467 240.667 C 151.833 240.876,152.253 241.048,152.400 241.048 C 152.547 241.048,152.367 240.876,152.000 240.667 C 151.633 240.457,151.213 240.286,151.067 240.286 C 150.920 240.286,151.100 240.457,151.467 240.667 M248.333 241.342 C 247.440 241.701,247.607 241.883,248.533 241.560 C 248.973 241.407,249.333 241.233,249.333 241.174 C 249.333 241.016,249.009 241.070,248.333 241.342 M154.667 241.956 C 154.667 242.025,155.054 242.216,155.527 242.381 C 156.001 242.546,156.271 242.571,156.127 242.437 C 155.824 242.153,154.667 241.772,154.667 241.956 M244.133 243.076 C 243.467 243.397,243.444 243.434,244.000 243.298 C 244.756 243.114,245.605 242.681,245.200 242.687 C 245.053 242.689,244.573 242.864,244.133 243.076 M242.000 243.876 C 241.333 244.197,241.311 244.234,241.867 244.098 C 242.622 243.914,243.472 243.481,243.067 243.487 C 242.920 243.489,242.440 243.664,242.000 243.876 M161.333 244.488 C 161.553 244.624,162.033 244.816,162.400 244.914 C 162.863 245.038,162.945 245.017,162.667 244.845 C 162.447 244.709,161.967 244.518,161.600 244.420 C 161.137 244.296,161.055 244.317,161.333 244.488 M170.267 247.200 C 170.560 247.326,170.980 247.429,171.200 247.429 C 171.452 247.429,171.403 247.344,171.067 247.200 C 170.773 247.074,170.353 246.971,170.133 246.971 C 169.881 246.971,169.930 247.056,170.267 247.200 M230.933 247.212 C 230.641 247.410,230.749 247.435,231.333 247.304 C 232.314 247.085,232.527 246.932,231.844 246.937 C 231.563 246.940,231.153 247.063,230.933 247.212 M173.600 248.000 C 174.512 248.292,175.213 248.292,174.533 248.000 C 174.240 247.874,173.760 247.774,173.467 247.779 C 173.038 247.785,173.064 247.828,173.600 248.000 M227.600 248.000 C 226.920 248.292,227.622 248.292,228.533 248.000 C 229.069 247.828,229.095 247.785,228.667 247.779 C 228.373 247.774,227.893 247.874,227.600 248.000 M223.600 248.812 C 223.228 248.981,223.390 249.005,224.133 248.892 C 224.720 248.802,225.250 248.685,225.311 248.631 C 225.540 248.429,224.112 248.581,223.600 248.812 M181.089 249.432 C 181.150 249.487,181.800 249.601,182.533 249.686 C 183.433 249.790,183.650 249.766,183.200 249.613 C 182.534 249.387,180.879 249.245,181.089 249.432 M219.800 249.517 C 220.057 249.584,220.477 249.584,220.733 249.517 C 220.990 249.450,220.780 249.395,220.267 249.395 C 219.753 249.395,219.543 249.450,219.800 249.517 M216.067 250.050 C 216.323 250.118,216.743 250.118,217.000 250.050 C 217.257 249.983,217.047 249.929,216.533 249.929 C 216.020 249.929,215.810 249.983,216.067 250.050 M186.956 250.232 C 187.017 250.286,187.967 250.397,189.067 250.479 C 190.549 250.589,190.791 250.568,190.000 250.396 C 188.933 250.164,186.746 250.046,186.956 250.232 M213.533 250.322 C 213.863 250.385,214.403 250.385,214.733 250.322 C 215.063 250.258,214.793 250.206,214.133 250.206 C 213.473 250.206,213.203 250.258,213.533 250.322 M211.533 250.584 C 211.790 250.651,212.210 250.651,212.467 250.584 C 212.723 250.517,212.513 250.462,212.000 250.462 C 211.487 250.462,211.277 250.517,211.533 250.584 M193.805 250.860 C 194.284 250.919,195.004 250.918,195.405 250.857 C 195.805 250.796,195.413 250.748,194.533 250.749 C 193.653 250.751,193.325 250.801,193.805 250.860 M206.733 250.858 C 207.137 250.919,207.797 250.919,208.200 250.858 C 208.603 250.797,208.273 250.747,207.467 250.747 C 206.660 250.747,206.330 250.797,206.733 250.858 M199.808 251.130 C 200.509 251.185,201.589 251.184,202.208 251.128 C 202.827 251.072,202.253 251.027,200.933 251.028 C 199.613 251.029,199.107 251.075,199.808 251.130 " stroke="none" fill="#7cb4f4" fill-rule="evenodd"></path></g></svg>