<svg id="svg" version="1.1" xmlns="http://www.w3.org/2000/svg" xmlns:xlink="http://www.w3.org/1999/xlink" width="400" height="400" viewBox="0, 0, 400,400"><g id="svgg"><path id="path0" d="M301.229 8.281 L 301.160 12.000 303.404 12.000 C 304.638 12.000,305.558 12.144,305.449 12.320 C 305.341 12.496,305.849 12.680,306.580 12.729 C 307.949 12.822,308.846 11.445,308.150 10.320 C 307.985 10.052,308.059 9.989,308.338 10.162 C 308.669 10.366,308.800 9.705,308.800 7.824 L 308.800 5.200 305.976 5.200 C 304.156 5.200,303.243 5.055,303.405 4.791 C 303.559 4.542,303.198 4.418,302.478 4.473 L 301.299 4.563 301.229 8.281 M313.600 8.600 C 313.600 9.150,313.420 9.600,313.200 9.600 C 312.980 9.600,312.800 9.945,312.800 10.367 C 312.800 10.788,312.637 11.193,312.437 11.267 C 311.425 11.638,311.807 14.055,312.985 14.726 C 313.634 15.097,314.523 15.715,314.958 16.100 C 316.341 17.321,319.200 16.501,319.200 14.884 C 319.200 14.715,319.560 14.317,320.000 14.000 C 320.440 13.683,320.800 13.139,320.800 12.792 C 320.800 12.444,321.015 11.945,321.278 11.682 C 321.648 11.312,321.568 11.030,320.920 10.426 C 320.461 9.998,320.005 9.728,319.907 9.827 C 319.809 9.925,319.402 9.644,319.002 9.202 C 318.603 8.761,317.843 8.400,317.314 8.400 C 316.775 8.400,316.461 8.224,316.600 8.000 C 316.749 7.758,316.204 7.600,315.224 7.600 C 313.758 7.600,313.600 7.698,313.600 8.600 M324.100 15.500 C 324.155 15.665,324.034 15.890,323.831 16.000 C 322.757 16.583,320.800 18.890,320.800 19.574 C 320.800 20.676,321.647 22.418,322.058 22.164 C 322.246 22.048,322.400 22.233,322.400 22.576 C 322.400 22.919,322.580 23.200,322.800 23.200 C 323.020 23.200,323.200 23.470,323.200 23.800 C 323.200 24.130,323.380 24.422,323.600 24.450 C 323.820 24.478,324.225 24.531,324.500 24.568 C 325.095 24.649,327.976 23.250,328.732 22.512 C 329.025 22.226,329.430 22.095,329.632 22.220 C 330.430 22.713,330.009 19.383,329.200 18.800 C 328.760 18.483,328.400 17.985,328.400 17.694 C 328.400 16.701,326.485 15.200,325.218 15.200 C 324.548 15.200,324.045 15.335,324.100 15.500 M73.200 21.200 C 73.200 21.420,72.678 21.600,72.041 21.600 C 70.751 21.600,67.144 23.366,65.421 24.842 C 63.080 26.846,62.000 27.933,62.000 28.285 C 62.000 28.485,61.685 28.998,61.300 29.425 C 60.308 30.524,59.346 32.672,58.893 34.800 C 58.776 35.350,58.605 39.985,58.513 45.100 L 58.347 54.400 50.397 54.400 C 45.529 54.400,42.351 54.555,42.200 54.800 C 42.064 55.020,41.243 55.200,40.376 55.200 C 39.509 55.200,38.800 55.380,38.800 55.600 C 38.800 55.820,38.260 56.000,37.600 56.000 C 36.940 56.000,36.400 56.180,36.400 56.400 C 36.400 56.620,36.040 56.800,35.600 56.800 C 35.160 56.800,34.800 56.980,34.800 57.200 C 34.800 57.420,34.440 57.600,34.000 57.600 C 33.560 57.600,33.200 57.780,33.200 58.000 C 33.200 58.220,32.926 58.400,32.592 58.400 C 31.912 58.400,28.674 60.331,28.467 60.860 C 28.393 61.047,28.142 61.200,27.909 61.200 C 27.341 61.200,22.400 66.363,22.400 66.956 C 22.400 67.213,22.040 67.683,21.600 68.000 C 21.160 68.317,20.800 68.897,20.800 69.288 C 20.800 69.680,20.647 70.000,20.460 70.000 C 20.273 70.000,19.534 71.215,18.818 72.700 C 18.102 74.185,17.355 75.713,17.158 76.095 C 16.961 76.477,16.800 77.141,16.800 77.571 C 16.800 78.001,16.620 78.464,16.400 78.600 C 16.180 78.736,16.000 79.636,16.000 80.600 C 16.000 81.564,15.820 82.464,15.600 82.600 C 15.045 82.943,15.045 346.657,15.600 347.000 C 15.820 347.136,16.000 347.856,16.000 348.600 C 16.000 349.344,16.180 350.064,16.400 350.200 C 16.620 350.336,16.800 350.876,16.800 351.400 C 16.800 351.924,16.980 352.464,17.200 352.600 C 17.420 352.736,17.604 353.242,17.609 353.724 C 17.614 354.206,17.970 355.050,18.400 355.600 C 18.830 356.150,19.186 356.836,19.191 357.124 C 19.196 357.412,19.380 357.536,19.600 357.400 C 19.820 357.264,20.000 357.484,20.000 357.888 C 20.000 358.293,20.360 358.883,20.800 359.200 C 21.240 359.517,21.600 359.962,21.600 360.189 C 21.600 360.761,25.814 365.200,26.357 365.200 C 26.601 365.200,26.800 365.380,26.800 365.600 C 26.800 365.820,27.081 366.000,27.424 366.000 C 27.767 366.000,27.936 366.180,27.800 366.400 C 27.664 366.620,27.908 366.800,28.343 366.800 C 28.778 366.800,29.193 366.941,29.267 367.113 C 29.490 367.639,32.400 369.200,33.156 369.200 C 33.547 369.200,33.990 369.323,34.141 369.474 C 34.625 369.958,37.365 370.788,38.500 370.794 C 39.105 370.797,39.600 370.980,39.600 371.200 C 39.600 371.466,78.271 371.600,154.814 371.600 L 270.029 371.600 269.914 367.700 L 269.800 363.800 155.019 363.699 C 79.299 363.633,40.103 363.463,39.839 363.199 C 39.620 362.980,38.936 362.800,38.320 362.800 C 37.704 362.800,37.200 362.620,37.200 362.400 C 37.200 362.180,36.840 362.000,36.400 362.000 C 35.960 362.000,35.600 361.809,35.600 361.576 C 35.600 361.343,35.435 361.255,35.232 361.380 C 35.030 361.505,34.625 361.381,34.332 361.104 C 34.040 360.827,33.308 360.346,32.706 360.036 C 31.204 359.261,26.800 355.004,26.800 354.327 C 26.800 354.024,26.440 353.517,26.000 353.200 C 25.560 352.883,25.200 352.303,25.200 351.912 C 25.200 351.520,25.009 351.200,24.776 351.200 C 24.543 351.200,24.462 351.024,24.595 350.808 C 24.728 350.593,24.657 350.081,24.438 349.670 C 24.218 349.260,23.896 348.401,23.723 347.762 C 23.550 347.123,23.361 298.405,23.303 239.500 L 23.197 132.400 188.799 132.400 L 354.400 132.400 354.400 188.600 L 354.400 244.800 358.202 244.800 L 362.004 244.800 361.861 163.500 C 361.725 86.597,361.628 79.112,360.758 78.574 C 360.561 78.452,360.400 77.823,360.400 77.176 C 360.400 76.529,360.220 76.000,360.000 76.000 C 359.780 76.000,359.600 75.550,359.600 75.000 C 359.600 74.450,359.420 74.000,359.200 74.000 C 358.980 74.000,358.800 73.788,358.800 73.528 C 358.800 72.746,357.084 69.200,356.705 69.200 C 356.511 69.200,356.464 69.020,356.600 68.800 C 356.736 68.580,356.695 68.400,356.510 68.400 C 356.324 68.400,355.877 67.905,355.516 67.300 C 354.829 66.148,350.000 60.997,350.000 61.416 C 350.000 61.548,349.736 61.419,349.414 61.129 C 348.183 60.018,347.687 59.665,346.482 59.043 C 345.799 58.689,344.961 58.400,344.620 58.400 C 344.279 58.400,344.000 58.220,344.000 58.000 C 344.000 57.780,343.640 57.600,343.200 57.600 C 342.760 57.600,342.400 57.420,342.400 57.200 C 342.400 56.980,342.040 56.800,341.600 56.800 C 341.160 56.800,340.800 56.620,340.800 56.400 C 340.800 56.180,340.249 56.000,339.576 56.000 C 338.863 56.000,338.456 55.833,338.600 55.600 C 338.749 55.358,338.204 55.200,337.224 55.200 C 336.331 55.200,335.600 55.020,335.600 54.800 C 335.600 54.546,332.600 54.400,327.400 54.400 L 319.200 54.400 319.200 45.224 C 319.200 39.537,319.048 35.953,318.800 35.800 C 318.580 35.664,318.400 35.023,318.400 34.376 C 318.400 33.729,318.220 33.200,318.000 33.200 C 317.780 33.200,317.600 32.750,317.600 32.200 C 317.600 31.650,317.420 31.200,317.200 31.200 C 316.980 31.200,316.800 30.867,316.800 30.459 C 316.800 30.052,316.260 29.154,315.600 28.463 C 314.940 27.772,314.400 27.092,314.400 26.951 C 314.400 26.626,312.771 25.200,312.401 25.200 C 312.249 25.200,311.601 24.750,310.962 24.200 C 310.323 23.651,309.575 23.201,309.300 23.200 C 309.025 23.200,308.800 23.020,308.800 22.800 C 308.800 22.580,308.440 22.400,308.000 22.400 C 307.560 22.400,307.200 22.220,307.200 22.000 C 307.200 21.780,306.570 21.600,305.800 21.600 C 305.030 21.600,304.400 21.420,304.400 21.200 C 304.400 20.958,302.667 20.800,300.000 20.800 C 297.333 20.800,295.600 20.958,295.600 21.200 C 295.600 21.420,294.970 21.600,294.200 21.600 C 293.430 21.600,292.800 21.780,292.800 22.000 C 292.800 22.220,292.440 22.400,292.000 22.400 C 291.560 22.400,291.200 22.580,291.200 22.800 C 291.200 23.020,290.880 23.200,290.488 23.200 C 290.097 23.200,289.517 23.560,289.200 24.000 C 288.883 24.440,288.411 24.800,288.152 24.800 C 287.534 24.800,285.154 27.192,284.435 28.534 C 284.126 29.113,283.541 29.942,283.136 30.377 C 282.731 30.811,282.400 31.433,282.400 31.760 C 282.400 32.086,282.220 32.464,282.000 32.600 C 281.780 32.736,281.600 33.467,281.600 34.224 C 281.600 34.981,281.420 35.600,281.200 35.600 C 280.945 35.600,280.800 39.000,280.800 45.000 L 280.800 54.400 244.447 54.400 L 208.094 54.400 207.867 45.300 C 207.636 36.010,207.570 35.100,207.041 33.931 C 206.875 33.563,206.689 33.023,206.630 32.731 C 206.406 31.640,205.835 30.558,204.734 29.142 C 204.110 28.341,203.600 27.563,203.600 27.414 C 203.600 27.265,203.330 26.873,203.000 26.543 C 202.670 26.213,202.400 26.028,202.400 26.132 C 202.400 26.236,201.841 25.799,201.158 25.160 C 200.474 24.522,199.747 24.000,199.541 24.000 C 199.335 24.000,198.780 23.640,198.308 23.200 C 197.836 22.760,197.033 22.400,196.525 22.400 C 196.016 22.400,195.600 22.220,195.600 22.000 C 195.600 21.780,195.071 21.600,194.424 21.600 C 193.777 21.600,193.131 21.412,192.989 21.182 C 192.672 20.669,184.000 20.732,184.000 21.246 C 184.000 21.441,183.460 21.600,182.800 21.600 C 182.140 21.600,181.600 21.780,181.600 22.000 C 181.600 22.220,181.240 22.400,180.800 22.400 C 180.360 22.400,180.000 22.580,180.000 22.800 C 180.000 23.020,179.640 23.200,179.200 23.200 C 178.760 23.200,178.400 23.358,178.400 23.551 C 178.400 23.745,177.862 24.126,177.205 24.398 C 176.548 24.670,176.109 25.052,176.229 25.246 C 176.349 25.441,176.276 25.600,176.066 25.600 C 175.460 25.600,173.200 27.865,173.200 28.472 C 173.200 28.775,172.840 29.283,172.400 29.600 C 171.960 29.917,171.600 30.497,171.600 30.888 C 171.600 31.280,171.420 31.600,171.200 31.600 C 170.980 31.600,170.821 31.735,170.847 31.900 C 171.017 32.972,170.737 34.408,170.400 34.200 C 170.137 34.038,170.000 37.463,170.000 44.176 L 170.000 54.400 133.200 54.400 L 96.400 54.400 96.400 44.600 C 96.400 38.333,96.256 34.800,96.000 34.800 C 95.780 34.800,95.600 34.361,95.600 33.824 C 95.600 33.287,95.420 32.736,95.200 32.600 C 94.980 32.464,94.800 32.003,94.800 31.576 C 94.800 31.149,94.664 30.800,94.498 30.800 C 94.331 30.800,93.964 30.276,93.680 29.637 C 93.029 28.166,90.088 24.800,89.454 24.800 C 89.192 24.800,88.717 24.440,88.400 24.000 C 88.083 23.560,87.503 23.200,87.112 23.200 C 86.720 23.200,86.400 23.020,86.400 22.800 C 86.400 22.580,86.040 22.400,85.600 22.400 C 85.160 22.400,84.800 22.220,84.800 22.000 C 84.800 21.780,84.271 21.600,83.624 21.600 C 82.977 21.600,82.336 21.420,82.200 21.200 C 82.060 20.973,80.063 20.800,77.576 20.800 C 74.925 20.800,73.200 20.958,73.200 21.200 M330.938 26.500 C 330.836 26.665,330.328 26.800,329.810 26.800 C 329.291 26.800,328.807 26.978,328.733 27.197 C 328.660 27.415,328.105 27.634,327.499 27.684 C 325.869 27.818,325.755 28.509,326.723 32.400 C 326.914 33.170,327.055 33.980,327.035 34.200 C 327.016 34.420,328.214 34.653,329.700 34.718 C 331.387 34.792,332.400 34.680,332.400 34.418 C 332.400 34.188,332.959 34.000,333.642 34.000 C 334.865 34.000,334.880 33.975,334.642 32.400 C 334.509 31.520,334.291 30.080,334.158 29.200 C 334.025 28.320,333.755 27.600,333.558 27.600 C 333.361 27.600,333.200 27.285,333.200 26.900 C 333.200 26.189,331.335 25.859,330.938 26.500 M81.315 27.740 C 84.517 28.855,89.161 33.299,89.190 35.276 C 89.196 35.648,89.380 36.064,89.600 36.200 C 89.858 36.360,90.000 43.813,90.000 57.249 L 90.000 78.050 88.754 80.633 C 84.132 90.218,70.609 90.079,66.039 80.400 L 65.000 78.200 64.883 58.400 C 64.795 43.625,64.891 38.147,65.259 36.815 C 66.321 32.968,68.746 29.958,71.884 28.593 C 72.718 28.230,73.670 27.779,74.000 27.590 C 74.932 27.057,79.630 27.153,81.315 27.740 M192.405 27.706 C 196.219 29.047,199.269 32.041,200.653 35.800 C 201.564 38.276,202.011 72.105,201.194 76.799 C 199.002 89.400,182.901 91.844,177.294 80.427 L 176.200 78.200 176.200 57.400 L 176.200 36.600 177.190 34.600 C 178.323 32.311,181.077 29.461,182.934 28.657 C 183.630 28.355,184.650 27.916,185.200 27.681 C 186.576 27.093,190.703 27.107,192.405 27.706 M303.600 27.721 C 308.147 29.373,311.046 32.445,312.220 36.857 C 312.943 39.571,313.068 74.489,312.366 77.523 C 309.252 90.985,291.302 91.186,287.596 77.800 C 287.291 76.701,287.191 70.069,287.276 56.600 L 287.400 37.000 288.439 34.800 C 289.645 32.246,292.153 29.522,294.065 28.690 C 294.799 28.370,295.850 27.916,296.400 27.681 C 297.791 27.087,301.918 27.110,303.600 27.721 M327.631 42.600 L 327.560 46.400 331.180 46.400 L 334.800 46.400 334.800 42.600 L 334.800 38.800 331.251 38.800 L 327.702 38.800 327.631 42.600 M58.486 70.900 C 58.627 79.011,58.765 80.797,59.325 81.800 C 59.694 82.460,59.996 83.203,59.998 83.451 C 59.999 83.699,60.268 84.124,60.596 84.396 C 60.923 84.668,61.111 85.021,61.013 85.180 C 60.822 85.488,61.900 86.993,63.700 88.933 C 64.305 89.585,64.806 89.957,64.813 89.759 C 64.821 89.562,65.158 89.797,65.564 90.283 C 65.969 90.769,66.413 91.054,66.550 90.916 C 66.688 90.779,66.800 90.877,66.800 91.133 C 66.800 91.390,67.160 91.600,67.600 91.600 C 68.040 91.600,68.400 91.780,68.400 92.000 C 68.400 92.220,68.760 92.400,69.200 92.400 C 69.640 92.400,70.000 92.580,70.000 92.800 C 70.000 93.020,70.540 93.200,71.200 93.200 C 71.860 93.200,72.400 93.380,72.400 93.600 C 72.400 94.081,82.655 94.158,82.951 93.679 C 83.060 93.503,84.053 93.112,85.157 92.812 C 86.261 92.511,87.083 92.135,86.985 91.975 C 86.886 91.816,87.243 91.576,87.777 91.441 C 88.854 91.171,93.200 87.152,93.200 86.426 C 93.200 86.173,93.560 85.580,94.000 85.108 C 94.440 84.636,94.800 83.833,94.800 83.325 C 94.800 82.816,94.980 82.400,95.200 82.400 C 95.420 82.400,95.600 81.860,95.600 81.200 C 95.600 80.540,95.780 80.000,96.000 80.000 C 96.255 80.000,96.400 76.600,96.400 70.600 L 96.400 61.200 133.200 61.200 L 170.000 61.200 170.000 70.776 C 170.000 76.729,170.151 80.446,170.400 80.600 C 170.620 80.736,170.800 81.186,170.800 81.599 C 170.800 84.707,177.840 92.400,180.685 92.400 C 180.994 92.400,181.136 92.580,181.000 92.800 C 180.856 93.033,181.263 93.200,181.976 93.200 C 182.649 93.200,183.200 93.380,183.200 93.600 C 183.200 93.847,185.267 94.000,188.600 94.000 C 191.933 94.000,194.000 93.847,194.000 93.600 C 194.000 93.380,194.540 93.200,195.200 93.200 C 195.860 93.200,196.400 93.020,196.400 92.800 C 196.400 92.580,196.760 92.400,197.200 92.400 C 197.640 92.400,198.000 92.220,198.000 92.000 C 198.000 91.780,198.344 91.600,198.764 91.600 C 199.673 91.600,205.200 86.283,205.200 85.408 C 205.200 85.074,205.380 84.800,205.600 84.800 C 205.820 84.800,206.000 84.440,206.000 84.000 C 206.000 83.560,206.157 83.200,206.350 83.200 C 206.543 83.200,206.835 82.615,207.001 81.900 C 207.167 81.185,207.385 80.330,207.486 80.000 C 207.588 79.670,207.766 75.305,207.882 70.300 L 208.094 61.200 244.447 61.200 L 280.800 61.200 280.800 70.376 C 280.800 76.063,280.952 79.647,281.200 79.800 C 281.420 79.936,281.600 80.476,281.600 81.000 C 281.600 81.524,281.780 82.064,282.000 82.200 C 282.220 82.336,282.400 82.797,282.400 83.224 C 282.400 83.651,282.580 84.000,282.800 84.000 C 283.020 84.000,283.200 84.360,283.200 84.800 C 283.200 85.240,283.380 85.600,283.600 85.600 C 283.820 85.600,284.000 85.832,284.000 86.115 C 284.000 86.665,287.596 90.659,287.606 90.120 C 287.609 89.944,287.744 89.980,287.906 90.200 C 288.338 90.788,289.897 91.600,290.595 91.600 C 290.928 91.600,291.200 91.780,291.200 92.000 C 291.200 92.220,291.470 92.400,291.800 92.400 C 292.130 92.400,292.400 92.580,292.400 92.800 C 292.400 93.020,292.940 93.200,293.600 93.200 C 294.260 93.200,294.800 93.380,294.800 93.600 C 294.800 94.136,304.669 94.136,305.000 93.600 C 305.136 93.380,305.787 93.200,306.447 93.200 C 307.145 93.200,307.544 93.033,307.400 92.800 C 307.264 92.580,307.523 92.400,307.976 92.400 C 308.429 92.400,308.800 92.220,308.800 92.000 C 308.800 91.780,309.147 91.600,309.571 91.600 C 309.996 91.600,310.613 91.330,310.943 91.000 C 311.273 90.670,311.727 90.400,311.952 90.400 C 312.176 90.400,312.544 90.085,312.768 89.700 C 312.992 89.315,313.181 89.163,313.188 89.361 C 313.203 89.799,314.800 88.012,314.800 87.557 C 314.800 87.381,315.250 86.786,315.800 86.236 C 316.350 85.686,316.800 84.958,316.800 84.618 C 316.800 84.278,316.980 84.000,317.200 84.000 C 317.420 84.000,317.600 83.651,317.600 83.224 C 317.600 82.797,317.780 82.336,318.000 82.200 C 318.220 82.064,318.400 81.333,318.400 80.576 C 318.400 79.819,318.580 79.200,318.800 79.200 C 319.055 79.200,319.200 75.933,319.200 70.200 L 319.200 61.200 325.000 61.200 C 328.600 61.200,330.800 61.352,330.800 61.600 C 330.800 61.820,331.689 62.000,332.776 62.000 C 333.863 62.000,334.864 62.180,335.000 62.400 C 335.136 62.620,335.576 62.800,335.978 62.800 C 336.380 62.800,337.211 63.061,337.826 63.380 C 338.440 63.698,339.118 63.850,339.333 63.718 C 339.550 63.584,339.596 63.682,339.438 63.938 C 339.261 64.224,339.437 64.400,339.901 64.400 C 340.312 64.400,341.036 64.760,341.508 65.200 C 341.980 65.640,342.554 66.000,342.783 66.000 C 343.012 66.000,343.200 66.180,343.200 66.400 C 343.200 66.620,343.500 66.800,343.867 66.800 C 344.233 66.800,344.419 66.914,344.279 67.054 C 344.140 67.194,344.635 67.792,345.380 68.384 C 346.125 68.976,347.240 70.077,347.859 70.830 C 348.478 71.584,349.303 72.491,349.692 72.847 C 350.081 73.203,350.400 73.698,350.400 73.947 C 350.400 74.196,350.580 74.400,350.800 74.400 C 351.020 74.400,351.200 74.760,351.200 75.200 C 351.200 75.640,351.335 76.001,351.500 76.003 C 351.859 76.007,352.800 77.944,352.800 78.680 C 352.800 78.966,352.980 79.200,353.200 79.200 C 353.420 79.200,353.600 79.931,353.600 80.824 C 353.600 81.804,353.758 82.349,354.000 82.200 C 354.265 82.036,354.400 89.196,354.400 103.376 L 354.400 124.800 188.800 124.800 L 23.200 124.800 23.200 103.667 C 23.200 92.043,23.327 82.407,23.482 82.252 C 23.637 82.097,23.827 81.495,23.905 80.916 C 23.982 80.336,24.224 79.529,24.441 79.123 C 24.659 78.716,24.728 78.207,24.595 77.992 C 24.462 77.776,24.543 77.600,24.776 77.600 C 25.009 77.600,25.200 77.240,25.200 76.800 C 25.200 76.360,25.346 76.000,25.525 76.000 C 25.704 76.000,26.095 75.378,26.393 74.618 C 26.691 73.858,27.085 73.329,27.268 73.442 C 27.450 73.555,27.600 73.368,27.600 73.027 C 27.600 72.686,27.960 72.182,28.400 71.907 C 28.840 71.632,29.200 71.170,29.200 70.880 C 29.200 70.590,29.335 70.435,29.500 70.534 C 29.792 70.711,30.825 69.822,30.808 69.408 C 30.804 69.294,30.897 69.207,31.016 69.216 C 31.135 69.224,31.931 68.504,32.785 67.616 C 33.639 66.727,34.606 66.000,34.935 66.000 C 35.264 66.000,35.593 65.859,35.667 65.686 C 35.883 65.178,40.800 62.800,41.634 62.800 C 42.056 62.800,42.400 62.620,42.400 62.400 C 42.400 62.180,43.289 62.000,44.376 62.000 C 45.463 62.000,46.464 61.820,46.600 61.600 C 46.746 61.363,49.190 61.200,52.583 61.200 L 58.318 61.200 58.486 70.900 M2.700 243.493 L -0.000 243.637 -0.000 247.418 L 0.000 251.200 3.429 251.200 L 6.858 251.200 6.729 247.305 C 6.626 244.183,6.481 243.404,6.000 243.380 C 5.670 243.363,4.185 243.414,2.700 243.493 M321.985 244.418 C 321.663 244.621,320.196 244.791,318.724 244.794 C 317.252 244.797,315.936 244.980,315.800 245.200 C 315.664 245.420,314.764 245.600,313.800 245.600 C 312.836 245.600,311.936 245.780,311.800 246.000 C 311.664 246.220,311.059 246.400,310.456 246.400 C 309.853 246.400,309.189 246.565,308.980 246.766 C 308.771 246.967,308.060 247.191,307.400 247.264 C 306.740 247.337,306.100 247.532,305.978 247.697 C 305.855 247.861,305.283 248.035,304.706 248.083 C 304.130 248.131,303.745 248.312,303.852 248.485 C 303.960 248.658,303.587 248.800,303.024 248.800 C 302.461 248.800,302.000 248.980,302.000 249.200 C 302.000 249.420,301.475 249.600,300.833 249.600 C 300.192 249.600,299.607 249.735,299.533 249.900 C 299.341 250.332,296.028 252.000,295.362 252.000 C 295.053 252.000,294.800 252.180,294.800 252.400 C 294.800 252.620,294.440 252.800,294.000 252.800 C 293.560 252.800,293.200 252.980,293.200 253.200 C 293.200 253.420,292.930 253.600,292.600 253.600 C 292.270 253.600,292.000 253.780,292.000 254.000 C 292.000 254.220,291.764 254.400,291.475 254.400 C 291.187 254.400,290.564 254.760,290.092 255.200 C 289.620 255.640,289.044 256.000,288.813 256.000 C 288.582 256.000,287.828 256.540,287.137 257.200 C 286.446 257.860,285.683 258.403,285.441 258.406 C 285.049 258.412,283.561 259.533,281.500 261.374 C 281.115 261.718,280.700 262.000,280.578 262.000 C 280.073 262.000,272.400 270.321,272.400 270.868 C 272.400 271.055,271.860 271.772,271.200 272.463 C 270.540 273.154,270.000 273.922,270.000 274.171 C 270.000 274.420,269.640 274.883,269.200 275.200 C 268.760 275.517,268.400 275.967,268.400 276.200 C 268.400 276.433,268.040 276.883,267.600 277.200 C 267.160 277.517,266.800 278.024,266.800 278.327 C 266.800 278.629,266.479 279.354,266.086 279.938 C 265.693 280.522,265.122 281.495,264.818 282.100 C 264.514 282.705,264.105 283.200,263.909 283.200 C 263.713 283.200,263.655 283.365,263.780 283.568 C 263.905 283.770,263.723 284.220,263.375 284.568 C 263.027 284.915,262.866 285.200,263.017 285.200 C 263.168 285.200,263.001 285.644,262.646 286.186 C 262.291 286.728,262.000 287.412,262.000 287.706 C 262.000 288.453,261.063 290.393,260.700 290.397 C 260.535 290.399,260.400 290.940,260.400 291.600 C 260.400 292.260,260.240 292.800,260.045 292.800 C 259.850 292.800,259.578 293.385,259.439 294.100 C 259.301 294.815,259.084 295.850,258.957 296.400 C 258.829 296.950,258.634 298.120,258.522 299.000 C 258.410 299.880,258.156 300.771,257.959 300.980 C 257.762 301.189,257.600 302.213,257.600 303.256 C 257.600 304.299,257.420 305.264,257.200 305.400 C 256.974 305.540,256.800 307.511,256.800 309.944 C 256.800 312.827,256.636 314.417,256.300 314.779 C 255.893 315.217,255.912 315.255,256.400 314.982 C 256.903 314.701,256.917 314.749,256.490 315.276 C 255.954 315.938,255.952 318.323,256.487 318.654 C 256.659 318.760,256.800 320.817,256.800 323.224 C 256.800 325.875,256.958 327.600,257.200 327.600 C 257.423 327.600,257.600 328.675,257.600 330.024 C 257.600 331.365,257.761 332.347,257.961 332.224 C 258.267 332.035,258.685 334.319,258.816 336.892 C 258.835 337.273,259.019 337.688,259.225 337.816 C 259.431 337.943,259.600 338.451,259.600 338.944 C 259.600 339.437,259.765 340.011,259.967 340.220 C 260.168 340.429,260.393 340.960,260.467 341.400 C 260.540 341.840,260.690 342.290,260.800 342.400 C 261.092 342.692,262.069 345.315,262.104 345.900 C 262.120 346.175,262.283 346.400,262.467 346.400 C 262.650 346.400,262.800 346.760,262.800 347.200 C 262.800 347.640,262.935 348.001,263.100 348.003 C 263.459 348.007,264.400 349.944,264.400 350.680 C 264.400 350.966,264.580 351.200,264.800 351.200 C 265.020 351.200,265.200 351.571,265.200 352.024 C 265.200 352.477,265.380 352.736,265.600 352.600 C 265.820 352.464,266.000 352.723,266.000 353.176 C 266.000 353.629,266.180 354.000,266.400 354.000 C 266.620 354.000,266.800 354.255,266.800 354.567 C 266.800 354.878,266.935 355.193,267.100 355.267 C 267.468 355.430,269.200 357.869,269.200 358.223 C 269.200 358.364,269.740 358.983,270.400 359.600 C 271.060 360.217,271.600 360.912,271.600 361.145 C 271.600 361.577,273.352 363.513,278.900 369.211 C 280.605 370.962,282.006 372.261,282.013 372.097 C 282.020 371.934,282.265 372.115,282.557 372.500 C 283.147 373.278,285.854 375.200,286.358 375.200 C 286.536 375.200,287.246 375.740,287.937 376.400 C 288.628 377.060,289.464 377.600,289.796 377.600 C 290.128 377.600,290.400 377.780,290.400 378.000 C 290.400 378.220,290.694 378.400,291.053 378.400 C 291.412 378.400,291.997 378.715,292.353 379.100 C 293.099 379.907,298.126 382.400,299.008 382.400 C 299.333 382.400,299.600 382.580,299.600 382.800 C 299.600 383.020,299.949 383.200,300.376 383.200 C 300.803 383.200,301.264 383.380,301.400 383.600 C 301.536 383.820,302.007 384.000,302.447 384.000 C 302.887 384.000,303.136 384.180,303.000 384.400 C 302.864 384.620,302.403 384.800,301.976 384.800 C 301.549 384.800,301.200 384.980,301.200 385.200 C 301.200 385.420,300.761 385.600,300.224 385.600 C 299.687 385.600,299.136 385.780,299.000 386.000 C 298.864 386.220,298.403 386.400,297.976 386.400 C 297.549 386.400,297.200 386.580,297.200 386.800 C 297.200 387.020,296.840 387.200,296.400 387.200 C 295.960 387.200,295.600 387.368,295.600 387.573 C 295.600 387.779,295.105 388.004,294.500 388.073 C 293.827 388.151,293.412 388.433,293.431 388.800 C 293.494 390.028,294.098 392.400,294.347 392.400 C 294.489 392.400,294.844 392.940,295.136 393.600 C 295.428 394.260,295.967 394.803,296.334 394.806 C 296.910 394.811,296.919 394.865,296.400 395.200 C 296.070 395.413,295.937 395.591,296.105 395.594 C 296.408 395.600,296.965 395.357,298.695 394.462 C 299.187 394.208,299.962 394.000,300.418 394.000 C 300.874 394.000,301.136 393.820,301.000 393.600 C 300.860 393.373,301.196 393.200,301.776 393.200 C 302.339 393.200,302.800 393.020,302.800 392.800 C 302.800 392.580,303.261 392.400,303.824 392.400 C 304.404 392.400,304.740 392.227,304.600 392.000 C 304.456 391.767,304.863 391.600,305.576 391.600 C 306.249 391.600,306.800 391.426,306.800 391.213 C 306.800 390.999,307.070 390.929,307.400 391.055 C 307.730 391.182,308.000 391.115,308.000 390.906 C 308.000 390.537,311.100 389.382,311.700 389.527 C 311.865 389.567,312.000 389.420,312.000 389.200 C 312.000 388.980,312.360 388.800,312.800 388.800 C 313.240 388.800,313.600 388.658,313.600 388.485 C 313.600 388.312,314.002 388.140,314.494 388.103 C 314.986 388.066,315.451 387.848,315.527 387.618 C 315.604 387.388,315.922 387.200,316.233 387.200 C 316.545 387.200,316.800 386.840,316.800 386.400 C 316.800 385.960,316.987 385.600,317.216 385.600 C 317.450 385.600,317.592 384.908,317.539 384.024 C 317.488 383.157,317.301 382.538,317.123 382.647 C 316.945 382.757,316.800 382.196,316.800 381.400 C 316.800 380.537,316.639 380.053,316.400 380.200 C 316.162 380.347,316.000 379.871,316.000 379.024 C 316.000 378.241,315.820 377.600,315.600 377.600 C 315.380 377.600,315.200 377.150,315.200 376.600 C 315.200 376.050,315.020 375.600,314.800 375.600 C 314.580 375.600,314.400 375.060,314.400 374.400 C 314.400 373.740,314.220 373.200,314.000 373.200 C 313.780 373.200,313.600 372.660,313.600 372.000 C 313.600 371.340,313.420 370.800,313.200 370.800 C 312.980 370.800,312.800 370.260,312.800 369.600 C 312.800 368.940,312.620 368.400,312.400 368.400 C 312.180 368.400,312.000 367.919,312.000 367.331 C 312.000 365.632,311.018 364.835,309.380 365.204 C 308.621 365.376,307.997 365.400,307.994 365.258 C 307.991 365.116,307.856 365.206,307.694 365.459 C 307.532 365.711,306.950 365.981,306.400 366.059 C 305.850 366.136,305.175 366.412,304.900 366.671 C 304.304 367.233,304.212 369.764,304.800 369.400 C 305.039 369.253,305.200 369.737,305.200 370.600 C 305.200 371.463,305.361 371.947,305.600 371.800 C 305.838 371.653,306.000 372.129,306.000 372.976 C 306.000 373.759,306.180 374.400,306.400 374.400 C 306.620 374.400,306.800 374.925,306.800 375.567 C 306.800 376.208,307.025 376.814,307.300 376.912 C 307.575 377.010,307.687 377.213,307.548 377.364 C 307.410 377.514,306.510 377.289,305.548 376.864 C 301.747 375.184,300.750 374.800,300.186 374.800 C 299.864 374.800,299.600 374.620,299.600 374.400 C 299.600 374.180,299.240 374.000,298.800 374.000 C 298.360 374.000,298.000 373.820,298.000 373.600 C 298.000 373.380,297.722 373.200,297.383 373.200 C 297.044 373.200,296.380 372.840,295.908 372.400 C 295.436 371.960,294.813 371.600,294.525 371.600 C 294.236 371.600,294.000 371.420,294.000 371.200 C 294.000 370.980,293.757 370.800,293.459 370.800 C 293.162 370.800,292.354 370.260,291.663 369.600 C 290.972 368.940,290.227 368.400,290.007 368.400 C 289.787 368.400,289.382 368.040,289.107 367.600 C 288.832 367.160,288.351 366.800,288.037 366.800 C 287.723 366.800,287.586 366.681,287.731 366.535 C 287.877 366.390,287.358 365.838,286.579 365.308 C 285.800 364.779,284.152 363.368,282.919 362.173 C 281.685 360.978,280.366 360.000,279.987 360.000 C 279.608 360.000,278.511 359.079,277.549 357.954 C 271.808 351.238,266.380 340.069,264.449 331.000 C 264.214 329.900,263.851 328.190,263.640 327.200 C 262.325 321.013,262.859 308.186,264.748 300.600 C 265.651 296.977,265.965 296.017,267.557 292.029 C 274.430 274.814,289.140 260.674,306.508 254.586 C 315.038 251.596,328.406 249.707,329.055 251.400 C 329.236 251.871,330.050 252.000,332.843 252.000 C 334.948 252.000,336.400 252.163,336.400 252.400 C 336.400 252.622,337.467 252.800,338.800 252.800 C 340.120 252.800,341.200 252.945,341.200 253.122 C 341.200 253.299,341.965 253.488,342.900 253.542 C 343.835 253.596,344.660 253.811,344.733 254.020 C 344.807 254.229,345.392 254.400,346.033 254.400 C 346.675 254.400,347.200 254.541,347.200 254.713 C 347.200 254.885,347.685 255.066,348.278 255.115 C 348.870 255.164,349.455 255.338,349.578 255.502 C 349.700 255.666,350.070 255.850,350.400 255.911 C 350.730 255.973,351.360 256.181,351.800 256.375 C 352.490 256.679,353.745 257.174,354.400 257.400 C 356.058 257.973,358.121 258.912,358.400 259.220 C 358.510 259.342,359.267 259.752,360.083 260.132 C 360.899 260.511,361.671 260.992,361.800 261.200 C 361.929 261.408,362.701 261.891,363.517 262.272 C 364.333 262.653,365.477 263.468,366.060 264.083 C 366.644 264.697,367.297 265.200,367.512 265.200 C 367.727 265.200,368.847 266.100,370.000 267.200 C 371.153 268.300,372.212 269.200,372.354 269.200 C 372.495 269.200,372.946 269.647,373.355 270.192 C 373.765 270.738,374.245 271.096,374.422 270.987 C 374.598 270.878,374.844 271.109,374.969 271.501 C 375.093 271.893,376.278 273.334,377.601 274.703 C 378.924 276.073,379.987 277.301,379.963 277.432 C 379.938 277.564,380.297 278.108,380.761 278.641 C 381.224 279.174,381.648 279.833,381.702 280.105 C 381.756 280.377,382.115 280.891,382.500 281.247 C 382.885 281.603,383.200 282.148,383.200 282.459 C 383.200 282.769,383.560 283.283,384.000 283.600 C 384.440 283.917,384.800 284.497,384.800 284.888 C 384.800 285.280,384.935 285.601,385.100 285.603 C 385.459 285.607,386.400 287.544,386.400 288.280 C 386.400 288.566,386.580 288.800,386.800 288.800 C 387.020 288.800,387.200 289.171,387.200 289.624 C 387.200 290.077,387.380 290.336,387.600 290.200 C 387.833 290.056,388.000 290.463,388.000 291.176 C 388.000 291.849,388.180 292.400,388.400 292.400 C 388.620 292.400,388.800 292.760,388.800 293.200 C 388.800 293.640,388.980 294.000,389.200 294.000 C 389.420 294.000,389.600 294.540,389.600 295.200 C 389.600 295.860,389.780 296.400,390.000 296.400 C 390.220 296.400,390.400 296.940,390.400 297.600 C 390.400 298.260,390.580 298.800,390.800 298.800 C 391.020 298.800,391.200 299.325,391.200 299.968 C 391.200 300.610,391.465 302.185,391.790 303.468 C 392.916 307.921,393.616 321.217,392.777 322.227 C 392.521 322.537,392.401 323.027,392.512 323.316 C 392.624 323.606,392.473 325.350,392.178 327.193 C 391.883 329.036,391.750 330.719,391.883 330.934 C 392.016 331.150,391.918 331.196,391.662 331.038 C 391.342 330.840,391.200 331.251,391.200 332.376 C 391.200 333.269,391.020 334.000,390.800 334.000 C 390.580 334.000,390.400 334.540,390.400 335.200 C 390.400 335.860,390.220 336.400,390.000 336.400 C 389.780 336.400,389.600 336.940,389.600 337.600 C 389.600 338.260,389.420 338.800,389.200 338.800 C 388.980 338.800,388.800 339.143,388.800 339.562 C 388.800 340.378,387.199 343.712,386.700 343.933 C 386.535 344.007,386.400 344.512,386.400 345.057 C 386.400 345.615,386.226 345.939,386.000 345.800 C 385.780 345.664,385.600 345.923,385.600 346.376 C 385.600 346.829,385.420 347.200,385.200 347.200 C 384.980 347.200,384.800 347.560,384.800 348.000 C 384.800 348.440,384.648 348.800,384.463 348.800 C 384.277 348.800,383.713 349.602,383.209 350.582 C 382.705 351.563,381.957 352.725,381.546 353.166 C 381.136 353.606,380.800 354.154,380.800 354.383 C 380.800 354.612,380.620 354.800,380.400 354.800 C 380.180 354.800,380.000 355.006,380.000 355.257 C 380.000 355.508,379.415 356.272,378.700 356.956 C 377.985 357.639,377.410 358.289,377.422 358.399 C 377.476 358.877,372.158 364.400,371.644 364.400 C 371.422 364.400,371.056 364.715,370.832 365.100 C 370.608 365.485,370.419 365.672,370.412 365.516 C 370.405 365.359,369.694 365.944,368.831 366.816 C 367.969 367.687,367.018 368.400,366.720 368.400 C 366.421 368.400,365.917 368.760,365.600 369.200 C 365.283 369.640,364.783 370.000,364.488 370.000 C 364.194 370.000,364.064 370.180,364.200 370.400 C 364.336 370.620,364.077 370.800,363.624 370.800 C 363.171 370.800,362.800 370.980,362.800 371.200 C 362.800 371.420,362.429 371.600,361.976 371.600 C 361.523 371.600,361.245 371.750,361.358 371.932 C 361.471 372.115,360.942 372.509,360.182 372.807 C 359.422 373.105,358.800 373.496,358.800 373.675 C 358.800 373.854,358.530 374.000,358.200 374.000 C 357.870 374.000,357.600 374.180,357.600 374.400 C 357.600 374.620,357.240 374.800,356.800 374.800 C 356.360 374.800,356.000 374.991,356.000 375.224 C 356.000 375.457,355.812 375.531,355.582 375.389 C 355.353 375.247,354.948 375.300,354.682 375.507 C 354.417 375.714,353.345 376.129,352.300 376.429 C 351.255 376.729,350.400 377.115,350.400 377.287 C 350.400 377.459,349.896 377.600,349.280 377.600 C 348.664 377.600,347.989 377.769,347.780 377.975 C 347.571 378.182,346.860 378.421,346.200 378.507 C 344.785 378.692,343.839 380.153,344.426 381.248 C 344.632 381.633,344.800 382.409,344.800 382.974 C 344.800 383.538,344.980 384.000,345.200 384.000 C 345.420 384.000,345.600 384.540,345.600 385.200 C 345.600 386.438,347.943 387.063,348.600 386.000 C 348.736 385.780,349.289 385.600,349.829 385.600 C 350.369 385.600,351.168 385.420,351.605 385.200 C 352.042 384.980,352.758 384.620,353.195 384.400 C 353.632 384.180,354.341 384.000,354.771 384.000 C 355.201 384.000,355.664 383.820,355.800 383.600 C 355.936 383.380,356.382 383.200,356.790 383.200 C 357.199 383.200,357.596 383.012,357.673 382.782 C 357.749 382.552,358.202 382.335,358.678 382.299 C 359.155 382.263,359.456 382.091,359.349 381.917 C 359.241 381.743,359.478 381.594,359.876 381.587 C 360.274 381.580,360.942 381.316,361.359 381.000 C 361.776 380.684,362.299 380.538,362.521 380.675 C 362.749 380.816,362.800 380.724,362.638 380.462 C 362.461 380.176,362.637 380.000,363.101 380.000 C 363.512 380.000,364.236 379.640,364.708 379.200 C 365.180 378.760,365.844 378.400,366.183 378.400 C 366.522 378.400,366.800 378.220,366.800 378.000 C 366.800 377.780,367.036 377.600,367.325 377.600 C 367.613 377.600,368.236 377.240,368.708 376.800 C 369.180 376.360,369.765 376.000,370.007 376.000 C 370.249 376.000,370.336 375.820,370.200 375.600 C 370.064 375.380,370.323 375.200,370.776 375.200 C 371.229 375.200,371.600 375.059,371.600 374.886 C 371.600 374.714,372.139 374.254,372.797 373.865 C 374.120 373.084,385.022 362.407,384.517 362.388 C 384.343 362.381,384.515 362.192,384.900 361.968 C 385.285 361.744,385.600 361.391,385.600 361.183 C 385.600 360.976,385.953 360.400,386.385 359.903 C 386.817 359.406,387.183 358.870,387.197 358.711 C 387.212 358.552,387.759 357.837,388.412 357.122 C 389.066 356.407,389.600 355.592,389.600 355.311 C 389.600 355.030,389.780 354.800,390.000 354.800 C 390.220 354.800,390.400 354.552,390.400 354.249 C 390.400 353.946,390.670 353.474,391.000 353.200 C 391.330 352.926,391.600 352.364,391.600 351.951 C 391.600 351.538,391.780 351.200,392.000 351.200 C 392.220 351.200,392.400 350.840,392.400 350.400 C 392.400 349.960,392.580 349.600,392.800 349.600 C 393.020 349.600,393.200 349.240,393.200 348.800 C 393.200 348.360,393.380 348.000,393.600 348.000 C 393.820 348.000,394.000 347.735,394.000 347.412 C 394.000 347.089,394.360 346.183,394.800 345.400 C 395.240 344.617,395.600 343.621,395.600 343.188 C 395.600 342.755,395.780 342.400,396.000 342.400 C 396.220 342.400,396.400 341.950,396.400 341.400 C 396.400 340.850,396.580 340.400,396.800 340.400 C 397.020 340.400,397.200 339.860,397.200 339.200 C 397.200 338.540,397.380 338.000,397.600 338.000 C 397.820 338.000,398.000 337.471,398.000 336.824 C 398.000 336.177,398.180 335.536,398.400 335.400 C 398.620 335.264,398.800 334.389,398.800 333.456 C 398.800 332.523,399.025 331.535,399.300 331.260 C 399.682 330.878,399.800 327.297,399.800 316.113 C 399.800 304.751,399.688 301.429,399.300 301.300 C 399.025 301.208,398.800 300.529,398.800 299.790 C 398.800 299.052,398.620 298.336,398.400 298.200 C 398.180 298.064,398.000 297.344,398.000 296.600 C 398.000 295.856,397.820 295.136,397.600 295.000 C 397.380 294.864,397.200 294.313,397.200 293.776 C 397.200 293.239,397.020 292.800,396.800 292.800 C 396.580 292.800,396.400 292.361,396.400 291.824 C 396.400 291.287,396.220 290.736,396.000 290.600 C 395.780 290.464,395.600 290.003,395.600 289.576 C 395.600 289.149,395.420 288.800,395.200 288.800 C 394.980 288.800,394.800 288.361,394.800 287.824 C 394.800 287.287,394.620 286.736,394.400 286.600 C 394.180 286.464,394.000 286.003,394.000 285.576 C 394.000 285.149,393.820 284.800,393.600 284.800 C 393.380 284.800,393.200 284.429,393.200 283.976 C 393.200 283.523,393.020 283.264,392.800 283.400 C 392.452 283.615,392.210 282.804,392.353 281.900 C 392.379 281.735,392.232 281.600,392.027 281.600 C 391.822 281.600,391.529 281.195,391.377 280.700 C 391.224 280.205,390.582 279.026,389.950 278.080 C 389.317 277.134,388.800 276.229,388.800 276.068 C 388.800 275.908,388.440 275.517,388.000 275.200 C 387.560 274.883,387.200 274.379,387.200 274.080 C 387.200 273.782,386.465 272.831,385.567 271.969 C 384.669 271.106,384.026 270.400,384.137 270.400 C 384.855 270.400,375.514 260.953,374.468 260.622 C 374.030 260.483,373.381 259.926,373.027 259.384 C 372.672 258.843,372.161 258.400,371.891 258.399 C 371.621 258.399,370.770 257.859,370.000 257.200 C 369.230 256.541,368.375 256.001,368.100 256.001 C 367.825 256.000,367.600 255.820,367.600 255.600 C 367.600 255.380,367.364 255.200,367.075 255.200 C 366.787 255.200,366.164 254.840,365.692 254.400 C 365.220 253.960,364.556 253.600,364.217 253.600 C 363.878 253.600,363.600 253.420,363.600 253.200 C 363.600 252.980,363.240 252.800,362.800 252.800 C 362.360 252.800,362.000 252.620,362.000 252.400 C 362.000 252.180,361.640 252.000,361.200 252.000 C 360.760 252.000,360.400 251.820,360.400 251.600 C 360.400 251.380,360.040 251.200,359.600 251.200 C 359.160 251.200,358.800 251.020,358.800 250.800 C 358.800 250.580,358.451 250.400,358.024 250.400 C 357.597 250.400,357.136 250.220,357.000 250.000 C 356.864 249.780,356.403 249.600,355.976 249.600 C 355.549 249.600,355.200 249.453,355.200 249.272 C 355.200 249.092,354.289 248.696,353.175 248.393 C 352.061 248.090,351.060 247.697,350.951 247.521 C 350.842 247.344,350.144 247.200,349.400 247.200 C 348.656 247.200,347.936 247.020,347.800 246.800 C 347.664 246.580,347.102 246.400,346.550 246.400 C 345.999 246.400,345.244 246.238,344.873 246.039 C 344.503 245.841,343.479 245.627,342.600 245.565 C 341.720 245.502,340.815 245.315,340.588 245.150 C 340.361 244.984,338.966 244.809,337.488 244.761 C 336.010 244.713,334.800 244.532,334.800 244.358 C 334.800 243.911,322.696 243.968,321.985 244.418 M0.000 259.400 L 0.000 262.800 3.400 262.800 L 6.800 262.800 6.800 259.400 L 6.800 256.000 3.400 256.000 L 0.000 256.000 0.000 259.400 M-0.000 271.416 L -0.000 275.232 3.300 275.116 L 6.600 275.000 6.661 271.300 L 6.722 267.600 3.361 267.600 L 0.000 267.600 -0.000 271.416 M324.800 289.200 C 324.800 307.333,324.788 307.600,324.000 307.600 C 323.560 307.600,323.200 307.780,323.200 308.000 C 323.200 308.220,322.912 308.400,322.560 308.400 C 321.073 308.400,318.400 312.154,318.400 314.242 C 318.400 314.795,318.241 315.149,318.047 315.029 C 317.853 314.909,317.694 315.886,317.694 317.200 C 317.694 318.514,317.853 319.491,318.047 319.371 C 318.241 319.251,318.400 319.633,318.400 320.219 C 318.400 321.223,314.551 325.485,314.075 325.008 C 313.979 324.912,313.299 325.411,312.563 326.117 C 310.468 328.127,308.800 329.584,308.800 329.403 C 308.800 329.312,307.909 330.130,306.819 331.219 C 305.730 332.309,304.549 333.200,304.195 333.200 C 303.842 333.200,303.664 333.380,303.800 333.600 C 303.936 333.820,303.844 334.000,303.595 334.000 C 301.948 334.000,301.543 336.468,302.927 338.076 C 303.436 338.668,304.195 339.609,304.614 340.167 C 305.422 341.243,307.429 341.308,308.084 340.278 C 308.251 340.015,308.391 339.928,308.394 340.084 C 308.397 340.241,309.106 339.656,309.969 338.784 C 310.831 337.913,311.832 337.200,312.192 337.200 C 312.552 337.200,312.736 337.020,312.600 336.800 C 312.464 336.580,312.558 336.400,312.808 336.400 C 313.058 336.400,313.954 335.680,314.800 334.800 C 315.646 333.920,316.503 333.200,316.706 333.200 C 316.909 333.200,318.138 332.164,319.437 330.897 C 322.485 327.927,324.495 326.486,324.707 327.120 C 324.908 327.725,332.400 327.802,332.400 327.200 C 332.400 326.980,332.745 326.800,333.167 326.800 C 333.588 326.800,333.993 326.633,334.067 326.430 C 334.140 326.226,334.448 326.001,334.752 325.930 C 336.231 325.581,338.800 321.953,338.800 320.211 C 338.800 319.681,338.955 319.151,339.145 319.034 C 339.693 318.695,338.948 312.800,338.356 312.800 C 338.160 312.800,338.000 312.440,338.000 312.000 C 338.000 311.560,337.820 311.200,337.600 311.200 C 337.380 311.200,337.200 311.011,337.200 310.781 C 337.200 310.232,335.144 308.429,334.500 308.413 C 334.225 308.406,334.000 308.220,334.000 308.000 C 334.000 307.780,333.640 307.600,333.200 307.600 C 332.412 307.600,332.400 307.333,332.400 289.200 L 332.400 270.800 328.600 270.800 L 324.800 270.800 324.800 289.200 M0.000 283.600 L 0.000 287.200 3.400 287.200 L 6.800 287.200 6.800 283.600 L 6.800 280.000 3.400 280.000 L 0.000 280.000 0.000 283.600 M-0.000 295.616 L -0.000 299.632 3.300 299.516 L 6.600 299.400 6.716 295.896 C 6.851 291.801,6.648 291.600,2.374 291.600 L 0.000 291.600 -0.000 295.616 M-0.000 307.400 L -0.000 311.232 3.300 311.116 L 6.600 311.000 6.600 307.400 L 6.600 303.800 3.300 303.684 L -0.000 303.568 -0.000 307.400 M330.618 315.382 C 332.421 317.184,331.068 320.000,328.400 320.000 C 326.956 320.000,325.200 318.466,325.200 317.204 C 325.200 314.752,328.783 313.547,330.618 315.382 M-0.000 319.616 L -0.000 323.232 3.300 323.116 L 6.600 323.000 6.716 319.500 L 6.831 316.000 3.416 316.000 L 0.000 316.000 -0.000 319.616 M0.000 331.600 L 0.000 335.600 3.346 335.600 L 6.691 335.600 6.764 332.282 C 6.869 327.543,6.913 327.600,3.157 327.600 L 0.000 327.600 0.000 331.600 M-0.000 343.816 L -0.000 347.232 3.300 347.116 L 6.600 347.000 6.716 343.700 L 6.832 340.400 3.416 340.400 L 0.000 340.400 -0.000 343.816 M4.600 351.600 C 4.464 351.820,3.778 352.006,3.076 352.013 C 1.229 352.031,0.400 352.822,0.400 354.568 C 0.400 355.452,0.561 355.948,0.800 355.800 C 1.033 355.656,1.200 356.055,1.200 356.753 C 1.200 357.413,1.380 358.064,1.600 358.200 C 1.820 358.336,2.000 358.906,2.000 359.466 C 2.000 360.286,2.137 360.426,2.700 360.182 C 3.085 360.015,3.985 359.796,4.700 359.695 C 5.415 359.595,6.000 359.352,6.000 359.156 C 6.000 358.960,6.315 358.794,6.700 358.787 C 9.014 358.745,9.336 356.696,7.701 352.400 C 7.576 352.070,7.502 351.665,7.536 351.500 C 7.632 351.047,4.884 351.140,4.600 351.600 M9.249 362.040 C 8.800 362.458,8.246 362.800,8.017 362.800 C 7.788 362.800,7.600 362.980,7.600 363.200 C 7.600 363.420,7.317 363.600,6.971 363.600 C 6.626 363.600,6.086 363.857,5.771 364.171 C 5.122 364.821,4.993 366.800,5.600 366.800 C 5.820 366.800,6.000 367.171,6.000 367.624 C 6.000 368.077,6.180 368.336,6.400 368.200 C 6.620 368.064,6.800 368.233,6.800 368.576 C 6.800 368.919,6.936 369.200,7.102 369.200 C 7.269 369.200,7.642 369.736,7.932 370.390 C 8.639 371.988,9.705 371.822,11.732 369.800 C 12.614 368.920,13.395 368.245,13.468 368.300 C 14.618 369.169,14.737 366.112,13.600 364.892 C 13.160 364.420,12.800 363.838,12.800 363.600 C 12.800 361.990,10.423 360.946,9.249 362.040 M16.114 371.045 C 15.640 371.526,15.346 372.012,15.460 372.127 C 15.575 372.241,15.288 372.539,14.823 372.788 C 14.358 373.037,14.063 373.378,14.167 373.547 C 14.272 373.716,14.007 374.107,13.579 374.415 C 13.150 374.724,12.800 375.131,12.800 375.320 C 12.800 375.853,15.920 378.721,16.807 379.002 C 17.243 379.141,17.600 379.422,17.600 379.627 C 17.600 379.832,18.140 380.000,18.800 380.000 C 19.493 380.000,20.000 379.789,20.000 379.500 C 20.001 379.225,20.447 378.482,20.992 377.848 C 21.537 377.214,21.906 376.572,21.813 376.421 C 21.719 376.269,21.993 375.893,22.421 375.585 C 23.629 374.714,22.200 372.498,19.974 371.792 C 19.542 371.655,19.292 371.375,19.418 371.171 C 19.544 370.967,19.266 370.800,18.800 370.800 C 18.334 370.800,18.040 370.659,18.147 370.486 C 18.586 369.776,16.913 370.236,16.114 371.045 M25.815 377.321 C 25.483 377.827,25.097 378.817,24.956 379.521 C 24.815 380.224,24.543 380.800,24.350 380.800 C 24.157 380.800,24.000 381.441,24.000 382.224 C 24.000 383.071,24.162 383.547,24.400 383.400 C 24.620 383.264,24.800 383.322,24.800 383.530 C 24.800 383.737,25.115 384.011,25.500 384.139 C 25.885 384.267,26.920 384.645,27.800 384.980 C 29.681 385.695,30.800 385.768,30.800 385.176 C 30.800 384.943,30.980 384.864,31.200 385.000 C 31.438 385.147,31.600 384.671,31.600 383.824 C 31.600 383.041,31.780 382.400,32.000 382.400 C 32.220 382.400,32.400 381.896,32.400 381.280 C 32.400 380.664,32.625 379.922,32.900 379.630 C 33.300 379.206,33.299 379.063,32.893 378.914 C 32.614 378.812,32.132 378.475,31.821 378.164 C 31.511 377.854,30.996 377.600,30.677 377.600 C 30.359 377.600,29.451 377.330,28.662 377.000 C 26.767 376.208,26.526 376.236,25.815 377.321 M37.446 379.825 C 37.314 380.169,37.024 380.339,36.803 380.202 C 36.547 380.044,36.400 380.975,36.400 382.753 C 36.400 384.293,36.220 385.664,36.000 385.800 C 35.780 385.936,35.600 386.227,35.600 386.447 C 35.600 386.667,35.780 386.736,36.000 386.600 C 36.220 386.464,36.400 386.543,36.400 386.776 C 36.400 387.031,37.437 387.200,39.000 387.200 C 40.430 387.200,41.600 387.341,41.600 387.514 C 41.600 387.687,41.960 387.829,42.400 387.829 C 42.840 387.829,43.200 387.677,43.200 387.491 C 43.200 387.305,43.380 387.264,43.600 387.400 C 43.856 387.558,44.000 386.271,44.000 383.824 L 44.000 380.000 41.424 380.000 C 40.007 380.000,38.736 379.820,38.600 379.600 C 38.236 379.012,37.719 379.113,37.446 379.825 M48.000 383.576 C 48.000 387.793,47.879 387.673,52.214 387.745 C 56.122 387.809,55.986 387.977,55.995 383.100 L 56.000 380.000 52.000 380.000 L 48.000 380.000 48.000 383.576 " stroke="none" fill="#4c545c" fill-rule="evenodd"></path><path id="path1" d="M73.782 28.321 C 70.349 29.534,67.619 32.157,66.083 35.719 C 65.726 36.545,65.601 42.247,65.604 57.519 L 65.608 78.200 66.551 80.200 C 71.142 89.934,85.031 89.382,88.797 79.317 C 89.796 76.647,90.045 39.652,89.084 36.600 C 86.985 29.928,79.972 26.133,73.782 28.321 M185.800 28.037 C 181.821 29.439,179.339 31.500,177.726 34.742 C 176.511 37.182,176.412 77.022,177.613 79.843 C 181.879 89.863,196.184 89.509,200.007 79.289 C 201.296 75.846,201.061 37.559,199.735 34.800 C 197.330 29.799,190.378 26.425,185.800 28.037 M296.800 28.126 C 291.800 29.876,289.233 32.745,288.145 37.800 C 287.484 40.871,287.383 73.676,288.025 76.880 C 290.379 88.633,305.418 91.064,310.818 80.564 L 311.800 78.656 311.800 57.600 L 311.800 36.544 310.813 34.625 C 308.175 29.497,301.599 26.447,296.800 28.126 M274.520 316.000 C 274.520 317.210,274.595 317.705,274.687 317.100 C 274.778 316.495,274.778 315.505,274.687 314.900 C 274.595 314.295,274.520 314.790,274.520 316.000 " stroke="none" fill="#e3d9b7" fill-rule="evenodd"></path><path id="path2" d="M46.800 67.186 C 47.386 67.578,46.010 67.833,44.460 67.621 C 44.142 67.577,44.038 67.738,44.208 68.013 C 44.423 68.360,44.294 68.371,43.706 68.057 C 43.082 67.723,42.738 67.798,42.079 68.413 C 41.510 68.942,41.154 69.049,40.966 68.745 C 40.779 68.442,40.571 68.508,40.325 68.949 C 40.124 69.307,39.699 69.600,39.380 69.600 C 39.061 69.600,38.800 69.810,38.800 70.067 C 38.800 70.323,38.681 70.414,38.536 70.269 C 38.391 70.124,38.020 70.364,37.713 70.803 C 37.406 71.241,36.810 71.600,36.390 71.600 C 35.833 71.600,35.693 71.790,35.876 72.300 C 36.014 72.685,35.987 72.873,35.815 72.717 C 35.451 72.389,32.652 75.066,32.278 76.100 C 32.139 76.485,31.749 76.800,31.413 76.800 C 31.076 76.800,30.821 76.935,30.847 77.100 C 30.982 77.954,30.728 78.727,30.083 79.425 C 29.688 79.851,29.349 80.560,29.328 81.000 C 29.240 82.852,29.012 83.931,28.744 83.765 C 28.040 83.330,28.343 117.675,29.051 118.456 C 29.709 119.183,34.006 119.203,189.254 119.199 L 348.781 119.194 348.783 101.216 C 348.784 91.328,348.631 83.143,348.443 83.026 C 348.254 82.910,348.100 82.341,348.100 81.762 C 348.100 81.183,347.874 80.570,347.599 80.399 C 347.323 80.229,347.221 79.889,347.372 79.645 C 347.524 79.400,347.462 79.200,347.236 79.200 C 347.010 79.200,346.938 78.885,347.076 78.500 C 347.214 78.115,347.182 77.932,347.004 78.093 C 346.540 78.513,345.208 76.844,345.468 76.168 C 345.602 75.817,345.430 75.600,345.019 75.600 C 344.653 75.600,344.464 75.420,344.600 75.200 C 344.736 74.980,344.556 74.800,344.200 74.800 C 343.844 74.800,343.639 74.660,343.745 74.489 C 343.851 74.318,343.599 73.733,343.185 73.189 L 342.432 72.200 342.657 73.200 C 342.838 74.001,342.728 73.926,342.105 72.821 C 341.677 72.062,340.993 71.252,340.585 71.021 C 340.177 70.789,339.499 70.298,339.078 69.929 C 338.657 69.561,338.062 69.355,337.756 69.472 C 337.450 69.590,337.200 69.516,337.200 69.309 C 337.200 69.103,336.975 68.926,336.700 68.918 C 335.808 68.889,335.006 68.608,334.732 68.228 C 334.584 68.023,333.749 67.821,332.876 67.778 C 332.002 67.736,331.088 67.578,330.844 67.427 C 330.600 67.276,330.397 67.298,330.394 67.476 C 330.391 67.654,330.229 67.549,330.034 67.242 C 329.807 66.883,329.416 66.792,328.940 66.987 C 328.073 67.342,325.660 67.490,325.465 67.200 C 325.391 67.090,325.384 67.219,325.448 67.487 C 325.512 67.755,325.389 68.083,325.173 68.217 C 324.956 68.351,324.779 70.448,324.776 72.929 C 324.769 78.479,324.745 78.800,324.333 78.800 C 324.150 78.800,324.000 78.991,324.000 79.224 C 324.000 79.457,324.225 79.520,324.500 79.365 C 324.900 79.139,324.900 79.190,324.500 79.621 C 324.225 79.918,324.000 80.484,324.000 80.880 C 324.000 81.276,323.820 81.600,323.600 81.600 C 323.380 81.600,323.221 81.735,323.247 81.900 C 323.453 83.204,323.144 84.932,322.800 84.400 C 322.486 83.915,322.411 83.972,322.406 84.700 C 322.403 85.195,322.226 85.600,322.013 85.600 C 321.799 85.600,321.736 85.888,321.871 86.240 C 322.006 86.593,321.878 87.028,321.586 87.208 C 321.295 87.389,321.019 87.792,320.973 88.105 C 320.868 88.821,318.926 90.793,318.624 90.491 C 318.501 90.368,318.400 90.490,318.400 90.762 C 318.400 91.427,317.364 92.431,317.026 92.093 C 316.879 91.945,316.865 92.105,316.997 92.448 C 317.263 93.141,316.247 94.200,315.663 93.839 C 315.458 93.712,315.197 93.968,315.082 94.406 C 314.952 94.905,314.654 95.119,314.286 94.978 C 313.890 94.826,313.612 95.098,313.433 95.813 C 313.254 96.523,312.974 96.799,312.583 96.649 C 311.861 96.372,310.733 96.768,311.003 97.205 C 311.112 97.381,310.796 97.437,310.301 97.328 C 309.577 97.169,309.518 97.215,310.000 97.559 C 310.515 97.927,310.498 97.989,309.876 97.994 C 309.478 97.997,309.248 98.155,309.365 98.344 C 309.482 98.533,309.134 98.639,308.591 98.579 C 308.048 98.520,307.517 98.611,307.411 98.782 C 307.306 98.953,306.765 99.006,306.210 98.900 C 305.618 98.787,305.200 98.892,305.200 99.153 C 305.200 99.399,304.945 99.600,304.633 99.600 C 304.322 99.600,303.991 99.825,303.898 100.100 C 303.772 100.477,303.591 100.488,303.165 100.147 C 302.420 99.550,299.592 99.769,299.155 100.459 C 298.880 100.893,298.811 100.877,298.806 100.375 C 298.802 99.913,298.318 99.725,296.962 99.654 C 295.951 99.602,294.796 99.354,294.394 99.104 C 293.834 98.754,293.513 98.774,293.010 99.192 C 292.650 99.491,292.386 99.570,292.425 99.368 C 292.639 98.244,292.391 97.977,291.552 98.426 C 290.956 98.745,290.784 98.749,290.975 98.440 C 291.215 98.051,290.128 97.779,289.070 97.963 C 288.889 97.994,288.855 97.835,288.994 97.610 C 289.133 97.384,289.038 97.200,288.781 97.200 C 288.525 97.200,287.781 96.750,287.127 96.200 C 286.473 95.650,285.672 95.200,285.346 95.200 C 284.995 95.200,284.871 95.009,285.042 94.732 C 285.236 94.418,285.114 94.347,284.670 94.518 C 284.307 94.657,284.029 94.643,284.052 94.486 C 284.171 93.689,283.955 93.180,283.593 93.404 C 283.370 93.542,283.308 93.851,283.455 94.089 C 283.610 94.340,283.539 94.409,283.286 94.253 C 283.046 94.105,282.919 93.622,283.004 93.181 C 283.089 92.740,282.988 92.484,282.779 92.613 C 282.571 92.742,282.400 92.657,282.400 92.424 C 282.400 92.191,282.124 92.000,281.787 92.000 C 281.131 92.000,280.352 90.439,280.709 89.838 C 280.827 89.639,280.716 89.605,280.462 89.762 C 280.185 89.933,280.000 89.787,280.000 89.400 C 280.000 89.044,279.820 88.864,279.600 89.000 C 279.380 89.136,279.200 89.040,279.200 88.788 C 279.200 88.535,278.832 88.029,278.382 87.664 C 277.933 87.299,277.506 86.550,277.435 86.000 C 277.233 84.441,276.760 83.580,276.258 83.861 C 275.936 84.041,275.940 83.966,276.271 83.607 C 276.759 83.080,276.302 81.769,275.400 81.106 C 275.165 80.933,275.247 80.807,275.600 80.800 C 275.989 80.792,276.046 80.684,275.761 80.494 C 275.210 80.126,275.184 79.780,275.214 73.300 C 275.229 69.859,275.091 68.000,274.819 68.000 C 274.588 68.000,274.400 67.809,274.400 67.576 C 274.400 67.343,274.580 67.264,274.800 67.400 C 275.020 67.536,275.200 67.502,275.200 67.324 C 275.200 66.998,215.013 67.055,214.126 67.381 C 213.795 67.502,213.674 68.828,213.726 71.778 C 213.782 74.989,213.677 76.000,213.286 76.000 C 212.886 76.000,212.873 76.188,213.226 76.848 C 213.545 77.444,213.549 77.616,213.240 77.425 C 212.622 77.043,212.674 78.904,213.300 79.579 C 213.702 80.012,213.696 80.058,213.267 79.815 C 212.877 79.593,212.770 79.765,212.867 80.456 C 212.951 81.050,212.815 81.363,212.500 81.300 C 212.225 81.245,212.000 81.470,212.000 81.800 C 212.000 82.130,212.182 82.400,212.403 82.400 C 212.647 82.400,212.615 82.707,212.323 83.174 C 212.057 83.600,211.696 83.859,211.520 83.751 C 211.344 83.642,211.200 83.844,211.200 84.200 C 211.200 84.611,211.382 84.738,211.700 84.547 C 212.040 84.343,212.024 84.463,211.651 84.923 C 211.349 85.295,211.205 85.600,211.332 85.600 C 211.458 85.600,211.126 86.070,210.594 86.645 C 210.061 87.219,209.519 88.074,209.388 88.545 C 208.919 90.230,208.253 91.200,207.566 91.200 C 207.174 91.200,206.633 91.728,206.334 92.405 C 205.983 93.197,205.599 93.532,205.213 93.383 C 204.889 93.259,204.754 93.288,204.913 93.446 C 205.352 93.886,204.004 95.176,203.362 94.930 C 202.998 94.790,202.800 94.988,202.800 95.493 C 202.800 96.424,200.967 97.439,200.658 96.679 C 200.518 96.336,200.454 96.348,200.432 96.724 C 200.414 97.012,200.220 97.136,200.000 97.000 C 199.780 96.864,199.579 97.168,199.554 97.676 C 199.520 98.354,199.458 98.414,199.324 97.900 C 199.122 97.126,198.582 96.982,198.200 97.600 C 198.064 97.820,197.593 98.000,197.153 98.000 C 196.713 98.000,196.464 98.180,196.600 98.400 C 196.843 98.793,196.490 98.912,195.100 98.907 C 194.715 98.905,194.400 99.125,194.400 99.396 C 194.400 99.723,193.797 99.862,192.600 99.812 C 191.610 99.771,190.800 99.886,190.800 100.069 C 190.800 100.251,190.609 100.400,190.376 100.400 C 190.143 100.400,190.064 100.220,190.200 100.000 C 190.546 99.440,189.860 99.500,189.280 100.080 C 189.016 100.344,188.800 100.382,188.800 100.165 C 188.800 99.948,188.440 99.743,188.000 99.710 C 187.560 99.677,187.197 99.864,187.194 100.125 C 187.190 100.424,187.079 100.452,186.894 100.200 C 186.732 99.980,186.285 99.785,185.900 99.767 C 183.476 99.651,183.169 99.573,183.436 99.142 C 183.633 98.822,183.416 98.759,182.719 98.934 C 182.169 99.072,181.589 99.056,181.431 98.898 C 181.273 98.740,180.931 98.589,180.672 98.563 C 179.638 98.458,178.400 97.885,178.400 97.511 C 178.400 97.293,178.130 97.218,177.800 97.345 C 177.470 97.471,177.200 97.414,177.200 97.216 C 177.200 97.019,176.488 96.544,175.619 96.160 C 174.749 95.777,174.117 95.334,174.214 95.177 C 174.457 94.784,173.390 93.943,173.063 94.270 C 172.918 94.415,172.800 94.358,172.800 94.143 C 172.800 93.929,172.517 93.404,172.170 92.976 C 171.824 92.549,171.655 92.425,171.794 92.700 C 172.406 93.907,171.306 93.058,170.628 91.800 C 170.213 91.030,169.712 90.400,169.513 90.400 C 169.315 90.400,169.251 90.240,169.372 90.045 C 169.493 89.850,169.289 89.445,168.919 89.145 C 168.340 88.676,168.296 88.684,168.600 89.200 C 168.905 89.718,168.861 89.725,168.277 89.251 C 167.544 88.657,167.349 88.198,168.000 88.600 C 168.673 89.016,168.445 88.199,167.649 87.345 C 167.236 86.901,166.774 86.147,166.622 85.669 C 166.470 85.191,166.196 84.800,166.013 84.800 C 165.830 84.800,165.717 84.265,165.762 83.611 C 165.807 82.957,165.762 82.505,165.662 82.605 C 164.669 83.598,164.245 79.661,164.004 67.200 C 163.999 66.960,102.750 67.116,102.510 67.357 C 102.178 67.689,102.208 76.319,102.540 76.114 C 102.727 75.998,102.693 76.253,102.465 76.679 C 102.236 77.106,102.105 77.803,102.173 78.227 C 102.242 78.652,102.120 79.223,101.904 79.495 C 101.688 79.767,101.615 80.262,101.743 80.595 C 101.870 80.928,101.801 81.200,101.587 81.200 C 101.374 81.200,101.200 81.572,101.200 82.026 C 101.200 82.967,100.493 84.458,99.840 84.894 C 99.536 85.097,99.556 85.190,99.903 85.194 C 100.301 85.199,100.305 85.363,99.923 85.974 C 99.657 86.400,99.273 86.645,99.068 86.518 C 98.864 86.392,98.784 86.539,98.891 86.844 C 98.998 87.150,98.716 87.928,98.264 88.572 C 97.765 89.284,97.670 89.607,98.021 89.395 C 98.499 89.108,98.513 89.154,98.103 89.660 C 97.830 89.997,97.713 90.380,97.843 90.510 C 97.973 90.640,97.673 90.640,97.177 90.510 C 96.550 90.346,96.363 90.416,96.563 90.741 C 96.722 90.998,96.480 91.680,96.026 92.258 C 95.396 93.058,95.200 93.147,95.200 92.630 C 95.200 92.252,95.011 92.069,94.773 92.216 C 94.539 92.361,94.437 92.570,94.546 92.680 C 94.931 93.064,92.316 95.254,91.738 95.032 C 91.419 94.909,91.252 94.960,91.366 95.144 C 91.612 95.543,89.769 97.236,89.444 96.911 C 89.320 96.787,88.973 96.890,88.673 97.140 C 88.372 97.389,88.034 97.500,87.920 97.387 C 87.807 97.273,87.495 97.444,87.228 97.767 C 86.960 98.089,86.485 98.254,86.171 98.133 C 85.857 98.013,85.600 98.144,85.600 98.424 C 85.600 98.704,85.480 98.813,85.332 98.666 C 85.185 98.519,84.704 98.714,84.264 99.099 C 83.823 99.485,83.594 99.575,83.755 99.300 C 83.948 98.970,83.778 98.800,83.257 98.800 C 82.822 98.800,82.394 99.017,82.306 99.282 C 82.212 99.565,81.414 99.757,80.373 99.747 C 79.398 99.737,78.488 99.899,78.351 100.106 C 78.200 100.334,77.745 100.292,77.200 100.000 C 76.704 99.735,76.186 99.671,76.049 99.859 C 75.574 100.509,72.404 99.814,72.394 99.057 C 72.391 98.805,72.213 98.870,72.000 99.200 C 71.766 99.562,71.610 99.610,71.606 99.323 C 71.603 99.061,71.240 98.915,70.800 99.000 C 70.256 99.105,69.998 98.937,69.994 98.477 C 69.989 97.889,69.932 97.879,69.563 98.400 C 69.242 98.854,69.090 98.878,68.935 98.498 C 68.823 98.221,68.567 98.097,68.366 98.221 C 68.165 98.345,68.000 98.246,68.000 98.000 C 68.000 97.754,67.820 97.664,67.600 97.800 C 67.380 97.936,67.200 97.857,67.200 97.624 C 67.200 97.391,66.919 97.200,66.576 97.200 C 66.202 97.200,66.068 97.013,66.242 96.732 C 66.436 96.417,66.313 96.348,65.866 96.519 C 65.431 96.686,65.200 96.571,65.200 96.187 C 65.200 95.864,65.009 95.600,64.776 95.600 C 64.543 95.600,64.488 95.825,64.653 96.100 C 64.893 96.499,64.829 96.500,64.340 96.103 C 64.003 95.830,63.621 95.712,63.493 95.841 C 63.364 95.969,62.971 95.518,62.620 94.839 C 62.257 94.137,61.386 93.354,60.605 93.028 C 59.755 92.673,59.137 92.090,58.990 91.503 C 58.859 90.981,58.325 90.233,57.802 89.841 C 57.257 89.431,56.948 88.881,57.076 88.547 C 57.212 88.192,57.086 88.012,56.749 88.084 C 56.435 88.150,56.224 87.902,56.255 87.504 C 56.286 87.109,56.127 86.921,55.887 87.070 C 55.627 87.230,55.558 87.086,55.708 86.695 C 55.843 86.345,55.704 85.852,55.400 85.600 C 55.096 85.348,54.949 84.878,55.072 84.556 C 55.196 84.234,54.983 83.624,54.600 83.200 C 54.217 82.776,54.004 82.166,54.128 81.844 C 54.251 81.522,54.085 81.036,53.758 80.765 C 53.431 80.494,53.254 80.035,53.365 79.746 C 53.476 79.458,53.349 79.081,53.083 78.911 C 52.742 78.691,52.600 76.897,52.600 72.806 C 52.600 67.466,52.541 67.001,51.853 66.867 C 51.337 66.768,51.201 66.878,51.414 67.223 C 51.586 67.501,51.560 67.623,51.357 67.497 C 50.655 67.063,46.158 66.757,46.800 67.186 M325.491 72.700 C 325.405 73.525,325.334 72.850,325.334 71.200 C 325.334 69.550,325.405 68.875,325.491 69.700 C 325.578 70.525,325.578 71.875,325.491 72.700 M135.840 165.840 C 135.708 166.184,135.600 174.274,135.600 183.817 L 135.600 201.168 152.900 201.176 C 167.561 201.182,170.318 201.093,170.976 200.592 C 171.404 200.266,171.539 200.000,171.276 200.000 C 170.915 200.000,170.800 195.940,170.800 183.243 C 170.800 168.331,170.730 166.459,170.167 166.243 C 169.819 166.109,162.337 166.000,153.541 166.000 C 143.842 166.000,137.259 165.845,136.814 165.607 C 136.262 165.312,136.020 165.370,135.840 165.840 M313.600 165.612 C 313.600 165.889,308.108 166.016,296.900 166.000 C 287.715 165.986,279.980 165.981,279.712 165.988 C 279.334 165.997,279.244 169.954,279.312 183.500 L 279.400 201.000 297.083 201.088 C 312.506 201.165,314.737 201.102,314.540 200.588 C 314.416 200.265,314.514 200.000,314.757 200.000 C 315.075 200.000,315.191 195.154,315.168 182.900 C 315.151 173.495,315.046 166.026,314.934 166.302 C 314.823 166.579,314.575 166.708,314.383 166.590 C 314.192 166.471,314.136 166.110,314.260 165.787 C 314.384 165.464,314.286 165.200,314.043 165.200 C 313.799 165.200,313.600 165.385,313.600 165.612 M207.712 183.400 L 207.800 201.000 225.476 201.111 L 243.152 201.222 243.187 183.837 L 243.223 166.452 241.511 166.218 C 240.570 166.089,232.560 165.942,223.712 165.892 L 207.623 165.800 207.712 183.400 M63.719 247.900 L 63.800 265.800 81.524 265.800 L 99.248 265.800 99.226 248.000 L 99.204 230.200 82.348 230.096 C 70.238 230.021,65.339 230.119,64.946 230.445 C 64.545 230.778,64.400 230.779,64.400 230.449 C 64.400 230.202,64.229 230.000,64.019 230.000 C 63.783 230.000,63.669 236.785,63.719 247.900 M135.712 247.893 L 135.800 265.800 153.614 265.881 C 171.043 265.960,171.429 265.944,171.429 265.181 C 171.429 264.751,171.287 264.400,171.114 264.400 C 170.941 264.400,170.800 256.919,170.800 247.776 C 170.800 235.313,170.916 231.224,171.262 231.438 C 171.550 231.616,171.615 231.548,171.434 231.255 C 171.275 230.998,170.977 230.891,170.772 231.017 C 170.568 231.144,170.400 231.070,170.400 230.853 C 170.400 230.636,170.715 230.380,171.100 230.283 C 171.485 230.187,163.660 230.081,153.712 230.047 L 135.623 229.986 135.712 247.893 M207.867 230.267 C 207.720 230.413,207.600 238.515,207.600 248.271 L 207.600 266.008 225.300 265.904 L 243.000 265.800 243.088 248.144 L 243.177 230.487 242.288 230.249 C 241.060 229.920,208.197 229.937,207.867 230.267 M279.229 242.592 C 279.214 254.983,279.227 255.187,280.055 255.630 C 280.652 255.949,280.817 255.952,280.625 255.640 C 280.472 255.393,280.621 255.200,280.964 255.200 C 281.323 255.200,281.486 254.969,281.360 254.640 C 281.124 254.024,281.773 253.489,282.990 253.300 C 283.424 253.233,284.244 252.733,284.812 252.189 C 285.379 251.645,286.067 251.200,286.339 251.200 C 286.612 251.200,286.783 250.975,286.720 250.700 C 286.657 250.425,286.784 250.200,287.003 250.200 C 287.221 250.200,287.345 250.365,287.277 250.568 C 287.210 250.770,287.407 250.727,287.714 250.471 C 288.022 250.216,288.392 250.125,288.537 250.270 C 288.682 250.415,288.800 250.323,288.800 250.067 C 288.800 249.810,289.076 249.600,289.413 249.600 C 289.749 249.600,290.133 249.320,290.264 248.977 C 290.396 248.634,290.759 248.452,291.072 248.572 C 291.388 248.693,291.533 248.614,291.397 248.395 C 291.263 248.178,291.411 248.000,291.727 248.000 C 292.043 248.000,292.517 247.742,292.779 247.426 C 293.041 247.110,293.759 246.741,294.374 246.606 C 294.989 246.471,295.876 246.002,296.346 245.565 C 296.816 245.127,297.200 244.956,297.200 245.184 C 297.200 245.413,297.380 245.600,297.600 245.600 C 297.820 245.600,298.000 245.311,298.000 244.957 C 298.000 244.556,298.221 244.399,298.587 244.540 C 298.910 244.664,299.266 244.618,299.377 244.437 C 299.488 244.257,300.394 243.882,301.390 243.603 C 302.385 243.324,303.200 242.939,303.200 242.748 C 303.200 242.557,303.335 242.440,303.500 242.490 C 304.026 242.647,307.600 241.509,307.600 241.183 C 307.600 241.011,308.054 240.920,308.610 240.981 C 309.165 241.042,309.721 240.928,309.845 240.727 C 309.972 240.522,310.354 240.590,310.712 240.881 C 311.249 241.315,311.297 241.307,311.011 240.832 C 310.754 240.406,310.835 240.328,311.334 240.519 C 311.700 240.660,312.000 240.590,312.000 240.364 C 312.000 240.138,312.162 240.053,312.359 240.175 C 312.556 240.297,313.291 240.282,313.991 240.142 C 314.888 239.962,315.107 239.787,314.732 239.550 C 314.440 239.364,314.380 239.209,314.600 239.205 C 314.843 239.201,315.000 237.402,315.000 234.622 L 315.000 230.046 297.122 230.025 L 279.245 230.004 279.229 242.592 M89.900 230.700 C 85.335 230.764,77.865 230.764,73.300 230.700 C 68.735 230.635,72.470 230.583,81.600 230.583 C 90.730 230.583,94.465 230.635,89.900 230.700 M161.900 230.700 C 157.335 230.764,149.865 230.764,145.300 230.700 C 140.735 230.635,144.470 230.583,153.600 230.583 C 162.730 230.583,166.465 230.635,161.900 230.700 M233.927 230.699 C 229.377 230.764,221.817 230.764,217.127 230.700 C 212.437 230.636,216.160 230.583,225.400 230.583 C 234.640 230.583,238.477 230.635,233.927 230.699 M305.500 230.700 C 300.935 230.764,293.465 230.764,288.900 230.700 C 284.335 230.635,288.070 230.583,297.200 230.583 C 306.330 230.583,310.065 230.635,305.500 230.700 M322.200 251.460 C 319.849 251.645,315.316 252.432,312.800 253.092 C 307.234 254.552,307.351 254.514,303.400 256.202 C 265.116 272.564,251.313 318.682,274.394 353.120 C 279.001 359.994,280.046 360.727,282.187 358.587 C 282.964 357.809,283.600 357.269,283.600 357.387 C 283.600 357.609,284.311 357.039,286.255 355.261 C 286.885 354.685,287.548 354.260,287.730 354.316 C 287.911 354.373,287.952 354.246,287.821 354.034 C 287.690 353.823,287.844 353.503,288.163 353.325 C 289.023 352.843,289.063 352.608,288.400 351.913 C 288.070 351.567,287.350 350.711,286.800 350.011 C 286.250 349.312,285.489 348.370,285.108 347.918 C 284.728 347.466,284.531 346.912,284.670 346.687 C 284.816 346.451,284.727 346.398,284.462 346.562 C 284.188 346.731,284.000 346.593,284.000 346.224 C 284.000 345.881,283.820 345.600,283.600 345.600 C 283.380 345.600,283.200 345.229,283.200 344.776 C 283.200 344.323,283.020 344.064,282.800 344.200 C 282.580 344.336,282.400 344.066,282.400 343.600 C 282.400 343.134,282.258 342.840,282.085 342.948 C 281.912 343.055,281.521 342.570,281.217 341.871 C 280.913 341.172,280.560 340.510,280.432 340.400 C 279.971 340.003,279.151 338.322,279.533 338.559 C 279.749 338.692,279.717 338.352,279.463 337.804 C 279.208 337.255,278.865 336.805,278.700 336.803 C 278.535 336.801,278.400 336.350,278.400 335.800 C 278.400 335.250,278.220 334.800,278.000 334.800 C 277.780 334.800,277.600 334.361,277.600 333.824 C 277.600 333.287,277.440 332.748,277.244 332.627 C 277.049 332.506,276.787 331.821,276.663 331.104 C 276.539 330.387,276.327 329.170,276.192 328.400 C 276.056 327.630,275.791 326.640,275.602 326.200 C 275.180 325.219,274.630 318.997,274.699 316.000 C 274.802 311.580,275.291 306.800,275.641 306.800 C 275.838 306.800,276.000 305.900,276.000 304.800 C 276.000 303.700,276.180 302.800,276.400 302.800 C 276.620 302.800,276.800 302.361,276.800 301.824 C 276.800 301.287,276.980 300.736,277.200 300.600 C 277.420 300.464,277.600 299.924,277.600 299.400 C 277.600 298.876,277.780 298.336,278.000 298.200 C 278.220 298.064,278.400 297.603,278.400 297.176 C 278.400 296.749,278.580 296.400,278.800 296.400 C 279.020 296.400,279.200 296.040,279.200 295.600 C 279.200 295.160,279.380 294.800,279.600 294.800 C 279.820 294.800,280.000 294.451,280.000 294.024 C 280.000 293.597,280.180 293.136,280.400 293.000 C 280.620 292.864,280.800 292.486,280.800 292.160 C 280.800 291.553,282.360 289.107,282.900 288.867 C 283.065 288.793,283.200 288.478,283.200 288.167 C 283.200 287.855,283.380 287.600,283.600 287.600 C 283.820 287.600,284.000 287.358,284.000 287.062 C 284.000 286.766,284.360 286.198,284.800 285.800 C 285.240 285.402,285.600 284.834,285.600 284.538 C 285.600 284.242,285.768 284.000,285.973 284.000 C 286.178 284.000,286.460 283.640,286.600 283.200 C 286.740 282.760,287.112 282.400,287.427 282.400 C 287.742 282.400,287.955 282.265,287.900 282.100 C 287.845 281.935,288.160 281.422,288.600 280.960 C 289.040 280.499,290.210 279.198,291.200 278.069 C 292.190 276.941,293.145 276.013,293.322 276.009 C 293.499 276.004,294.219 275.461,294.922 274.802 C 295.625 274.143,296.425 273.603,296.700 273.602 C 296.975 273.601,297.200 273.390,297.200 273.133 C 297.200 272.877,297.301 272.768,297.424 272.891 C 297.548 273.014,298.089 272.675,298.628 272.136 C 299.166 271.598,299.770 271.258,299.969 271.381 C 300.169 271.504,300.392 271.469,300.466 271.302 C 300.715 270.740,303.163 269.200,303.807 269.200 C 304.159 269.200,304.336 269.020,304.200 268.800 C 304.060 268.573,304.396 268.400,304.976 268.400 C 305.539 268.400,306.000 268.220,306.000 268.000 C 306.000 267.780,306.371 267.600,306.824 267.600 C 307.277 267.600,307.536 267.420,307.400 267.200 C 307.262 266.977,307.569 266.800,308.096 266.800 C 308.615 266.800,309.219 266.621,309.438 266.402 C 309.656 266.184,310.309 265.965,310.889 265.917 C 311.468 265.870,311.855 265.688,311.748 265.515 C 311.578 265.240,313.198 265.001,314.130 265.163 C 314.311 265.194,314.345 265.035,314.206 264.810 C 313.994 264.466,316.074 264.159,317.300 264.353 C 317.465 264.379,317.600 264.220,317.600 264.000 C 317.600 263.780,318.590 263.600,319.800 263.600 C 321.010 263.600,322.000 263.420,322.000 263.200 C 322.000 262.963,323.467 262.800,325.600 262.800 L 329.200 262.800 329.200 257.243 C 329.200 250.562,329.584 250.880,322.200 251.460 M63.621 312.800 L 63.632 330.800 80.993 330.800 C 93.251 330.800,98.433 330.670,98.626 330.357 C 98.817 330.048,99.008 330.079,99.259 330.457 C 99.494 330.814,99.549 330.589,99.417 329.800 C 99.167 328.305,99.099 295.686,99.345 295.289 C 99.506 295.029,86.038 295.035,70.337 295.301 C 67.113 295.355,64.559 295.265,64.661 295.100 C 64.763 294.935,64.569 294.800,64.228 294.800 C 63.679 294.800,63.611 296.820,63.621 312.800 M135.953 295.688 C 135.744 296.079,135.595 303.814,135.608 313.588 L 135.632 330.800 152.940 330.800 C 168.091 330.800,170.344 330.722,171.024 330.170 C 171.451 329.824,171.575 329.655,171.300 329.794 C 170.904 329.995,170.800 326.506,170.800 313.000 C 170.800 300.461,170.919 296.026,171.251 296.231 C 171.566 296.426,171.590 296.311,171.330 295.846 C 170.747 294.805,136.507 294.652,135.953 295.688 M207.887 295.500 C 208.105 296.080,208.048 296.117,207.552 295.715 C 207.042 295.301,206.942 295.476,206.871 296.915 C 206.809 298.153,206.893 298.441,207.187 298.000 C 207.801 297.081,207.736 298.594,207.119 299.581 C 206.744 300.182,206.746 300.554,207.129 301.275 C 207.484 301.946,207.644 306.108,207.710 316.400 L 207.800 330.600 225.100 330.604 C 240.248 330.607,242.403 330.532,242.428 330.004 C 242.447 329.602,242.566 329.668,242.784 330.200 C 242.979 330.675,243.075 329.374,243.019 327.000 C 242.968 324.800,242.777 322.655,242.595 322.234 C 242.378 321.733,242.408 321.557,242.679 321.726 C 242.947 321.891,243.102 321.199,243.115 319.788 C 243.126 318.558,242.974 317.693,242.768 317.820 C 242.565 317.945,242.579 317.581,242.801 316.997 C 243.021 316.420,243.187 315.375,243.172 314.674 C 243.150 313.668,243.080 313.563,242.841 314.173 C 242.652 314.656,242.436 314.782,242.268 314.510 C 241.902 313.918,242.386 312.744,242.871 313.044 C 243.085 313.176,243.032 312.919,242.754 312.474 C 242.347 311.824,242.347 311.546,242.752 311.058 C 243.123 310.611,243.143 310.241,242.828 309.652 C 242.289 308.645,242.272 307.200,242.800 307.200 C 243.020 307.200,243.200 306.930,243.200 306.600 C 243.200 306.270,243.065 306.000,242.900 306.000 C 242.735 306.000,242.574 305.550,242.542 305.000 C 242.511 304.450,242.646 304.000,242.842 304.000 C 243.039 304.000,243.200 303.809,243.200 303.576 C 243.200 303.343,243.021 303.263,242.803 303.398 C 242.572 303.541,242.441 303.214,242.490 302.622 C 242.536 302.060,242.715 301.600,242.887 301.600 C 243.059 301.600,243.179 301.015,243.153 300.300 L 243.105 299.000 242.800 300.200 C 242.496 301.394,242.494 301.393,242.447 299.900 C 242.421 299.075,242.580 298.400,242.800 298.400 C 243.020 298.400,243.187 297.995,243.172 297.500 C 243.145 296.635,243.129 296.631,242.766 297.400 C 242.443 298.085,242.410 298.042,242.539 297.100 C 242.622 296.495,242.540 296.000,242.357 296.000 C 242.174 296.000,242.114 295.769,242.222 295.487 C 242.379 295.077,239.589 294.968,228.218 294.941 C 217.867 294.915,214.086 295.027,214.268 295.353 C 214.405 295.599,214.275 295.575,213.979 295.300 C 213.055 294.442,207.559 294.623,207.887 295.500 " stroke="none" fill="#f48c6c" fill-rule="evenodd"></path><path id="path3" d="M49.200 66.955 C 49.200 67.040,49.730 67.187,50.379 67.282 C 51.027 67.377,51.467 67.308,51.355 67.128 C 51.157 66.807,49.200 66.650,49.200 66.955 M133.200 67.195 C 149.590 67.308,163.270 67.548,163.600 67.730 C 163.930 67.911,163.851 67.776,163.424 67.430 C 162.730 66.867,159.472 66.810,133.024 66.895 L 103.400 66.990 133.200 67.195 M213.600 67.100 C 213.600 67.372,235.268 67.369,263.400 67.093 C 269.340 67.034,260.565 66.945,243.900 66.893 C 227.235 66.842,213.600 66.935,213.600 67.100 M325.093 70.242 C 325.356 74.643,325.690 75.283,325.569 71.154 C 325.465 67.576,325.690 67.064,327.265 67.295 C 327.909 67.389,328.507 67.351,328.594 67.210 C 328.681 67.069,328.043 66.912,327.176 66.861 C 326.110 66.798,325.598 66.935,325.594 67.284 C 325.589 67.675,325.502 67.665,325.235 67.242 C 325.023 66.909,324.967 68.116,325.093 70.242 M102.140 71.600 C 102.140 73.470,102.209 74.235,102.293 73.300 C 102.377 72.365,102.377 70.835,102.293 69.900 C 102.209 68.965,102.140 69.730,102.140 71.600 M164.144 72.000 C 164.144 74.090,164.212 74.945,164.294 73.900 C 164.376 72.855,164.376 71.145,164.294 70.100 C 164.212 69.055,164.144 69.910,164.144 72.000 M37.002 70.798 C 36.603 71.239,36.462 71.600,36.689 71.600 C 37.192 71.600,38.190 70.457,37.921 70.188 C 37.815 70.082,37.402 70.356,37.002 70.798 M345.443 76.967 C 345.576 77.315,345.861 77.600,346.076 77.600 C 346.602 77.600,346.273 76.691,345.675 76.492 C 345.382 76.394,345.293 76.577,345.443 76.967 M52.571 77.990 C 52.571 78.425,52.823 78.877,53.130 78.995 C 53.514 79.142,53.612 79.009,53.445 78.572 C 53.310 78.221,53.200 77.769,53.200 77.567 C 53.200 77.365,53.059 77.200,52.886 77.200 C 52.713 77.200,52.571 77.556,52.571 77.990 M55.600 86.695 C 55.600 87.295,56.773 88.655,56.787 88.071 C 56.794 87.781,56.530 87.273,56.200 86.943 C 55.870 86.613,55.600 86.501,55.600 86.695 M97.596 89.008 C 97.164 89.815,97.156 90.114,97.557 90.508 C 97.832 90.779,98.023 90.820,97.981 90.600 C 97.939 90.380,97.940 90.110,97.982 90.000 C 98.606 88.383,98.321 87.653,97.596 89.008 M208.300 90.157 C 207.569 90.712,207.384 91.200,207.904 91.200 C 208.071 91.200,208.432 90.840,208.707 90.400 C 209.289 89.468,209.244 89.440,208.300 90.157 M96.400 91.157 C 96.400 91.427,96.239 91.548,96.042 91.426 C 95.845 91.304,95.575 91.488,95.442 91.835 C 94.955 93.105,95.221 93.281,96.046 92.233 C 96.511 91.642,96.781 91.047,96.646 90.912 C 96.511 90.777,96.400 90.887,96.400 91.157 M59.060 91.811 C 59.270 92.359,60.418 93.200,60.956 93.200 C 61.070 93.200,60.714 92.750,60.164 92.200 C 59.012 91.049,58.729 90.949,59.060 91.811 M316.370 93.055 C 315.836 93.635,315.655 94.030,315.966 93.933 C 316.493 93.768,317.913 92.000,317.519 92.000 C 317.420 92.000,316.903 92.475,316.370 93.055 M93.000 94.000 C 92.368 94.660,91.968 95.200,92.111 95.200 C 92.255 95.200,92.925 94.660,93.600 94.000 C 94.275 93.340,94.675 92.800,94.489 92.800 C 94.302 92.800,93.632 93.340,93.000 94.000 M204.500 93.784 C 204.005 94.279,203.600 94.814,203.600 94.973 C 203.600 95.346,205.949 93.496,205.978 93.100 C 206.016 92.581,205.433 92.851,204.500 93.784 M174.400 95.600 C 174.730 95.813,175.270 95.988,175.600 95.988 C 176.133 95.988,176.133 95.945,175.600 95.600 C 175.270 95.387,174.730 95.212,174.400 95.212 C 173.867 95.212,173.867 95.255,174.400 95.600 M201.280 96.080 C 200.478 96.882,200.741 97.210,201.800 96.727 C 202.350 96.477,202.800 96.120,202.800 95.936 C 202.800 95.437,201.831 95.529,201.280 96.080 M312.667 95.867 C 312.284 96.249,312.338 96.800,312.757 96.800 C 312.954 96.800,313.218 96.530,313.345 96.200 C 313.579 95.590,313.153 95.381,312.667 95.867 M307.741 98.275 C 308.140 98.673,309.601 98.725,309.358 98.332 C 309.245 98.149,308.773 98.000,308.310 98.000 C 307.846 98.000,307.590 98.124,307.741 98.275 M73.698 99.831 C 74.086 100.219,76.000 100.313,76.000 99.945 C 76.000 99.755,75.430 99.600,74.733 99.600 C 74.037 99.600,73.571 99.704,73.698 99.831 M77.200 100.000 C 77.976 100.501,78.400 100.501,78.400 100.000 C 78.400 99.780,77.995 99.603,77.500 99.606 C 76.772 99.611,76.715 99.686,77.200 100.000 M28.400 118.600 C 28.400 118.930,28.692 119.200,29.049 119.200 C 29.580 119.200,29.608 119.091,29.200 118.600 C 28.926 118.270,28.634 118.000,28.551 118.000 C 28.468 118.000,28.400 118.270,28.400 118.600 M136.800 165.595 C 137.167 165.835,143.652 165.990,153.467 165.994 C 162.304 165.997,169.819 166.109,170.167 166.243 C 170.730 166.459,170.800 168.331,170.800 183.243 C 170.800 194.381,170.937 200.000,171.209 200.000 C 171.575 200.000,171.558 167.143,171.191 165.716 C 171.096 165.347,166.928 165.229,153.633 165.218 C 142.104 165.208,136.403 165.336,136.800 165.595 M208.028 165.590 C 208.914 166.111,243.240 166.317,243.067 165.800 C 242.981 165.543,236.575 165.368,225.167 165.310 C 214.138 165.254,207.638 165.360,208.028 165.590 M279.200 165.576 C 279.200 165.805,285.949 165.966,296.400 165.987 C 307.930 166.011,313.600 165.887,313.600 165.611 C 313.600 165.336,307.907 165.200,296.400 165.200 C 285.925 165.200,279.200 165.347,279.200 165.576 M64.400 230.483 C 64.400 230.639,72.005 230.737,81.300 230.701 C 90.595 230.665,96.130 230.584,93.600 230.521 C 82.679 230.247,64.399 230.223,64.400 230.483 M153.600 230.411 L 137.000 230.622 153.696 230.611 C 167.238 230.602,170.430 230.701,170.596 231.133 C 170.708 231.426,170.800 239.031,170.800 248.033 C 170.800 258.880,170.937 264.400,171.208 264.400 C 172.017 264.400,171.695 230.511,170.884 230.342 C 170.508 230.264,162.730 230.295,153.600 230.411 M225.400 230.400 L 208.600 230.613 225.276 230.707 C 236.064 230.767,242.040 230.659,242.200 230.400 C 242.336 230.180,242.392 230.042,242.324 230.093 C 242.256 230.145,234.640 230.283,225.400 230.400 M297.200 230.400 L 280.600 230.613 297.000 230.679 C 306.020 230.714,313.760 230.589,314.200 230.400 C 314.640 230.211,314.730 230.086,314.400 230.121 C 314.070 230.157,306.330 230.283,297.200 230.400 M99.383 247.600 C 99.383 256.950,99.436 260.775,99.500 256.100 C 99.564 251.425,99.564 243.775,99.500 239.100 C 99.436 234.425,99.383 238.250,99.383 247.600 M314.390 231.387 C 314.597 231.637,314.830 233.362,314.908 235.221 L 315.050 238.600 315.077 234.767 C 315.098 231.783,314.983 230.933,314.558 230.933 C 314.197 230.933,314.140 231.086,314.390 231.387 M307.600 241.285 C 307.600 241.727,308.704 241.679,308.985 241.224 C 309.113 241.018,308.853 240.876,308.409 240.909 C 307.964 240.943,307.600 241.112,307.600 241.285 M286.654 249.913 C 286.543 250.092,286.596 250.470,286.771 250.753 C 287.019 251.154,287.141 251.131,287.327 250.646 C 287.579 249.990,286.998 249.357,286.654 249.913 M281.520 253.897 C 280.833 254.724,281.297 254.754,282.577 253.964 C 283.634 253.312,283.662 253.245,282.854 253.306 C 282.359 253.343,281.759 253.609,281.520 253.897 M64.661 295.100 C 64.492 295.373,76.889 295.367,92.200 295.087 C 95.500 295.027,90.696 294.938,81.524 294.889 C 72.352 294.840,64.764 294.935,64.661 295.100 M98.773 295.058 C 99.022 295.183,99.176 301.483,99.191 312.103 C 99.205 321.368,99.304 329.038,99.412 329.146 C 99.520 329.254,99.562 321.630,99.504 312.204 C 99.422 298.702,99.292 295.045,98.890 294.963 C 98.609 294.906,98.557 294.949,98.773 295.058 M145.100 295.100 C 149.775 295.164,157.425 295.164,162.100 295.100 C 166.775 295.036,162.950 294.983,153.600 294.983 C 144.250 294.983,140.425 295.036,145.100 295.100 M226.917 295.097 C 228.411 295.174,230.751 295.174,232.117 295.096 C 233.482 295.018,232.260 294.955,229.400 294.955 C 226.540 294.956,225.422 295.020,226.917 295.097 M170.892 313.112 C 170.951 322.620,170.861 330.477,170.690 330.570 C 170.519 330.664,170.610 330.694,170.890 330.637 C 171.559 330.501,171.865 296.905,171.203 296.243 C 170.910 295.950,170.816 301.031,170.892 313.112 M207.088 298.133 C 206.642 299.266,206.715 299.845,207.238 299.322 C 207.478 299.082,207.608 298.551,207.526 298.142 C 207.382 297.426,207.366 297.426,207.088 298.133 M242.400 299.867 C 242.400 301.581,242.586 301.523,242.933 299.700 C 243.075 298.953,243.014 298.400,242.790 298.400 C 242.576 298.400,242.400 299.060,242.400 299.867 M242.490 302.622 C 242.441 303.214,242.572 303.541,242.803 303.398 C 243.271 303.109,243.342 301.600,242.887 301.600 C 242.715 301.600,242.536 302.060,242.490 302.622 M242.542 305.000 C 242.618 306.303,243.200 306.303,243.200 305.000 C 243.200 304.450,243.039 304.000,242.842 304.000 C 242.646 304.000,242.511 304.450,242.542 305.000 M242.406 308.100 C 242.409 308.595,242.587 309.270,242.800 309.600 C 243.088 310.046,243.189 309.816,243.194 308.700 C 243.197 307.875,243.020 307.200,242.800 307.200 C 242.580 307.200,242.403 307.605,242.406 308.100 M242.538 311.417 C 242.408 311.757,242.407 312.140,242.537 312.270 C 242.666 312.399,242.582 312.861,242.349 313.296 C 242.049 313.856,242.053 314.213,242.363 314.523 C 242.603 314.763,242.809 314.789,242.820 314.580 C 242.832 314.371,242.938 313.435,243.058 312.500 C 243.273 310.814,242.993 310.231,242.538 311.417 M237.491 330.689 C 238.201 330.777,239.461 330.779,240.291 330.692 C 241.121 330.605,240.540 330.533,239.000 330.531 C 237.460 330.529,236.781 330.600,237.491 330.689 " stroke="none" fill="#f48c74" fill-rule="evenodd"></path><path id="path4" d="M74.000 27.590 C 73.670 27.779,72.718 28.230,71.884 28.593 C 68.746 29.958,66.321 32.968,65.259 36.815 C 64.891 38.147,64.795 43.625,64.883 58.400 L 65.000 78.200 66.039 80.400 C 70.609 90.079,84.132 90.218,88.754 80.633 L 90.000 78.050 90.000 57.249 C 90.000 43.813,89.858 36.360,89.600 36.200 C 89.380 36.064,89.196 35.648,89.190 35.276 C 89.125 30.833,78.092 25.250,74.000 27.590 M185.200 27.681 C 184.650 27.916,183.630 28.355,182.934 28.657 C 181.077 29.461,178.323 32.311,177.190 34.600 L 176.200 36.600 176.200 57.400 L 176.200 78.200 177.294 80.427 C 182.901 91.844,199.002 89.400,201.194 76.799 C 202.011 72.105,201.564 38.276,200.653 35.800 C 198.329 29.487,190.545 25.397,185.200 27.681 M296.400 27.681 C 295.850 27.916,294.799 28.370,294.065 28.690 C 292.153 29.522,289.645 32.246,288.439 34.800 L 287.400 37.000 287.276 56.600 C 287.191 70.069,287.291 76.701,287.596 77.800 C 291.302 91.186,309.252 90.985,312.366 77.523 C 313.068 74.489,312.943 39.571,312.220 36.857 C 310.384 29.957,302.193 25.206,296.400 27.681 M82.245 28.777 C 85.542 30.232,87.946 32.982,89.084 36.600 C 90.045 39.652,89.796 76.647,88.797 79.317 C 85.031 89.382,71.142 89.934,66.551 80.200 L 65.608 78.200 65.604 57.519 C 65.601 42.247,65.726 36.545,66.083 35.719 C 68.984 28.993,75.953 26.000,82.245 28.777 M193.677 28.905 C 196.232 30.091,198.560 32.356,199.735 34.800 C 201.061 37.559,201.296 75.846,200.007 79.289 C 196.184 89.509,181.879 89.863,177.613 79.843 C 176.412 77.022,176.511 37.182,177.726 34.742 C 179.339 31.500,181.821 29.439,185.800 28.037 C 187.625 27.394,191.291 27.798,193.677 28.905 M304.877 28.895 C 307.443 30.074,309.486 32.046,310.813 34.625 L 311.800 36.544 311.800 57.600 L 311.800 78.656 310.818 80.564 C 305.418 91.064,290.379 88.633,288.025 76.880 C 287.383 73.676,287.484 40.871,288.145 37.800 C 289.897 29.664,297.611 25.558,304.877 28.895 M1.091 243.489 C 1.801 243.577,3.061 243.579,3.891 243.492 C 4.721 243.405,4.140 243.333,2.600 243.331 C 1.060 243.329,0.381 243.400,1.091 243.489 M321.200 251.196 C 320.041 251.373,321.131 251.459,324.258 251.436 C 326.930 251.416,329.035 251.265,328.935 251.100 C 328.718 250.743,323.752 250.805,321.200 251.196 M315.800 252.000 L 314.600 252.305 315.800 252.313 C 316.460 252.317,317.450 252.176,318.000 252.000 L 319.000 251.680 318.000 251.687 C 317.450 251.691,316.460 251.832,315.800 252.000 M312.400 252.800 C 311.596 253.057,311.557 253.123,312.200 253.132 C 312.640 253.138,313.360 252.989,313.800 252.800 C 314.819 252.362,313.768 252.362,312.400 252.800 M309.400 253.600 L 308.600 253.944 309.400 253.966 C 309.840 253.978,310.470 253.813,310.800 253.600 C 311.595 253.086,310.596 253.086,309.400 253.600 M304.800 255.175 C 303.282 255.639,296.029 259.230,295.773 259.643 C 295.650 259.843,296.775 259.383,298.274 258.622 C 302.324 256.566,304.490 255.600,305.052 255.600 C 305.327 255.600,305.664 255.420,305.800 255.200 C 305.936 254.980,305.992 254.815,305.924 254.834 C 305.856 254.853,305.350 255.006,304.800 255.175 M292.170 261.723 C 285.184 266.544,277.318 274.347,274.250 279.500 C 273.374 280.973,274.582 279.647,276.254 277.300 C 279.882 272.211,288.482 264.285,293.745 261.179 C 294.545 260.707,295.200 260.249,295.200 260.160 C 295.200 259.766,294.433 260.162,292.170 261.723 M272.677 281.900 C 271.293 284.125,271.032 284.721,271.923 283.626 C 272.945 282.369,274.108 280.400,273.828 280.400 C 273.708 280.400,273.190 281.075,272.677 281.900 M269.825 286.825 C 269.218 287.941,268.808 288.941,268.914 289.048 C 269.021 289.154,269.577 288.300,270.150 287.150 C 270.723 286.000,271.133 285.000,271.061 284.927 C 270.988 284.855,270.432 285.709,269.825 286.825 M267.850 291.191 C 266.947 293.447,267.087 293.783,268.037 291.642 C 268.466 290.675,268.745 289.812,268.658 289.725 C 268.571 289.638,268.208 290.298,267.850 291.191 M265.800 296.400 C 265.650 296.873,265.617 297.350,265.727 297.460 C 265.837 297.570,266.050 297.273,266.200 296.800 C 266.350 296.327,266.383 295.850,266.273 295.740 C 266.163 295.630,265.950 295.927,265.800 296.400 M265.073 298.953 C 264.923 299.345,264.811 299.966,264.825 300.333 C 264.842 300.775,264.981 300.674,265.237 300.034 C 265.449 299.503,265.561 298.882,265.485 298.654 C 265.409 298.427,265.224 298.561,265.073 298.953 M264.249 302.215 C 264.112 302.573,264.016 303.256,264.036 303.733 C 264.062 304.347,264.185 304.208,264.459 303.256 C 264.857 301.872,264.694 301.058,264.249 302.215 M263.456 306.484 C 263.321 306.988,263.230 308.030,263.252 308.800 C 263.286 309.934,263.362 309.789,263.652 308.039 C 264.020 305.825,263.896 304.843,263.456 306.484 M262.948 316.400 C 262.948 318.710,263.014 319.655,263.095 318.500 C 263.176 317.345,263.176 315.455,263.095 314.300 C 263.014 313.145,262.948 314.090,262.948 316.400 M263.286 324.200 C 263.283 325.080,263.424 326.250,263.600 326.800 L 263.920 327.800 263.937 326.800 C 263.946 326.250,263.805 325.080,263.623 324.200 L 263.292 322.600 263.286 324.200 M264.068 329.200 C 264.062 329.750,264.211 330.560,264.400 331.000 L 264.744 331.800 264.732 331.000 C 264.726 330.560,264.576 329.750,264.400 329.200 L 264.080 328.200 264.068 329.200 M264.812 332.800 C 264.812 333.130,264.987 333.670,265.200 334.000 C 265.545 334.533,265.588 334.533,265.588 334.000 C 265.588 333.670,265.413 333.130,265.200 332.800 C 264.855 332.267,264.812 332.267,264.812 332.800 M265.612 335.600 C 265.612 335.930,265.787 336.470,266.000 336.800 C 266.345 337.333,266.388 337.333,266.388 336.800 C 266.388 336.470,266.213 335.930,266.000 335.600 C 265.655 335.067,265.612 335.067,265.612 335.600 M266.412 338.000 C 266.412 338.330,266.587 338.870,266.800 339.200 C 267.145 339.733,267.188 339.733,267.188 339.200 C 267.188 338.870,267.013 338.330,266.800 338.000 C 266.455 337.467,266.412 337.467,266.412 338.000 M268.000 342.265 C 268.000 343.728,276.824 358.000,277.728 358.000 C 277.860 358.000,277.086 356.834,276.007 355.409 C 273.738 352.411,271.246 348.243,269.528 344.571 C 268.423 342.210,268.000 341.572,268.000 342.265 M50.700 387.889 C 51.415 387.978,52.585 387.978,53.300 387.889 C 54.015 387.801,53.430 387.728,52.000 387.728 C 50.570 387.728,49.985 387.801,50.700 387.889 " stroke="none" fill="#909498" fill-rule="evenodd"></path></g></svg>