<svg id="svg" version="1.1" xmlns="http://www.w3.org/2000/svg" xmlns:xlink="http://www.w3.org/1999/xlink" width="400" height="363.45840130505707" viewBox="0, 0, 400,363.45840130505707"><g id="svgg"><path id="path0" d="M140.000 21.419 C 139.700 21.576,138.668 22.084,137.707 22.549 C 136.746 23.014,135.781 23.736,135.562 24.152 C 135.343 24.568,134.984 25.026,134.764 25.168 C 133.975 25.680,134.008 66.105,134.798 67.625 C 135.598 69.162,137.414 70.884,138.251 70.898 C 138.589 70.904,138.967 71.073,139.091 71.273 C 139.218 71.478,140.991 71.636,143.166 71.636 L 147.017 71.636 145.790 70.810 C 142.261 68.432,142.186 67.924,142.184 46.467 C 142.181 24.483,142.300 23.830,146.688 21.665 C 147.780 21.126,147.694 21.108,144.182 21.121 C 142.182 21.128,140.300 21.262,140.000 21.419 M146.247 31.211 C 145.052 32.131,145.231 34.507,146.545 35.168 C 148.344 36.074,179.313 35.813,180.496 34.883 C 181.712 33.927,181.762 32.415,180.613 31.336 C 179.413 30.209,147.699 30.094,146.247 31.211 M186.053 31.437 C 183.530 33.776,185.302 35.455,190.293 35.455 C 195.368 35.455,197.299 33.688,194.795 31.336 C 193.465 30.087,187.434 30.157,186.053 31.437 M146.263 43.112 C 145.244 43.825,145.164 45.806,146.120 46.671 C 147.025 47.490,192.835 47.582,193.909 46.767 C 194.767 46.115,194.750 43.934,193.880 43.147 C 192.896 42.256,147.532 42.222,146.263 43.112 M177.364 50.812 C 178.214 50.888,179.605 50.888,180.455 50.812 C 181.305 50.735,180.609 50.673,178.909 50.673 C 177.209 50.673,176.514 50.735,177.364 50.812 M146.219 55.051 C 145.635 55.673,145.436 56.265,145.519 57.134 C 145.707 59.078,146.485 59.261,154.555 59.267 C 162.768 59.274,163.273 59.127,163.273 56.727 C 163.273 54.320,162.789 54.182,154.346 54.182 C 147.108 54.182,147.028 54.190,146.219 55.051 M168.084 57.455 C 168.084 58.155,168.159 58.441,168.251 58.091 C 168.342 57.741,168.342 57.168,168.251 56.818 C 168.159 56.468,168.084 56.755,168.084 57.455 M271.636 89.860 C 270.936 90.032,269.218 90.430,267.818 90.745 C 256.307 93.330,243.124 101.678,237.476 109.959 C 237.187 110.381,236.840 110.809,236.704 110.909 C 235.107 112.085,230.218 121.570,228.644 126.545 C 225.692 135.883,225.813 133.451,225.816 183.273 L 225.818 227.092 224.091 227.996 C 218.534 230.904,213.071 235.721,209.033 241.273 C 207.686 243.125,204.364 249.450,204.364 250.163 C 204.364 250.379,204.210 250.839,204.021 251.187 C 203.638 251.894,202.851 254.715,202.121 258.000 C 201.731 259.758,201.636 269.514,201.636 308.182 L 201.636 356.182 280.818 356.274 L 360.000 356.365 360.000 309.798 C 360.000 280.499,359.864 262.260,359.634 260.615 C 359.164 257.263,358.130 252.646,357.750 252.200 C 357.587 252.010,357.455 251.558,357.455 251.195 C 357.455 250.832,357.301 250.251,357.114 249.904 C 356.926 249.557,356.170 248.045,355.433 246.545 C 352.739 241.058,348.146 235.477,343.455 231.990 C 342.255 231.098,341.191 230.273,341.091 230.157 C 340.991 230.042,340.664 229.838,340.364 229.705 C 340.064 229.573,338.673 228.837,337.273 228.072 L 334.727 226.679 334.522 182.158 C 334.347 144.118,334.235 137.186,333.753 134.545 C 333.084 130.881,332.016 126.866,331.582 126.382 C 331.412 126.192,331.273 125.740,331.273 125.377 C 331.273 125.014,331.126 124.433,330.947 124.086 C 330.769 123.739,330.007 122.145,329.255 120.545 C 328.503 118.945,327.340 116.774,326.671 115.720 C 326.002 114.666,325.455 113.644,325.455 113.447 C 325.455 113.251,325.326 113.091,325.169 113.091 C 325.012 113.091,324.573 112.565,324.194 111.922 C 323.188 110.220,322.080 108.956,318.198 105.079 C 310.882 97.772,301.570 92.679,291.636 90.548 C 290.536 90.312,289.045 89.969,288.321 89.787 C 286.689 89.374,273.372 89.433,271.636 89.860 M96.727 91.258 C 96.427 91.460,95.703 91.628,95.118 91.631 C 90.453 91.655,83.364 96.368,81.383 100.761 L 80.793 102.068 76.306 102.292 C 66.535 102.779,59.822 107.900,57.309 116.783 C 56.717 118.877,56.381 158.806,56.951 159.375 C 57.074 159.499,57.933 159.204,58.860 158.720 C 59.787 158.237,61.609 157.631,62.909 157.375 L 65.273 156.909 65.470 149.455 C 65.670 141.890,65.790 141.159,67.391 137.818 C 69.309 133.816,75.477 129.557,79.922 129.167 C 81.832 129.000,81.855 129.010,83.647 130.850 C 85.944 133.208,88.725 135.262,91.474 136.630 C 93.455 137.616,94.469 137.991,98.727 139.307 C 99.774 139.630,106.050 139.816,121.091 139.969 C 147.403 140.237,145.455 139.428,145.455 150.089 C 145.455 157.148,145.340 156.881,148.583 157.403 C 149.790 157.598,151.385 158.098,152.127 158.515 C 152.869 158.932,153.554 159.273,153.647 159.273 C 153.976 159.273,153.816 121.317,153.483 120.208 C 153.299 119.593,152.870 118.109,152.530 116.909 C 150.148 108.500,143.309 101.144,133.879 96.847 C 132.346 96.148,130.807 95.426,130.459 95.243 C 130.112 95.059,129.508 94.909,129.117 94.909 C 128.726 94.909,128.317 94.764,128.208 94.587 C 128.098 94.410,127.557 94.178,127.004 94.072 C 126.452 93.965,125.345 93.698,124.545 93.477 C 122.853 93.010,117.939 92.074,114.545 91.572 C 111.055 91.055,97.386 90.814,96.727 91.258 M319.273 147.802 L 319.273 154.149 320.636 154.382 C 334.229 156.702,334.850 175.824,321.407 178.112 L 319.818 178.382 319.567 182.555 C 318.754 196.028,314.029 205.671,304.490 213.321 L 301.376 215.818 301.624 221.455 C 301.983 229.651,301.403 232.436,298.320 237.300 C 289.147 251.772,267.056 249.242,260.693 232.991 C 259.541 230.048,259.519 229.882,259.351 222.631 L 259.181 215.262 256.876 213.428 C 251.500 209.150,247.273 203.457,244.343 196.545 C 243.078 193.563,242.193 188.756,241.943 183.512 C 241.794 180.376,241.554 178.437,241.306 178.368 C 234.552 176.492,231.818 174.222,230.388 169.303 C 228.491 162.777,232.959 155.883,239.789 154.798 C 241.736 154.488,241.806 154.285,241.813 148.920 L 241.818 144.205 243.909 146.248 C 247.439 149.699,249.993 151.052,255.369 152.319 C 258.271 153.003,301.565 152.879,304.255 152.178 C 309.378 150.845,314.206 147.639,317.124 143.632 C 319.287 140.662,319.273 140.634,319.273 147.802 M82.681 155.970 C 81.856 156.345,81.085 156.807,80.967 156.997 C 80.850 157.187,81.525 156.946,82.468 156.462 C 83.870 155.742,84.593 155.607,86.447 155.717 C 87.693 155.791,88.511 155.724,88.265 155.568 C 87.445 155.047,84.200 155.280,82.681 155.970 M121.192 156.200 C 119.542 157.022,117.455 159.078,117.455 159.881 C 117.455 160.041,117.891 159.560,118.424 158.811 C 119.893 156.745,122.699 155.507,125.460 155.707 C 126.660 155.794,127.437 155.734,127.185 155.574 C 126.186 154.940,123.065 155.266,121.192 156.200 M91.785 158.156 C 92.503 159.042,93.091 159.974,93.091 160.226 C 93.091 160.478,93.239 160.776,93.421 160.888 C 94.252 161.402,93.222 159.476,91.924 158.089 L 90.479 156.545 91.785 158.156 M129.455 156.841 C 129.455 156.904,129.986 157.435,130.636 158.023 L 131.818 159.091 130.750 157.909 C 129.755 156.807,129.455 156.560,129.455 156.841 M78.774 159.364 C 77.998 160.593,77.701 161.818,78.179 161.818 C 78.404 161.818,78.502 161.679,78.397 161.508 C 78.292 161.338,78.510 160.602,78.882 159.872 C 79.634 158.396,79.571 158.099,78.774 159.364 M261.182 159.160 C 261.532 159.251,262.105 159.251,262.455 159.160 C 262.805 159.068,262.518 158.993,261.818 158.993 C 261.118 158.993,260.832 159.068,261.182 159.160 M298.636 159.160 C 298.986 159.251,299.559 159.251,299.909 159.160 C 300.259 159.068,299.973 158.993,299.273 158.993 C 298.573 158.993,298.286 159.068,298.636 159.160 M296.000 159.636 C 295.515 159.950,295.515 159.989,296.000 159.989 C 296.300 159.989,296.791 159.830,297.091 159.636 C 297.576 159.323,297.576 159.284,297.091 159.284 C 296.791 159.284,296.300 159.442,296.000 159.636 M266.294 160.821 C 266.856 161.271,267.630 162.047,268.014 162.547 C 268.397 163.046,268.715 163.332,268.719 163.183 C 268.733 162.731,266.128 160.000,265.685 160.002 C 265.458 160.003,265.733 160.372,266.294 160.821 M293.643 161.448 C 292.865 162.244,292.300 162.950,292.387 163.016 C 292.474 163.083,293.180 162.431,293.956 161.568 C 295.728 159.599,295.525 159.521,293.643 161.448 M303.273 160.083 C 303.273 160.137,303.954 160.836,304.786 161.636 C 305.909 162.716,306.137 162.840,305.670 162.116 C 305.156 161.320,303.272 159.722,303.273 160.083 M254.038 164.215 C 253.605 165.341,254.303 165.455,261.669 165.455 C 269.380 165.455,270.501 165.217,269.098 163.885 C 268.741 163.546,268.698 163.628,268.893 164.273 L 269.140 165.091 261.695 165.091 C 254.429 165.091,254.254 165.073,254.440 164.364 C 254.666 163.500,254.356 163.385,254.038 164.215 M291.758 164.206 C 291.325 165.335,292.223 165.471,299.476 165.372 C 306.098 165.281,306.723 165.218,306.776 164.629 C 306.817 164.179,306.784 164.152,306.664 164.538 C 306.358 165.524,291.847 165.350,292.105 164.364 C 292.330 163.503,292.073 163.387,291.758 164.206 " stroke="none" fill="#cd5358" fill-rule="evenodd"></path><path id="path1" d="M60.654 221.259 C 54.826 222.094,51.574 223.092,46.727 225.535 C 37.613 230.128,28.540 240.299,26.037 248.727 C 25.888 249.227,25.335 251.109,24.808 252.909 L 23.848 256.182 23.732 305.910 L 23.617 355.638 104.808 355.630 C 149.464 355.626,186.211 355.489,186.469 355.326 C 187.113 354.920,186.939 256.418,186.292 254.727 C 186.063 254.127,185.527 252.491,185.102 251.091 C 184.363 248.656,183.651 246.697,182.787 244.727 C 179.898 238.135,171.802 229.790,164.727 226.110 C 156.774 221.974,151.119 221.003,136.000 221.178 L 127.818 221.273 127.604 225.636 C 127.400 229.781,126.402 234.545,125.738 234.545 C 125.582 234.545,125.455 234.799,125.455 235.108 C 125.455 236.395,121.625 241.327,119.240 243.111 C 117.224 244.620,114.644 246.182,114.168 246.182 C 113.856 246.182,113.445 246.317,113.255 246.482 C 111.619 247.905,102.522 248.329,99.091 247.143 C 89.050 243.672,83.273 235.860,83.273 225.753 C 83.273 222.019,83.196 221.481,82.636 221.318 C 80.930 220.819,64.041 220.774,60.654 221.259 " stroke="none" fill="#5eb3fb" fill-rule="evenodd"></path><path id="path2" d="M0.000 181.818 L 0.000 363.636 200.000 363.636 L 400.000 363.636 400.000 181.818 L 400.000 0.000 200.000 0.000 L 0.000 0.000 0.000 181.818 M202.639 21.259 C 207.352 23.228,207.636 24.216,207.636 38.602 L 207.636 50.522 222.091 50.624 C 244.138 50.781,242.619 48.777,242.467 77.528 L 242.364 96.967 241.267 98.740 C 239.505 101.589,237.292 102.545,232.460 102.545 L 228.640 102.545 228.889 106.273 C 229.183 110.678,228.907 111.345,226.790 111.345 C 225.409 111.345,225.172 111.179,220.909 107.235 C 220.109 106.494,218.636 105.138,217.636 104.221 L 215.818 102.553 194.909 102.541 C 165.897 102.525,167.920 103.860,167.636 84.545 L 167.455 72.182 163.818 72.082 L 160.182 71.983 157.834 74.082 C 156.543 75.237,154.253 77.286,152.745 78.636 C 149.737 81.328,148.349 81.754,147.096 80.369 C 146.422 79.625,146.423 79.445,147.132 74.143 L 147.356 72.467 143.040 72.289 C 137.553 72.063,135.784 71.199,133.885 67.818 C 132.959 66.169,132.949 26.951,133.874 25.273 C 134.729 23.722,137.095 21.455,137.857 21.455 C 138.212 21.455,138.604 21.291,138.727 21.091 C 139.127 20.444,201.078 20.607,202.639 21.259 M287.455 89.100 C 288.455 89.282,290.009 89.531,290.909 89.653 C 291.809 89.776,292.873 90.005,293.273 90.163 C 293.673 90.321,295.145 90.809,296.545 91.248 C 299.761 92.255,303.344 93.711,305.455 94.868 C 306.355 95.362,307.703 96.093,308.451 96.494 C 319.402 102.357,329.565 115.963,333.343 129.818 C 334.625 134.519,334.667 136.000,334.791 181.122 L 334.915 226.062 335.912 226.571 C 345.028 231.226,352.434 238.556,356.134 246.585 C 357.975 250.581,358.286 251.463,359.311 255.595 L 360.358 259.818 360.361 308.274 L 360.364 356.729 280.636 356.637 L 200.909 356.545 200.796 310.545 C 200.683 264.809,200.735 262.211,201.883 256.545 C 204.354 244.347,212.970 232.995,224.074 227.308 L 225.057 226.804 225.204 181.493 C 225.352 135.829,225.444 132.611,226.636 131.423 C 226.786 131.274,226.909 130.686,226.909 130.116 C 226.909 129.547,227.050 128.797,227.221 128.450 C 227.393 128.102,227.822 126.918,228.175 125.818 C 232.780 111.446,246.148 97.398,259.818 92.566 C 261.753 91.882,262.486 91.607,264.108 90.954 C 264.667 90.729,265.517 90.545,265.996 90.545 C 266.474 90.545,266.953 90.405,267.059 90.234 C 267.165 90.062,268.115 89.813,269.171 89.679 C 270.227 89.545,271.827 89.297,272.727 89.127 C 274.940 88.709,285.196 88.691,287.455 89.100 M111.091 90.544 C 112.891 90.735,115.264 91.053,116.364 91.251 C 117.464 91.449,119.351 91.773,120.558 91.971 C 123.699 92.488,128.546 93.828,131.091 94.884 C 131.491 95.050,132.555 95.486,133.455 95.854 C 135.360 96.632,140.552 99.623,141.695 100.601 C 142.127 100.970,143.165 101.833,144.003 102.518 C 147.646 105.496,151.354 111.124,152.886 116.000 C 153.232 117.100,153.696 118.491,153.918 119.091 C 154.189 119.823,154.367 126.752,154.459 140.168 L 154.596 160.155 156.057 161.740 C 163.648 169.975,157.471 185.455,146.593 185.455 C 145.536 185.455,145.184 186.299,144.548 190.364 C 143.336 198.110,136.101 209.115,129.095 213.868 L 127.291 215.091 127.282 217.727 C 127.277 219.177,127.314 220.389,127.364 220.419 C 127.414 220.450,133.018 220.593,139.818 220.737 C 147.700 220.905,152.709 221.159,153.636 221.440 C 154.436 221.682,155.745 222.051,156.545 222.261 C 169.598 225.685,181.374 236.933,185.392 249.818 C 185.798 251.118,186.343 252.836,186.603 253.636 C 186.982 254.797,187.099 265.290,187.183 305.546 L 187.288 356.002 105.371 355.910 L 23.455 355.818 23.345 307.091 C 23.263 270.387,23.343 257.870,23.669 256.364 C 24.973 250.347,25.532 248.653,27.688 244.182 C 32.374 234.464,43.683 224.557,52.182 222.724 C 52.782 222.595,53.600 222.355,54.000 222.192 C 54.735 221.891,56.805 221.457,61.052 220.714 C 62.440 220.471,67.202 220.331,72.870 220.367 C 78.092 220.400,82.568 220.413,82.818 220.396 C 83.138 220.373,83.270 219.582,83.263 217.727 L 83.254 215.091 81.492 213.897 C 73.542 208.506,67.900 199.265,65.428 187.586 L 64.994 185.535 63.133 185.289 C 51.693 183.775,46.398 167.154,55.332 160.798 C 55.967 160.346,56.000 159.298,56.000 139.793 C 56.000 120.770,56.050 119.081,56.688 116.780 C 59.249 107.538,66.658 101.827,76.104 101.813 C 80.332 101.806,80.261 101.836,81.372 99.636 C 83.098 96.219,88.495 92.000,91.142 92.000 C 91.419 92.000,91.930 91.851,92.278 91.668 C 93.013 91.283,95.843 90.710,99.455 90.218 C 102.101 89.857,105.513 89.952,111.091 90.544 " stroke="none" fill="#fbfbfb" fill-rule="evenodd"></path><path id="path3" d="M172.599 51.610 C 170.718 52.586,170.248 53.008,169.132 54.722 L 168.182 56.182 168.309 76.314 C 168.447 98.299,168.401 97.829,170.608 99.818 C 172.930 101.912,171.808 101.818,194.631 101.821 L 215.818 101.824 217.091 103.009 C 225.777 111.090,226.775 111.737,228.175 110.190 C 228.785 109.516,228.793 109.250,228.302 106.010 C 227.650 101.709,227.539 101.818,232.562 101.818 C 238.362 101.818,240.913 100.178,241.806 95.875 C 242.659 91.770,242.155 57.197,241.217 55.455 C 238.885 51.120,241.032 51.378,205.091 51.112 C 174.473 50.885,173.979 50.893,172.599 51.610 M189.792 61.685 C 191.826 64.271,190.438 65.455,185.372 65.455 C 180.207 65.455,178.337 63.845,180.727 61.455 C 181.979 60.202,188.761 60.375,189.792 61.685 M229.939 62.119 C 230.640 63.320,230.640 63.337,229.920 64.301 L 229.194 65.273 212.357 65.367 C 193.774 65.472,194.182 65.520,194.182 63.216 C 194.182 60.648,193.718 60.709,212.438 60.815 L 229.232 60.909 229.939 62.119 M229.668 73.566 C 230.769 74.846,230.767 75.291,229.654 76.492 L 228.762 77.455 205.926 77.450 C 193.367 77.447,182.736 77.349,182.303 77.233 C 180.483 76.745,180.491 73.678,182.314 72.785 C 182.834 72.530,190.634 72.428,205.941 72.475 L 228.791 72.545 229.668 73.566 M228.651 84.597 C 229.855 84.919,230.659 86.625,230.142 87.760 C 229.374 89.445,229.233 89.455,205.239 89.455 L 182.512 89.455 181.620 88.562 C 180.291 87.233,180.613 85.408,182.296 84.730 C 183.184 84.372,227.340 84.246,228.651 84.597 M82.229 156.590 C 80.328 157.537,78.727 159.383,78.481 160.909 C 78.367 161.615,78.594 161.639,86.091 161.735 C 90.341 161.788,93.818 161.753,93.818 161.655 C 93.818 161.253,92.238 158.668,91.510 157.878 C 89.370 155.556,85.408 155.006,82.229 156.590 M121.203 156.557 C 119.390 157.461,117.799 159.264,117.285 161.000 L 117.042 161.818 124.703 161.818 L 132.364 161.818 132.364 160.975 C 132.364 157.164,125.465 154.434,121.203 156.557 M258.364 160.011 C 256.645 160.849,254.694 162.937,254.454 164.197 L 254.283 165.091 261.711 165.091 L 269.140 165.091 268.898 164.273 C 267.747 160.387,262.197 158.142,258.364 160.011 M296.462 159.787 C 294.567 160.476,292.000 163.308,292.000 164.709 C 292.000 164.963,294.437 165.091,299.273 165.091 C 307.372 165.091,307.546 165.026,305.732 162.685 C 303.377 159.648,299.864 158.549,296.462 159.787 " stroke="none" fill="#30ab5b" fill-rule="evenodd"></path><path id="path4" d="M138.182 21.333 C 133.323 23.421,133.291 23.574,133.166 45.413 C 133.018 71.340,133.184 71.791,143.000 72.264 C 147.918 72.502,147.618 72.157,146.842 76.682 C 146.311 79.778,146.887 81.091,148.779 81.091 C 149.924 81.091,150.564 80.639,154.369 77.134 C 155.372 76.210,157.043 74.677,158.081 73.727 L 159.969 72.000 163.984 72.000 L 168.000 72.000 168.000 64.352 C 168.000 56.030,168.165 55.137,170.060 53.170 C 172.473 50.668,171.789 50.745,190.636 50.864 L 207.636 50.971 207.636 38.936 C 207.636 27.425,207.603 26.830,206.864 25.258 C 206.040 23.504,203.875 21.455,202.848 21.455 C 202.505 21.455,202.124 21.291,202.000 21.091 C 201.593 20.432,139.733 20.667,138.182 21.333 M146.688 21.665 C 142.300 23.830,142.181 24.483,142.184 46.467 C 142.186 67.924,142.261 68.432,145.790 70.810 L 147.017 71.636 143.166 71.636 C 140.991 71.636,139.218 71.478,139.091 71.273 C 138.967 71.073,138.589 70.904,138.251 70.898 C 137.414 70.884,135.598 69.162,134.798 67.625 C 134.008 66.105,133.975 25.680,134.764 25.168 C 134.984 25.026,135.343 24.568,135.562 24.152 C 135.781 23.736,136.746 23.014,137.707 22.549 C 138.668 22.084,139.700 21.576,140.000 21.419 C 140.300 21.262,142.182 21.128,144.182 21.121 C 147.694 21.108,147.780 21.126,146.688 21.665 M180.613 31.336 C 181.762 32.415,181.712 33.927,180.496 34.883 C 179.313 35.813,148.344 36.074,146.545 35.168 C 145.231 34.507,145.052 32.131,146.247 31.211 C 147.699 30.094,179.413 30.209,180.613 31.336 M194.795 31.336 C 197.299 33.688,195.368 35.455,190.293 35.455 C 186.207 35.455,185.091 34.935,185.091 33.033 C 185.091 30.626,192.634 29.306,194.795 31.336 M193.880 43.147 C 194.750 43.934,194.767 46.115,193.909 46.767 C 192.835 47.582,147.025 47.490,146.120 46.671 C 145.164 45.806,145.244 43.825,146.263 43.112 C 147.532 42.222,192.896 42.256,193.880 43.147 M162.465 54.748 C 163.064 55.168,163.273 55.679,163.273 56.727 C 163.273 59.127,162.768 59.274,154.555 59.267 C 146.485 59.261,145.707 59.078,145.519 57.134 C 145.259 54.434,146.013 54.182,154.346 54.182 C 160.374 54.182,161.798 54.281,162.465 54.748 M278.810 88.990 C 279.456 89.070,280.601 89.071,281.356 88.993 C 282.110 88.914,281.582 88.848,280.182 88.847 C 278.782 88.845,278.165 88.909,278.810 88.990 M102.284 90.450 C 103.240 90.525,104.712 90.524,105.556 90.448 C 106.400 90.371,105.618 90.310,103.818 90.311 C 102.018 90.312,101.328 90.374,102.284 90.450 M97.545 90.796 C 97.895 90.888,98.468 90.888,98.818 90.796 C 99.168 90.705,98.882 90.630,98.182 90.630 C 97.482 90.630,97.195 90.705,97.545 90.796 M109.364 90.802 C 109.814 90.889,110.550 90.889,111.000 90.802 C 111.450 90.715,111.082 90.644,110.182 90.644 C 109.282 90.644,108.914 90.715,109.364 90.802 M78.095 102.075 C 78.547 102.162,79.202 102.159,79.550 102.068 C 79.897 101.977,79.527 101.906,78.727 101.910 C 77.927 101.914,77.643 101.988,78.095 102.075 M144.727 103.818 C 145.814 104.918,146.784 105.818,146.884 105.818 C 146.984 105.818,146.177 104.918,145.091 103.818 C 144.005 102.718,143.034 101.818,142.934 101.818 C 142.834 101.818,143.641 102.718,144.727 103.818 M319.455 105.818 C 320.236 106.618,320.957 107.273,321.057 107.273 C 321.157 107.273,320.599 106.618,319.818 105.818 C 319.037 105.018,318.316 104.364,318.216 104.364 C 318.116 104.364,318.673 105.018,319.455 105.818 M77.545 129.830 L 76.727 130.158 76.727 158.479 C 76.727 174.056,76.873 187.275,77.052 187.855 C 77.230 188.435,77.584 189.891,77.837 191.091 C 78.091 192.291,78.436 193.428,78.604 193.618 C 78.772 193.808,78.909 194.260,78.909 194.623 C 78.909 196.938,84.165 205.474,88.055 209.477 C 92.175 213.717,94.874 215.654,100.000 218.050 C 103.182 219.537,104.713 220.059,109.009 221.122 C 112.061 221.877,118.386 220.281,123.914 217.360 C 126.885 215.790,126.826 215.756,127.013 219.091 C 127.117 220.956,127.148 220.824,127.221 218.182 L 127.308 215.091 129.290 213.670 C 133.972 210.314,139.518 203.561,141.710 198.545 C 143.383 194.719,144.073 192.523,144.898 188.403 C 145.195 186.924,145.482 185.684,145.537 185.646 C 145.592 185.609,146.618 185.367,147.818 185.109 C 159.146 182.673,163.402 169.848,155.704 161.348 C 154.761 160.306,153.828 159.444,153.631 159.432 C 153.434 159.420,152.494 159.043,151.541 158.595 C 148.990 157.395,149.091 156.880,149.091 171.124 C 149.091 181.117,148.988 184.058,148.636 184.180 C 148.386 184.267,147.691 184.385,147.091 184.442 L 146.000 184.545 145.730 164.600 C 145.427 142.256,145.526 143.020,142.715 141.182 L 141.465 140.364 122.409 140.364 C 95.767 140.364,91.793 139.414,83.328 131.022 C 81.661 129.370,79.697 128.965,77.545 129.830 M334.668 140.364 C 334.668 141.864,334.732 142.477,334.810 141.727 C 334.889 140.977,334.889 139.750,334.810 139.000 C 334.732 138.250,334.668 138.864,334.668 140.364 M318.018 142.976 C 316.111 146.221,312.297 149.129,306.155 152.021 C 303.925 153.071,260.060 153.515,254.273 152.546 L 252.727 152.287 252.727 164.478 C 252.727 178.431,252.636 177.818,254.722 177.818 C 262.289 177.818,262.637 184.493,255.118 185.411 L 253.273 185.636 253.159 187.213 C 252.715 193.396,258.766 205.638,265.015 211.200 C 268.475 214.279,270.932 215.948,274.545 217.675 C 276.045 218.392,277.554 219.125,277.897 219.303 C 278.522 219.628,279.183 219.811,283.686 220.907 C 286.050 221.483,291.889 220.604,294.512 219.278 C 294.830 219.117,296.236 218.436,297.636 217.765 C 299.036 217.094,300.755 216.050,301.455 215.444 C 302.155 214.839,303.545 213.707,304.545 212.930 C 309.660 208.953,313.549 203.628,316.778 196.182 C 318.014 193.331,319.242 185.604,319.263 180.537 L 319.273 178.347 321.364 177.870 C 335.244 174.705,333.380 154.727,319.205 154.727 C 319.166 154.727,319.042 151.812,318.930 148.249 L 318.727 141.771 318.018 142.976 M89.742 155.967 C 91.849 157.050,94.182 159.928,94.182 161.442 C 94.182 162.257,78.144 162.640,77.647 161.836 C 77.009 160.803,79.719 157.129,82.052 155.865 C 83.599 155.027,88.028 155.085,89.742 155.967 M128.685 155.979 C 130.219 156.761,132.228 158.870,132.752 160.246 C 133.510 162.241,133.748 162.182,124.909 162.182 L 116.727 162.182 116.727 161.175 C 116.727 156.890,124.149 153.664,128.685 155.979 M264.245 159.159 C 267.034 160.038,270.499 164.059,269.650 165.433 C 269.235 166.103,254.209 165.950,253.949 165.272 C 252.603 161.764,259.506 157.665,264.245 159.159 M301.944 159.128 C 304.852 160.119,307.984 164.009,307.068 165.492 C 306.725 166.047,291.647 165.905,291.432 165.344 C 290.132 161.957,297.485 157.609,301.944 159.128 M54.883 161.271 C 47.106 169.990,51.356 182.765,62.821 185.132 C 65.201 185.623,65.809 186.387,65.816 188.899 C 65.826 192.287,69.917 201.307,73.654 206.182 C 75.737 208.898,82.157 214.890,83.000 214.905 C 83.150 214.907,83.273 216.136,83.273 217.636 C 83.273 219.212,83.426 220.364,83.636 220.364 C 83.843 220.364,84.000 219.291,84.000 217.874 C 84.000 215.129,83.799 214.766,81.273 212.942 C 77.071 209.907,71.931 203.591,69.614 198.614 C 67.532 194.142,67.069 192.612,66.192 187.316 C 65.786 184.865,65.595 184.683,63.237 184.498 C 62.181 184.416,60.832 184.106,60.239 183.811 C 59.646 183.515,59.024 183.273,58.857 183.273 C 58.155 183.273,53.833 179.292,53.824 178.636 C 53.821 178.386,53.674 178.182,53.497 178.182 C 53.320 178.182,53.081 177.895,52.965 177.545 C 52.848 177.195,52.505 176.255,52.200 175.455 C 50.553 171.121,51.937 165.307,55.548 161.393 C 56.041 160.859,56.385 160.285,56.313 160.118 C 56.241 159.952,55.597 160.470,54.883 161.271 M106.460 173.086 C 108.741 173.111,109.128 183.174,106.901 184.551 C 103.909 186.400,101.818 184.104,101.818 178.970 C 101.818 174.131,102.823 172.371,105.273 172.918 C 105.673 173.008,106.207 173.083,106.460 173.086 M282.519 175.504 C 283.684 176.984,283.639 183.534,282.455 184.911 C 280.906 186.710,277.659 186.005,277.241 183.779 C 276.779 181.313,277.222 176.132,277.965 175.310 C 279.027 174.138,281.528 174.244,282.519 175.504 M310.418 178.732 C 314.152 180.593,313.732 183.400,309.495 184.895 C 303.950 186.851,296.973 183.448,299.580 180.059 C 301.374 177.726,307.014 177.036,310.418 178.732 M117.257 193.545 C 115.048 200.868,106.666 204.376,99.703 200.893 C 96.636 199.359,94.108 196.426,93.369 193.545 L 93.159 192.727 105.331 192.727 L 117.504 192.727 117.257 193.545 M292.000 195.838 C 292.000 202.141,281.588 206.618,274.828 203.221 C 272.077 201.839,268.188 196.803,268.937 195.591 C 269.330 194.956,292.000 195.198,292.000 195.838 M300.727 222.160 C 300.727 222.372,300.529 222.545,300.286 222.545 C 300.044 222.545,298.448 223.101,296.741 223.780 C 291.102 226.022,286.482 226.909,280.453 226.909 C 267.537 226.909,265.694 239.001,277.729 244.778 C 285.804 248.655,295.861 243.282,300.285 232.727 C 301.384 230.106,301.953 222.533,301.091 222.000 C 300.891 221.876,300.727 221.949,300.727 222.160 M124.000 223.231 C 117.717 225.950,113.308 226.916,106.498 227.066 C 101.381 227.179,100.756 227.266,98.912 228.124 C 93.701 230.547,92.747 238.208,97.179 242.038 C 102.586 246.709,107.101 248.011,112.163 246.358 C 121.398 243.344,127.256 234.779,127.270 224.273 C 127.273 221.823,127.261 221.819,124.000 223.231 M360.090 308.454 L 360.000 356.362 280.636 356.455 L 201.273 356.547 280.648 356.637 C 343.880 356.709,360.058 356.635,360.196 356.273 C 360.291 356.023,360.326 334.382,360.274 308.182 L 360.179 260.545 360.090 308.454 " stroke="none" fill="#fbac94" fill-rule="evenodd"></path><path id="path5" d="M211.455 51.166 C 221.310 51.417,236.985 51.430,236.603 51.187 C 236.371 51.040,229.718 50.953,221.818 50.992 C 213.918 51.032,209.255 51.110,211.455 51.166 M241.800 57.555 C 241.977 59.053,241.985 59.061,242.108 57.863 C 242.178 57.187,242.096 56.496,241.927 56.327 C 241.758 56.158,241.701 56.710,241.800 57.555 M180.727 61.455 C 178.337 63.845,180.207 65.455,185.372 65.455 C 190.438 65.455,191.826 64.271,189.792 61.685 C 188.761 60.375,181.979 60.202,180.727 61.455 M194.913 61.451 C 193.999 62.364,193.969 64.058,194.851 64.856 C 195.458 65.406,197.077 65.453,212.357 65.367 L 229.194 65.273 229.920 64.301 C 230.640 63.337,230.640 63.320,229.939 62.119 L 229.232 60.909 212.438 60.815 C 196.036 60.722,195.627 60.737,194.913 61.451 M189.115 61.467 C 189.921 61.899,190.092 63.944,189.382 64.655 C 188.571 65.465,181.195 65.237,180.740 64.388 C 180.141 63.268,180.299 62.268,181.172 61.657 C 182.121 60.992,187.967 60.853,189.115 61.467 M228.512 61.442 C 229.736 61.907,230.122 63.425,229.259 64.378 C 228.466 65.255,195.845 65.517,194.982 64.655 C 194.358 64.031,194.443 62.534,195.147 61.756 C 195.833 60.998,226.584 60.709,228.512 61.442 M168.163 83.818 C 168.163 90.418,168.212 93.169,168.272 89.932 C 168.332 86.695,168.332 81.295,168.272 77.932 C 168.212 74.569,168.163 77.218,168.163 83.818 M182.314 72.785 C 180.737 73.557,180.426 77.091,181.935 77.091 C 182.191 77.091,182.176 76.939,181.891 76.655 C 181.327 76.091,181.327 74.091,181.891 73.527 C 182.221 73.197,187.966 73.091,205.519 73.091 L 228.711 73.091 229.316 74.015 C 230.601 75.975,229.637 76.719,225.735 76.779 C 223.881 76.807,213.364 76.939,202.364 77.071 L 182.364 77.312 205.563 77.384 L 228.762 77.455 229.654 76.492 C 230.767 75.291,230.769 74.846,229.668 73.566 L 228.791 72.545 205.941 72.475 C 190.634 72.428,182.834 72.530,182.314 72.785 M182.296 84.730 C 180.613 85.408,180.291 87.233,181.620 88.562 L 182.512 89.455 205.239 89.455 C 229.233 89.455,229.374 89.445,230.142 87.760 C 230.659 86.625,229.855 84.919,228.651 84.597 C 227.340 84.246,183.184 84.372,182.296 84.730 M229.348 85.678 C 229.943 86.492,229.946 87.323,229.356 88.129 C 228.856 88.813,188.642 89.535,183.958 88.945 C 181.224 88.600,180.164 85.984,182.372 85.029 C 183.948 84.348,228.829 84.968,229.348 85.678 M241.868 95.516 C 241.840 95.949,241.724 96.604,241.609 96.970 C 241.411 97.601,241.422 97.602,241.815 96.990 C 242.043 96.634,242.159 95.979,242.073 95.535 C 241.917 94.728,241.917 94.728,241.868 95.516 M239.838 99.613 L 238.404 101.273 240.002 99.740 C 240.881 98.897,241.527 98.150,241.437 98.080 C 241.347 98.011,240.627 98.701,239.838 99.613 M170.182 99.818 C 170.860 100.518,171.497 101.091,171.597 101.091 C 171.697 101.091,171.224 100.518,170.545 99.818 C 169.867 99.118,169.230 98.545,169.130 98.545 C 169.030 98.545,169.503 99.118,170.182 99.818 M173.970 102.091 C 174.120 102.241,183.531 102.305,194.883 102.234 L 215.524 102.105 216.853 103.272 C 218.497 104.716,218.629 104.396,217.000 102.915 L 215.818 101.840 194.758 101.829 C 183.174 101.823,173.820 101.941,173.970 102.091 M228.146 102.182 C 227.946 102.381,227.866 103.159,227.968 103.909 L 228.154 105.273 228.350 103.818 L 228.545 102.364 232.545 102.163 L 236.545 101.962 232.527 101.890 C 230.233 101.849,228.353 101.974,228.146 102.182 M218.580 104.561 C 218.613 104.899,221.818 107.885,221.818 107.578 C 221.818 107.493,221.082 106.701,220.182 105.818 C 219.282 104.935,218.561 104.369,218.580 104.561 M228.609 107.918 C 228.774 109.114,228.673 109.639,228.173 110.191 C 227.816 110.586,227.654 110.909,227.813 110.909 C 228.823 110.909,229.376 108.577,228.718 107.091 C 228.500 106.599,228.465 106.867,228.609 107.918 M223.715 109.273 C 224.657 110.254,225.484 110.982,225.552 110.892 C 225.619 110.801,224.848 109.999,223.837 109.109 L 222.000 107.491 223.715 109.273 M77.636 220.979 C 83.774 221.147,83.273 220.730,83.273 225.666 C 83.273 229.502,84.054 233.886,84.634 233.305 C 84.732 233.208,84.604 232.588,84.350 231.928 C 84.096 231.267,83.791 228.518,83.672 225.818 L 83.455 220.909 78.545 220.890 C 74.597 220.874,74.419 220.892,77.636 220.979 M127.515 220.970 C 127.382 221.103,127.273 222.650,127.273 224.406 C 127.273 231.378,125.326 236.410,120.767 241.225 C 119.836 242.209,119.436 242.819,119.867 242.598 C 121.339 241.845,125.455 236.321,125.455 235.098 C 125.455 234.794,125.582 234.545,125.738 234.545 C 126.402 234.545,127.400 229.781,127.604 225.636 L 127.818 221.273 137.091 221.081 L 146.364 220.890 137.061 220.809 C 131.944 220.764,127.648 220.836,127.515 220.970 M147.369 221.352 C 147.921 221.435,148.740 221.433,149.187 221.347 C 149.634 221.261,149.182 221.192,148.182 221.195 C 147.182 221.198,146.816 221.268,147.369 221.352 M152.364 221.813 C 152.664 222.010,153.305 222.173,153.788 222.176 C 154.955 222.184,154.659 221.977,153.091 221.689 C 152.195 221.525,151.980 221.562,152.364 221.813 M172.765 231.727 C 172.853 231.777,173.821 232.636,174.917 233.636 L 176.909 235.455 175.105 233.545 C 174.112 232.495,173.144 231.636,172.953 231.636 C 172.762 231.636,172.678 231.677,172.765 231.727 M35.432 233.545 L 34.364 234.727 35.545 233.659 C 36.647 232.664,36.894 232.364,36.613 232.364 C 36.551 232.364,36.019 232.895,35.432 233.545 M84.727 233.934 C 84.727 234.220,85.823 236.518,86.580 237.818 C 88.530 241.168,96.866 247.408,98.613 246.826 C 98.840 246.750,98.222 246.385,97.240 246.015 C 92.583 244.257,85.455 237.409,85.455 234.692 C 85.455 234.435,85.291 234.124,85.091 234.000 C 84.891 233.876,84.727 233.847,84.727 233.934 M117.813 243.668 C 113.967 246.684,107.033 248.122,100.909 247.173 C 99.399 246.939,99.214 246.967,99.818 247.336 C 101.559 248.402,111.795 247.752,113.255 246.482 C 113.445 246.317,113.856 246.182,114.168 246.182 C 114.604 246.182,117.869 244.254,118.879 243.401 C 119.513 242.865,118.519 243.114,117.813 243.668 M184.359 248.710 C 184.549 249.374,184.805 250.017,184.927 250.140 C 185.269 250.481,184.676 248.229,184.323 247.843 C 184.152 247.656,184.168 248.047,184.359 248.710 M186.637 258.364 C 186.641 259.164,186.716 259.448,186.803 258.996 C 186.890 258.543,186.886 257.889,186.795 257.541 C 186.704 257.194,186.633 257.564,186.637 258.364 M186.999 307.515 C 186.928 345.265,186.814 355.250,186.455 355.396 C 186.099 355.539,186.101 355.585,186.466 355.608 C 187.279 355.658,187.280 355.587,187.183 307.273 L 187.088 259.818 186.999 307.515 " stroke="none" fill="#93c7db" fill-rule="evenodd"></path><path id="path6" d="M277.562 89.362 C 279.121 89.430,281.576 89.429,283.017 89.361 C 284.457 89.292,283.182 89.236,280.182 89.236 C 277.182 89.237,276.003 89.293,277.562 89.362 M270.727 89.818 L 270.000 90.131 270.727 90.131 C 271.127 90.131,271.782 89.990,272.182 89.818 L 272.909 89.506 272.182 89.506 C 271.782 89.506,271.127 89.646,270.727 89.818 M288.182 89.818 C 288.582 89.990,289.236 90.131,289.636 90.131 L 290.364 90.131 289.636 89.818 C 289.236 89.646,288.582 89.506,288.182 89.506 L 287.455 89.506 288.182 89.818 M267.091 90.545 C 266.164 90.944,267.120 90.944,268.364 90.545 C 269.094 90.311,269.130 90.252,268.545 90.244 C 268.145 90.238,267.491 90.374,267.091 90.545 M291.818 90.545 C 292.905 91.013,293.814 91.013,293.091 90.545 C 292.791 90.352,292.218 90.202,291.818 90.213 L 291.091 90.233 291.818 90.545 M101.545 90.815 C 102.895 90.885,105.105 90.885,106.455 90.815 C 107.805 90.745,106.700 90.688,104.000 90.688 C 101.300 90.688,100.195 90.745,101.545 90.815 M95.273 91.273 C 94.014 91.538,94.012 91.541,95.091 91.583 C 95.691 91.606,96.427 91.467,96.727 91.273 C 97.333 90.881,97.132 90.881,95.273 91.273 M112.000 91.271 C 112.898 91.560,116.263 91.759,115.970 91.505 C 115.886 91.433,114.755 91.285,113.455 91.176 C 112.036 91.057,111.455 91.095,112.000 91.271 M294.545 91.256 C 294.845 91.459,295.405 91.628,295.788 91.631 C 296.718 91.638,296.428 91.430,295.091 91.131 C 294.294 90.953,294.147 90.987,294.545 91.256 M117.273 91.983 C 117.971 92.299,119.918 92.506,119.606 92.230 C 119.523 92.157,118.800 91.997,118.000 91.875 C 116.986 91.721,116.766 91.753,117.273 91.983 M130.182 95.119 C 130.182 95.364,132.071 96.050,132.251 95.870 C 132.333 95.788,131.901 95.546,131.291 95.334 C 130.681 95.121,130.182 95.024,130.182 95.119 M83.795 96.818 L 82.727 98.000 83.909 96.932 C 85.011 95.936,85.258 95.636,84.977 95.636 C 84.915 95.636,84.383 96.168,83.795 96.818 M250.410 97.811 C 248.885 98.807,247.636 99.704,247.636 99.804 C 247.636 99.986,252.604 96.898,253.255 96.311 C 254.111 95.540,252.960 96.146,250.410 97.811 M135.091 97.330 C 135.691 97.645,136.973 98.382,137.940 98.968 C 138.908 99.553,139.596 99.865,139.470 99.661 C 139.196 99.218,134.799 96.721,134.329 96.742 C 134.148 96.750,134.491 97.014,135.091 97.330 M309.273 97.703 C 309.473 97.897,310.536 98.671,311.636 99.424 C 313.123 100.441,313.340 100.527,312.482 99.760 C 311.419 98.808,308.450 96.906,309.273 97.703 M75.182 102.075 C 75.632 102.161,76.368 102.161,76.818 102.075 C 77.268 101.988,76.900 101.917,76.000 101.917 C 75.100 101.917,74.732 101.988,75.182 102.075 M145.079 104.545 C 148.758 108.512,149.024 108.768,147.727 107.091 C 147.109 106.291,145.653 104.736,144.491 103.636 C 142.704 101.943,142.794 102.083,145.079 104.545 M243.617 103.182 L 242.364 104.545 243.727 103.292 C 244.997 102.126,245.258 101.818,244.980 101.818 C 244.920 101.818,244.306 102.432,243.617 103.182 M318.899 105.636 C 323.060 110.079,323.197 110.211,321.908 108.545 C 321.289 107.745,319.669 106.027,318.308 104.727 C 316.065 102.584,316.120 102.669,318.899 105.636 M65.273 105.162 C 63.689 106.287,60.373 109.516,59.931 110.364 C 59.722 110.764,60.412 110.139,61.463 108.975 C 62.515 107.812,64.209 106.298,65.228 105.612 C 66.247 104.925,66.920 104.369,66.722 104.375 C 66.525 104.381,65.873 104.735,65.273 105.162 M239.331 107.332 C 237.899 108.965,236.728 110.479,236.730 110.696 C 236.731 110.913,237.024 110.649,237.380 110.109 C 237.736 109.569,238.758 108.341,239.650 107.382 C 241.535 105.354,242.340 104.364,242.102 104.364 C 242.010 104.364,240.762 105.700,239.331 107.332 M323.963 111.455 C 324.576 112.641,325.080 113.298,325.077 112.909 C 325.076 112.709,324.740 112.136,324.331 111.636 C 323.837 111.033,323.714 110.971,323.963 111.455 M233.696 114.818 C 232.657 116.466,231.442 118.823,231.806 118.481 C 232.197 118.114,234.887 113.455,234.708 113.455 C 234.624 113.455,234.168 114.068,233.696 114.818 M153.096 119.121 C 153.100 119.505,153.268 120.064,153.471 120.364 C 153.741 120.762,153.774 120.615,153.596 119.818 C 153.297 118.481,153.089 118.191,153.096 119.121 M56.451 140.046 C 56.373 158.438,56.301 160.690,55.780 161.123 C 52.359 163.962,50.564 171.150,52.200 175.455 C 52.505 176.255,52.848 177.195,52.965 177.545 C 53.081 177.895,53.320 178.182,53.497 178.182 C 53.674 178.182,53.821 178.386,53.824 178.636 C 53.833 179.292,58.155 183.273,58.857 183.273 C 59.024 183.273,59.646 183.515,60.239 183.811 C 60.832 184.106,62.181 184.416,63.237 184.498 C 65.595 184.683,65.786 184.865,66.192 187.316 C 67.069 192.612,67.532 194.142,69.614 198.614 C 71.931 203.591,77.071 209.907,81.273 212.942 C 84.162 215.028,84.044 214.592,83.773 222.155 C 83.514 229.382,83.740 231.031,85.519 234.907 C 89.055 242.610,97.918 248.134,105.835 247.570 L 107.455 247.455 104.909 246.586 C 102.550 245.780,99.293 243.864,97.179 242.038 C 92.747 238.208,93.701 230.547,98.912 228.124 C 100.756 227.266,101.381 227.179,106.498 227.066 C 113.374 226.914,116.869 226.136,124.581 223.039 L 127.163 222.003 127.008 219.456 C 126.780 215.696,126.904 215.780,123.914 217.360 C 118.386 220.281,112.061 221.877,109.009 221.122 C 104.713 220.059,103.182 219.537,100.000 218.050 C 94.874 215.654,92.175 213.717,88.055 209.477 C 84.165 205.474,78.909 196.938,78.909 194.623 C 78.909 194.260,78.775 193.808,78.612 193.618 C 78.448 193.428,78.113 192.373,77.867 191.273 C 77.620 190.173,77.258 188.618,77.060 187.818 C 76.835 186.906,76.740 175.837,76.805 158.143 L 76.909 129.922 75.346 130.592 C 71.853 132.090,68.864 134.828,67.362 137.906 C 65.801 141.108,65.669 141.911,65.470 149.455 L 65.273 156.909 62.909 157.375 C 61.609 157.631,59.764 158.248,58.810 158.747 C 56.545 159.928,56.741 161.696,56.633 139.091 L 56.539 119.455 56.451 140.046 M153.906 140.818 C 153.825 157.909,153.699 160.187,152.909 158.909 C 152.785 158.709,152.494 158.545,152.261 158.545 C 152.029 158.545,152.216 158.810,152.677 159.133 C 154.157 160.169,154.192 159.708,154.091 140.706 L 153.993 122.364 153.906 140.818 M227.673 128.218 C 227.464 128.976,227.358 129.661,227.438 129.741 C 227.518 129.821,227.754 129.267,227.964 128.509 C 228.173 127.752,228.278 127.066,228.198 126.986 C 228.118 126.906,227.882 127.461,227.673 128.218 M80.121 129.359 C 81.580 129.474,82.063 129.709,82.976 130.748 C 83.581 131.437,84.235 132.000,84.429 132.000 C 84.624 132.000,84.142 131.345,83.357 130.545 C 82.048 129.209,81.786 129.096,80.148 129.156 L 78.364 129.222 80.121 129.359 M332.949 130.727 C 333.248 132.064,333.456 132.355,333.449 131.424 C 333.446 131.041,333.277 130.482,333.074 130.182 C 332.805 129.783,332.771 129.931,332.949 130.727 M226.951 130.970 C 226.928 131.304,226.815 131.877,226.700 132.243 C 226.501 132.874,226.512 132.875,226.906 132.261 C 227.135 131.905,227.248 131.332,227.158 130.989 C 227.010 130.426,226.989 130.424,226.951 130.970 M86.934 134.179 C 88.220 135.177,89.419 135.995,89.597 135.997 C 89.776 135.999,88.828 135.182,87.490 134.182 C 84.332 131.821,83.894 131.819,86.934 134.179 M226.014 135.832 C 225.873 136.958,225.834 137.955,225.926 138.047 C 226.018 138.140,226.209 137.294,226.350 136.168 C 226.490 135.042,226.530 134.045,226.438 133.953 C 226.345 133.860,226.155 134.706,226.014 135.832 M333.854 135.848 C 333.874 136.432,334.030 137.318,334.200 137.818 C 334.408 138.431,334.440 138.135,334.299 136.909 C 334.062 134.864,333.799 134.235,333.854 135.848 M96.758 139.043 C 96.841 139.116,97.564 139.276,98.364 139.398 C 99.377 139.552,99.598 139.519,99.091 139.290 C 98.393 138.973,96.445 138.767,96.758 139.043 M101.668 140.070 C 102.451 140.208,111.682 140.299,122.182 140.271 C 132.682 140.244,140.209 140.174,138.909 140.116 C 133.582 139.878,100.353 139.837,101.668 140.070 M142.364 140.946 C 142.764 141.253,143.276 141.616,143.501 141.752 C 143.727 141.888,144.258 142.573,144.682 143.273 C 145.105 143.973,145.452 144.401,145.453 144.225 C 145.456 143.588,143.968 141.517,143.097 140.947 C 141.966 140.205,141.399 140.204,142.364 140.946 M225.455 183.956 L 225.455 226.820 224.636 227.407 C 223.830 227.986,223.832 227.988,224.818 227.575 L 225.818 227.156 225.818 184.123 C 225.818 160.456,225.736 141.091,225.636 141.091 C 225.536 141.091,225.455 160.380,225.455 183.956 M317.377 143.273 C 316.635 144.273,316.144 145.089,316.286 145.087 C 316.429 145.085,317.077 144.315,317.727 143.375 L 318.909 141.666 318.915 147.833 C 318.920 154.197,319.072 155.125,320.010 154.532 C 320.460 154.247,320.444 154.192,319.909 154.187 C 319.327 154.182,319.273 153.634,319.273 147.818 C 319.273 140.735,319.269 140.726,317.377 143.273 M334.635 184.564 C 334.544 227.094,334.550 227.299,335.800 227.261 C 336.010 227.255,335.896 227.033,335.547 226.768 C 334.950 226.315,334.907 223.767,334.818 184.506 L 334.724 142.727 334.635 184.564 M241.813 148.920 C 241.806 154.285,241.736 154.488,239.789 154.798 C 232.959 155.883,228.491 162.777,230.388 169.303 C 231.818 174.222,234.552 176.492,241.306 178.368 C 241.554 178.437,241.794 180.376,241.943 183.512 C 242.193 188.756,243.078 193.563,244.343 196.545 C 247.273 203.457,251.500 209.150,256.876 213.428 L 259.181 215.262 259.351 222.631 C 259.711 238.195,267.709 246.933,281.568 246.904 C 285.105 246.896,285.927 246.314,282.678 246.118 C 276.341 245.734,269.818 240.177,269.818 235.161 C 269.818 229.711,273.429 226.909,280.453 226.909 C 286.482 226.909,291.102 226.022,296.741 223.780 C 298.448 223.101,300.044 222.545,300.286 222.545 C 300.529 222.545,300.727 222.349,300.727 222.109 C 300.727 221.832,300.854 221.799,301.075 222.020 C 301.266 222.211,301.486 223.676,301.565 225.275 C 301.643 226.874,301.634 225.392,301.545 221.981 L 301.382 215.780 303.397 214.226 C 304.505 213.372,305.625 212.403,305.887 212.073 C 306.372 211.463,303.762 213.448,301.455 215.444 C 300.755 216.050,299.036 217.094,297.636 217.765 C 296.236 218.436,294.830 219.117,294.512 219.278 C 291.889 220.604,286.050 221.483,283.686 220.907 C 279.183 219.811,278.522 219.628,277.897 219.303 C 277.554 219.125,276.045 218.392,274.545 217.675 C 265.477 213.341,258.286 205.300,254.984 195.803 C 253.755 192.266,253.038 188.895,253.159 187.213 L 253.273 185.636 255.118 185.411 C 262.637 184.493,262.289 177.818,254.722 177.818 C 252.636 177.818,252.727 178.432,252.727 164.465 L 252.727 152.262 254.636 152.466 C 255.834 152.593,256.274 152.554,255.818 152.360 C 255.418 152.190,254.728 152.040,254.285 152.026 C 251.659 151.942,247.187 149.452,243.909 146.248 L 241.818 144.205 241.813 148.920 M314.900 146.284 C 314.395 146.728,313.331 147.640,312.536 148.310 C 311.741 148.981,311.418 149.360,311.818 149.153 C 312.591 148.752,316.308 145.490,316.000 145.482 C 315.900 145.480,315.405 145.841,314.900 146.284 M307.818 150.929 C 307.018 151.308,306.576 151.622,306.836 151.627 C 307.366 151.638,309.455 150.622,309.455 150.354 C 309.455 150.142,309.562 150.104,307.818 150.929 M304.567 152.045 C 303.779 152.230,303.043 152.474,302.931 152.587 C 302.596 152.925,305.607 152.302,305.982 151.956 C 306.172 151.780,306.254 151.653,306.164 151.673 C 306.074 151.693,305.355 151.861,304.567 152.045 M268.455 153.000 C 274.605 153.056,284.668 153.056,290.818 153.000 C 296.968 152.944,291.936 152.898,279.636 152.898 C 267.336 152.898,262.305 152.944,268.455 153.000 M82.000 155.878 C 80.750 156.539,78.182 159.135,78.182 159.738 C 78.182 159.960,78.566 159.621,79.035 158.986 C 80.085 157.561,81.394 156.512,82.976 155.825 C 83.639 155.537,83.936 155.301,83.636 155.302 C 83.336 155.302,82.600 155.561,82.000 155.878 M120.271 156.344 C 118.619 157.392,116.398 160.156,116.847 160.605 C 116.972 160.729,117.188 160.522,117.328 160.143 C 117.879 158.655,119.418 157.084,121.192 156.200 C 122.215 155.690,122.806 155.273,122.506 155.273 C 122.206 155.273,121.200 155.755,120.271 156.344 M325.091 156.212 C 325.991 156.724,327.216 157.581,327.812 158.117 C 328.716 158.928,328.777 158.947,328.176 158.230 C 327.270 157.149,324.572 155.271,323.934 155.277 C 323.671 155.280,324.191 155.700,325.091 156.212 M90.630 156.765 C 91.177 157.173,92.049 158.026,92.569 158.662 C 93.088 159.298,93.343 159.472,93.134 159.050 C 92.734 158.239,90.339 155.992,89.896 156.012 C 89.753 156.018,90.084 156.357,90.630 156.765 M129.587 156.768 C 130.160 157.212,131.101 158.228,131.678 159.024 C 132.255 159.821,132.727 160.314,132.727 160.120 C 132.727 159.568,130.206 156.761,129.332 156.339 C 128.827 156.096,128.918 156.249,129.587 156.768 M145.744 170.302 C 145.861 185.346,145.787 184.798,147.636 184.416 L 148.909 184.152 149.005 171.271 C 149.106 157.625,149.113 157.570,150.759 158.191 C 151.517 158.478,151.707 158.479,151.426 158.195 C 151.211 157.976,149.989 157.630,148.711 157.424 C 147.434 157.218,146.219 156.909,146.012 156.737 C 145.754 156.523,145.670 160.773,145.744 170.302 M259.845 158.871 C 259.428 159.034,260.123 159.134,261.558 159.118 C 262.886 159.103,263.692 158.980,263.350 158.844 C 262.523 158.516,260.716 158.530,259.845 158.871 M297.741 158.844 C 297.399 158.980,298.205 159.103,299.533 159.118 C 300.968 159.134,301.663 159.034,301.246 158.871 C 300.374 158.530,298.568 158.516,297.741 158.844 M256.994 160.195 C 256.247 160.702,255.636 161.204,255.636 161.311 C 255.636 161.417,256.086 161.191,256.636 160.807 C 257.186 160.424,257.964 159.927,258.364 159.703 C 258.764 159.478,258.924 159.290,258.721 159.284 C 258.517 159.278,257.740 159.688,256.994 160.195 M265.173 159.746 C 265.719 160.002,266.700 160.692,267.355 161.279 C 268.486 162.293,268.482 162.280,267.273 161.028 C 266.573 160.303,265.591 159.613,265.091 159.495 C 264.228 159.291,264.232 159.304,265.173 159.746 M303.191 160.001 C 304.734 160.943,305.240 160.942,303.818 160.000 C 303.218 159.603,302.564 159.277,302.364 159.276 C 302.164 159.276,302.536 159.602,303.191 160.001 M293.582 161.182 C 292.200 162.626,291.183 164.323,292.004 163.816 C 292.202 163.693,292.364 163.378,292.364 163.116 C 292.364 162.853,293.096 161.963,293.992 161.137 C 294.887 160.312,295.494 159.636,295.340 159.636 C 295.186 159.636,294.395 160.332,293.582 161.182 M93.661 160.879 L 93.897 161.818 85.833 161.818 L 77.769 161.818 77.993 161.000 C 78.187 160.291,78.163 160.267,77.816 160.821 C 77.035 162.067,77.725 162.182,86.021 162.182 L 94.182 162.182 94.182 161.294 C 94.182 160.806,94.012 160.301,93.804 160.173 C 93.558 160.021,93.508 160.269,93.661 160.879 M132.727 161.266 C 132.727 161.722,131.492 161.820,124.636 161.909 L 116.545 162.015 124.818 162.098 C 132.876 162.180,133.091 162.163,133.091 161.455 C 133.091 161.055,133.009 160.727,132.909 160.727 C 132.809 160.727,132.727 160.970,132.727 161.266 M254.435 162.885 C 254.096 163.460,253.819 164.069,253.820 164.238 C 253.820 164.407,254.156 163.995,254.566 163.323 C 254.976 162.650,255.254 162.041,255.182 161.970 C 255.111 161.899,254.775 162.311,254.435 162.885 M306.101 162.886 C 306.438 163.473,306.785 163.882,306.873 163.794 C 307.096 163.571,306.121 161.818,305.774 161.818 C 305.617 161.818,305.764 162.299,306.101 162.886 M330.404 162.727 C 330.703 164.064,330.911 164.355,330.904 163.424 C 330.900 163.041,330.732 162.482,330.529 162.182 C 330.259 161.783,330.226 161.931,330.404 162.727 M269.324 164.907 C 269.130 165.411,268.160 165.470,261.495 165.378 C 257.310 165.320,253.963 165.395,254.056 165.545 C 254.424 166.139,269.461 165.862,269.693 165.257 C 269.811 164.948,269.826 164.614,269.726 164.514 C 269.626 164.414,269.445 164.591,269.324 164.907 M291.355 164.909 C 291.461 165.610,291.743 165.636,299.273 165.636 C 306.802 165.636,307.085 165.610,307.190 164.909 C 307.290 164.244,307.266 164.237,306.904 164.818 C 306.550 165.390,305.772 165.455,299.273 165.455 C 292.774 165.455,291.996 165.390,291.641 164.818 C 291.280 164.237,291.255 164.244,291.355 164.909 M331.022 166.364 C 331.024 167.564,331.092 168.011,331.173 167.357 C 331.254 166.704,331.252 165.722,331.169 165.175 C 331.086 164.629,331.020 165.164,331.022 166.364 M330.588 169.152 C 330.564 169.486,330.451 170.058,330.336 170.425 C 330.138 171.056,330.149 171.057,330.542 170.443 C 330.771 170.087,330.884 169.514,330.794 169.170 C 330.646 168.607,330.626 168.606,330.588 169.152 M103.766 173.079 C 101.593 173.980,100.802 181.687,102.660 183.847 C 103.516 184.842,105.813 185.223,106.901 184.551 C 109.128 183.174,108.741 173.111,106.460 173.086 C 106.207 173.083,105.673 173.008,105.273 172.918 C 104.873 172.829,104.195 172.901,103.766 173.079 M328.299 173.790 C 327.835 174.375,326.579 175.439,325.509 176.154 C 323.140 177.738,323.428 177.898,325.849 176.344 C 326.802 175.733,328.011 174.669,328.536 173.980 C 329.695 172.460,329.488 172.294,328.299 173.790 M277.965 175.310 C 277.222 176.132,276.779 181.313,277.241 183.779 C 277.659 186.005,280.906 186.710,282.455 184.911 C 283.639 183.534,283.684 176.984,282.519 175.504 C 281.528 174.244,279.027 174.138,277.965 175.310 M321.636 177.818 C 321.178 178.015,321.111 178.131,321.455 178.131 C 321.755 178.131,322.327 177.990,322.727 177.818 C 323.186 177.621,323.253 177.506,322.909 177.506 C 322.609 177.506,322.036 177.646,321.636 177.818 M301.662 178.542 C 298.749 179.900,298.178 181.828,300.172 183.579 C 303.132 186.178,309.269 186.071,312.086 183.372 C 315.676 179.933,307.154 175.984,301.662 178.542 M319.130 182.938 C 318.992 185.554,318.807 188.213,318.719 188.847 C 318.565 189.949,318.574 189.943,318.907 188.727 C 319.325 187.201,319.922 178.182,319.604 178.182 C 319.482 178.182,319.268 180.322,319.130 182.938 M318.231 190.788 C 318.204 191.222,318.088 191.877,317.973 192.243 C 317.774 192.874,317.785 192.875,318.178 192.262 C 318.407 191.907,318.523 191.252,318.437 190.808 C 318.281 190.001,318.281 190.001,318.231 190.788 M93.369 193.545 C 94.108 196.426,96.636 199.359,99.703 200.893 C 106.666 204.376,115.048 200.868,117.257 193.545 L 117.504 192.727 105.331 192.727 L 93.159 192.727 93.369 193.545 M317.299 194.390 C 317.165 194.923,317.126 195.429,317.211 195.514 C 317.297 195.600,317.477 195.234,317.610 194.701 C 317.744 194.168,317.783 193.662,317.698 193.577 C 317.612 193.491,317.432 193.857,317.299 194.390 M268.937 195.591 C 268.188 196.803,272.077 201.839,274.828 203.221 C 281.588 206.618,292.000 202.141,292.000 195.838 C 292.000 195.198,269.330 194.956,268.937 195.591 M310.253 207.273 C 309.391 208.273,308.788 209.091,308.912 209.091 C 309.139 209.091,310.676 207.370,311.566 206.121 C 312.426 204.915,311.844 205.424,310.253 207.273 M307.503 210.394 C 306.930 210.898,306.533 211.382,306.621 211.469 C 306.709 211.557,307.249 211.140,307.822 210.542 C 309.087 209.221,308.924 209.145,307.503 210.394 M219.666 230.354 C 218.382 231.236,216.909 232.414,216.393 232.971 L 215.455 233.985 216.545 233.037 C 217.145 232.516,218.659 231.401,219.909 230.559 C 221.159 229.716,222.182 228.960,222.182 228.877 C 222.182 228.634,222.103 228.680,219.666 230.354 M300.896 230.622 C 300.754 231.465,300.515 232.406,300.364 232.713 C 296.793 240.033,293.360 243.240,286.364 245.791 L 285.273 246.189 286.400 246.024 C 291.421 245.287,297.362 240.033,300.283 233.747 C 301.057 232.081,301.743 229.091,301.351 229.091 C 301.243 229.091,301.038 229.780,300.896 230.622 M341.117 230.070 C 341.131 230.231,342.205 231.141,343.502 232.092 C 344.800 233.042,345.763 233.660,345.642 233.464 C 345.292 232.898,341.088 229.744,341.117 230.070 M212.610 236.429 C 211.297 237.882,210.288 239.137,210.369 239.218 C 210.450 239.298,210.972 238.816,211.531 238.145 C 212.089 237.475,213.163 236.285,213.917 235.502 C 214.672 234.718,215.224 234.012,215.144 233.932 C 215.064 233.852,213.924 234.975,212.610 236.429 M346.182 233.936 C 346.182 234.050,347.273 235.257,348.607 236.617 L 351.032 239.091 349.161 236.870 C 347.276 234.632,346.182 233.554,346.182 233.936 M352.231 241.091 C 353.874 243.521,354.532 244.252,353.597 242.609 C 353.219 241.944,352.452 240.880,351.894 240.245 C 351.160 239.411,351.253 239.645,352.231 241.091 M206.476 244.818 C 205.262 247.131,204.337 249.186,204.457 249.306 C 204.516 249.364,205.250 248.031,206.088 246.342 C 207.643 243.209,207.947 242.018,206.476 244.818 M354.909 245.455 C 355.317 246.255,355.733 246.909,355.833 246.909 C 355.933 246.909,355.681 246.255,355.273 245.455 C 354.865 244.655,354.449 244.000,354.349 244.000 C 354.249 244.000,354.501 244.655,354.909 245.455 M203.136 252.560 C 203.011 252.884,202.923 253.423,202.940 253.757 C 202.958 254.091,203.116 253.881,203.292 253.291 C 203.635 252.143,203.514 251.575,203.136 252.560 M358.224 253.455 C 358.241 253.755,358.385 254.409,358.545 254.909 L 358.837 255.818 358.867 254.909 C 358.884 254.409,358.739 253.755,358.545 253.455 C 358.232 252.970,358.196 252.970,358.224 253.455 M202.266 256.364 C 202.266 257.064,202.341 257.350,202.432 257.000 C 202.524 256.650,202.524 256.077,202.432 255.727 C 202.341 255.377,202.266 255.664,202.266 256.364 M359.364 258.364 C 359.368 259.164,359.443 259.448,359.530 258.996 C 359.617 258.543,359.614 257.889,359.523 257.541 C 359.432 257.194,359.360 257.564,359.364 258.364 M201.328 262.091 C 200.999 265.573,201.033 356.364,201.364 356.364 C 201.514 356.364,201.636 334.600,201.636 308.000 C 201.636 281.400,201.619 259.636,201.598 259.636 C 201.577 259.636,201.455 260.741,201.328 262.091 M359.721 261.091 C 359.721 261.791,359.796 262.077,359.887 261.727 C 359.978 261.377,359.978 260.805,359.887 260.455 C 359.796 260.105,359.721 260.391,359.721 261.091 " stroke="none" fill="#dc748d" fill-rule="evenodd"></path><path id="path7" d="M206.382 61.364 C 194.939 61.471,194.927 61.473,194.915 63.125 C 194.900 65.093,194.884 65.091,212.427 65.091 C 230.415 65.091,230.267 65.111,229.669 62.729 C 229.320 61.335,228.137 61.082,222.431 61.176 C 219.594 61.223,212.372 61.307,206.382 61.364 M181.032 62.349 C 180.705 63.065,180.745 63.427,181.230 64.167 C 182.517 66.132,189.818 65.318,189.818 63.210 C 189.818 61.241,181.890 60.464,181.032 62.349 M199.636 73.449 L 182.000 73.636 181.905 74.727 C 181.715 76.916,179.013 76.786,223.371 76.734 L 229.107 76.727 229.514 75.833 C 229.840 75.117,229.801 74.755,229.316 74.015 L 228.711 73.091 222.992 73.177 C 219.846 73.224,209.336 73.346,199.636 73.449 M181.886 85.996 C 180.650 88.708,180.819 88.727,206.395 88.727 L 229.107 88.727 229.521 87.818 C 229.831 87.138,229.831 86.680,229.521 86.000 L 229.107 85.091 205.703 85.091 L 182.299 85.091 181.886 85.996 M66.108 220.634 C 67.768 220.702,70.386 220.702,71.926 220.634 C 73.467 220.566,72.109 220.510,68.909 220.511 C 65.709 220.511,64.449 220.567,66.108 220.634 M146.818 220.984 C 147.268 221.071,148.005 221.071,148.455 220.984 C 148.905 220.897,148.536 220.826,147.636 220.826 C 146.736 220.826,146.368 220.897,146.818 220.984 M150.273 221.342 C 150.623 221.433,151.195 221.433,151.545 221.342 C 151.895 221.250,151.609 221.175,150.909 221.175 C 150.209 221.175,149.923 221.250,150.273 221.342 M41.931 227.810 C 40.898 228.505,39.926 229.280,39.770 229.532 C 39.534 229.915,42.692 227.810,43.800 226.846 C 44.584 226.164,43.690 226.625,41.931 227.810 M35.612 233.005 L 34.364 234.362 35.635 233.272 C 36.334 232.672,36.974 232.141,37.059 232.091 C 37.143 232.041,37.133 231.921,37.036 231.824 C 36.939 231.727,36.298 232.258,35.612 233.005 M33.250 235.727 L 32.182 236.909 33.364 235.841 C 34.465 234.846,34.713 234.545,34.432 234.545 C 34.369 234.545,33.837 235.077,33.250 235.727 M23.462 257.909 C 23.342 258.759,23.291 281.136,23.349 307.636 L 23.455 355.818 105.072 355.910 C 149.961 355.960,186.812 355.879,186.963 355.728 C 187.113 355.578,150.424 355.496,105.430 355.547 L 23.624 355.640 23.721 306.002 C 23.774 278.701,23.787 256.364,23.750 256.364 C 23.712 256.364,23.583 257.059,23.462 257.909 M186.993 258.909 C 186.993 259.609,187.068 259.895,187.160 259.545 C 187.251 259.195,187.251 258.623,187.160 258.273 C 187.068 257.923,186.993 258.209,186.993 258.909 " stroke="none" fill="#c4c4f5" fill-rule="evenodd"></path><path id="path8" d="M214.636 50.818 C 218.586 50.876,225.050 50.876,229.000 50.818 C 232.950 50.759,229.718 50.711,221.818 50.711 C 213.918 50.711,210.686 50.759,214.636 50.818 M237.636 51.620 C 239.174 52.399,241.455 54.713,241.455 55.494 C 241.455 55.749,241.612 56.054,241.804 56.173 C 242.323 56.494,241.539 54.500,240.803 53.628 C 239.938 52.604,238.173 51.414,237.091 51.126 C 236.591 50.992,236.836 51.215,237.636 51.620 M242.351 76.727 C 242.351 87.427,242.398 91.805,242.454 86.455 C 242.511 81.105,242.511 72.350,242.454 67.000 C 242.398 61.650,242.351 66.027,242.351 76.727 M185.079 61.363 C 187.606 61.452,188.693 61.640,189.169 62.071 C 189.541 62.407,189.818 62.484,189.818 62.251 C 189.818 61.429,188.332 61.093,185.024 61.166 L 181.636 61.242 185.079 61.363 M201.022 61.363 C 204.085 61.424,208.994 61.424,211.932 61.363 C 214.869 61.302,212.364 61.252,206.364 61.252 C 200.364 61.252,197.960 61.302,201.022 61.363 M180.800 61.891 C 180.032 62.659,180.545 65.091,181.476 65.091 C 181.673 65.091,181.563 64.675,181.230 64.167 C 180.745 63.427,180.705 63.065,181.032 62.349 C 181.487 61.349,181.439 61.252,180.800 61.891 M194.788 62.061 C 194.386 62.462,194.515 64.188,194.982 64.655 C 195.717 65.390,196.155 65.138,195.466 64.376 C 195.061 63.929,194.885 63.317,194.996 62.740 C 195.184 61.752,195.164 61.685,194.788 62.061 M167.636 84.454 C 167.834 98.027,167.827 97.975,170.064 100.213 C 171.248 101.396,173.678 102.542,174.909 102.495 C 175.639 102.468,175.675 102.429,175.091 102.298 C 173.051 101.840,171.820 101.274,170.678 100.271 C 168.162 98.062,168.194 98.258,168.069 84.455 C 168.007 77.605,167.844 72.000,167.706 72.000 C 167.567 71.999,167.536 77.604,167.636 84.454 M181.891 73.527 C 181.299 74.119,181.338 76.178,181.951 76.686 C 182.308 76.983,187.347 77.071,200.042 77.000 L 217.636 76.902 199.916 76.815 L 182.196 76.727 181.975 75.847 C 181.384 73.493,180.182 73.656,199.641 73.449 L 217.273 73.262 199.800 73.177 C 186.598 73.112,182.221 73.198,181.891 73.527 M191.389 85.000 C 196.152 85.057,203.843 85.057,208.480 85.000 C 213.116 84.942,209.218 84.895,199.818 84.895 C 190.418 84.895,186.625 84.942,191.389 85.000 M181.503 87.727 C 181.786 88.382,182.198 88.717,182.695 88.699 C 183.217 88.679,183.284 88.608,182.909 88.473 C 182.609 88.365,182.073 87.928,181.717 87.502 C 181.077 86.734,181.075 86.736,181.503 87.727 M191.727 89.000 C 196.277 89.057,203.723 89.057,208.273 89.000 C 212.823 88.942,209.100 88.895,200.000 88.895 C 190.900 88.895,187.177 88.942,191.727 89.000 M275.000 88.988 C 275.550 89.071,276.450 89.071,277.000 88.988 C 277.550 88.904,277.100 88.836,276.000 88.836 C 274.900 88.836,274.450 88.904,275.000 88.988 M283.364 88.988 C 283.914 89.071,284.814 89.071,285.364 88.988 C 285.914 88.904,285.464 88.836,284.364 88.836 C 283.264 88.836,282.814 88.904,283.364 88.988 M272.091 89.342 C 272.441 89.433,273.014 89.433,273.364 89.342 C 273.714 89.250,273.427 89.175,272.727 89.175 C 272.027 89.175,271.741 89.250,272.091 89.342 M287.000 89.342 C 287.350 89.433,287.923 89.433,288.273 89.342 C 288.623 89.250,288.336 89.175,287.636 89.175 C 286.936 89.175,286.650 89.250,287.000 89.342 M102.825 90.082 C 103.478 90.163,104.460 90.161,105.007 90.078 C 105.553 89.995,105.018 89.929,103.818 89.931 C 102.618 89.933,102.171 90.001,102.825 90.082 M267.143 90.098 C 267.048 90.251,267.611 90.316,268.394 90.241 C 269.177 90.167,269.818 90.041,269.818 89.962 C 269.818 89.691,267.316 89.818,267.143 90.098 M290.545 89.962 C 290.545 90.041,291.186 90.167,291.969 90.241 C 292.753 90.316,293.316 90.251,293.221 90.098 C 293.048 89.818,290.545 89.691,290.545 89.962 M107.364 90.432 C 107.714 90.524,108.286 90.524,108.636 90.432 C 108.986 90.341,108.700 90.266,108.000 90.266 C 107.300 90.266,107.014 90.341,107.364 90.432 M95.091 90.909 C 94.164 91.307,95.120 91.307,96.364 90.909 C 97.094 90.675,97.130 90.616,96.545 90.607 C 96.145 90.601,95.491 90.737,95.091 90.909 M264.364 90.909 C 263.641 91.376,264.549 91.376,265.636 90.909 L 266.364 90.597 265.636 90.577 C 265.236 90.566,264.664 90.715,264.364 90.909 M258.636 92.940 C 257.986 93.224,257.455 93.540,257.455 93.642 C 257.455 93.832,260.005 92.843,260.315 92.534 C 260.624 92.225,259.836 92.415,258.636 92.940 M82.756 97.375 L 82.058 98.364 83.029 97.482 C 84.049 96.556,84.175 96.356,83.727 96.375 C 83.577 96.381,83.140 96.831,82.756 97.375 M240.159 99.669 C 238.305 101.619,237.268 101.968,232.727 102.174 L 228.545 102.364 228.438 104.197 C 228.379 105.205,228.481 106.432,228.665 106.924 C 228.897 107.544,228.943 107.010,228.815 105.182 L 228.630 102.545 232.425 102.545 C 236.729 102.545,239.303 101.636,240.750 99.605 C 241.726 98.234,241.500 98.258,240.159 99.669 M311.636 98.666 C 311.636 98.766,312.291 99.366,313.091 100.000 C 313.891 100.634,314.545 101.070,314.545 100.970 C 314.545 100.870,313.891 100.270,313.091 99.636 C 312.291 99.003,311.636 98.566,311.636 98.666 M245.628 100.787 C 243.504 102.476,239.749 106.149,238.440 107.818 C 237.813 108.618,238.848 107.701,240.741 105.780 C 242.633 103.859,244.918 101.694,245.818 100.969 C 246.718 100.244,247.369 99.647,247.265 99.643 C 247.160 99.640,246.424 100.154,245.628 100.787 M315.897 102.190 C 316.541 102.865,317.129 103.344,317.205 103.254 C 317.280 103.164,316.753 102.612,316.034 102.026 L 314.727 100.962 315.897 102.190 M191.000 102.454 C 195.550 102.512,202.995 102.512,207.545 102.454 C 212.095 102.396,208.373 102.349,199.273 102.349 C 190.173 102.349,186.450 102.396,191.000 102.454 M145.273 104.000 C 146.054 104.800,146.775 105.455,146.875 105.455 C 146.975 105.455,146.418 104.800,145.636 104.000 C 144.855 103.200,144.134 102.545,144.034 102.545 C 143.934 102.545,144.492 103.200,145.273 104.000 M65.000 104.990 C 63.850 105.732,62.909 106.496,62.909 106.687 C 62.909 106.879,63.277 106.704,63.727 106.298 C 64.177 105.892,65.282 105.129,66.182 104.602 C 67.082 104.075,67.655 103.643,67.455 103.642 C 67.255 103.641,66.150 104.247,65.000 104.990 M220.258 106.636 C 221.191 107.486,222.701 108.875,223.613 109.721 C 224.526 110.568,225.518 111.250,225.818 111.238 C 226.303 111.218,226.303 111.192,225.818 111.005 C 225.518 110.889,223.866 109.511,222.147 107.943 C 220.427 106.374,218.917 105.091,218.791 105.091 C 218.665 105.091,219.325 105.786,220.258 106.636 M60.934 108.545 C 60.400 109.245,60.027 109.818,60.105 109.818 C 60.183 109.818,60.768 109.245,61.405 108.545 C 62.042 107.845,62.415 107.273,62.234 107.273 C 62.053 107.273,61.468 107.845,60.934 108.545 M235.886 110.917 C 234.564 112.784,234.817 112.780,236.320 110.909 C 236.963 110.109,237.358 109.458,237.199 109.462 C 237.040 109.467,236.448 110.121,235.886 110.917 M228.473 110.310 C 228.313 110.581,227.936 110.895,227.636 111.009 C 227.196 111.176,227.211 111.221,227.714 111.244 C 228.057 111.260,228.513 110.945,228.727 110.545 C 229.159 109.739,228.933 109.531,228.473 110.310 M57.714 113.724 C 57.395 114.476,57.041 115.500,56.928 116.000 L 56.723 116.909 57.126 116.000 C 58.261 113.434,58.564 112.625,58.436 112.497 C 58.359 112.419,58.034 112.972,57.714 113.724 M232.011 116.946 C 231.379 118.066,230.920 119.041,230.991 119.113 C 231.063 119.184,231.657 118.268,232.313 117.076 C 232.968 115.884,233.427 114.909,233.332 114.909 C 233.238 114.909,232.643 115.826,232.011 116.946 M56.233 118.258 C 56.110 118.716,56.045 128.255,56.087 139.455 L 56.165 159.818 56.355 138.727 C 56.460 127.127,56.525 117.589,56.501 117.531 C 56.476 117.473,56.356 117.800,56.233 118.258 M154.351 141.455 C 154.351 151.755,154.397 155.968,154.454 150.818 C 154.511 145.668,154.511 137.241,154.454 132.091 C 154.397 126.941,154.351 131.155,154.351 141.455 M226.424 131.515 C 226.291 131.648,226.192 132.098,226.205 132.515 C 226.226 133.212,226.256 133.203,226.576 132.402 C 226.932 131.511,226.859 131.081,226.424 131.515 M225.567 137.636 C 225.569 138.836,225.637 139.283,225.718 138.630 C 225.799 137.976,225.797 136.994,225.714 136.448 C 225.631 135.902,225.565 136.436,225.567 137.636 M334.404 136.545 C 334.703 137.883,334.911 138.173,334.904 137.242 C 334.900 136.859,334.732 136.300,334.529 136.000 C 334.259 135.602,334.226 135.749,334.404 136.545 M225.267 183.455 C 225.267 207.255,225.310 216.937,225.364 204.972 C 225.417 193.006,225.417 173.534,225.364 161.699 C 225.310 149.865,225.267 159.655,225.267 183.455 M76.102 220.631 C 77.058 220.707,78.531 220.706,79.375 220.629 C 80.219 220.553,79.436 220.492,77.636 220.493 C 75.836 220.494,75.146 220.556,76.102 220.631 M212.159 236.455 L 211.091 237.636 212.273 236.568 C 212.923 235.981,213.455 235.449,213.455 235.387 C 213.455 235.106,213.154 235.353,212.159 236.455 M200.814 309.342 C 200.767 335.180,200.850 356.397,201.000 356.489 C 201.247 356.642,201.245 323.939,200.996 279.273 C 200.944 269.973,200.862 283.504,200.814 309.342 " stroke="none" fill="#c8e4dd" fill-rule="evenodd"></path></g></svg>